<svg width="68" height="68" viewBox="0 0 68 68" fill="none" xmlns="http://www.w3.org/2000/svg">
<g id="&#208;&#186;&#208;&#189;&#208;&#190;&#208;&#191;&#208;&#186;&#208;&#176;">
<circle id="Ellipse 1063" cx="34" cy="34" r="34" fill="white"/>
<path id="Arrow 13" d="M24.3486 40.8482C23.9296 41.208 23.8815 41.8393 24.2413 42.2584C24.6011 42.6774 25.2324 42.7254 25.6514 42.3656L24.3486 40.8482ZM43.0098 27.0759C43.0517 26.5252 42.6393 26.0448 42.0886 26.0029L33.1145 25.3201C32.5638 25.2782 32.0834 25.6907 32.0415 26.2414C31.9996 26.7921 32.4121 27.2725 32.9628 27.3144L40.9397 27.9213L40.3328 35.8983C40.2909 36.4489 40.7034 36.9293 41.254 36.9712C41.8047 37.0131 42.2851 36.6007 42.327 36.05L43.0098 27.0759ZM25.6514 42.3656L42.6641 27.7588L41.3613 26.2413L24.3486 40.8482L25.6514 42.3656Z" fill="#212121"/>
</g>
</svg>
