<svg width="129" height="134" viewBox="0 0 129 134" fill="none" xmlns="http://www.w3.org/2000/svg">
<ellipse cx="67.4882" cy="128.477" rx="25.7671" ry="4.85747" fill="#E7C6B6"/>
<path fill-rule="evenodd" clip-rule="evenodd" d="M66.6795 114.491L62.3339 122.519C64.022 122.746 65.7429 122.862 67.4898 122.862C89.7253 122.862 107.751 103.943 107.751 80.6043C107.751 61.8929 96.1642 46.0218 80.1108 40.4642L79.0206 50.2833C77.9628 59.0859 79.5496 67.5434 82.723 75.8282C84.6959 80.8869 87.0693 86.6807 88.9629 91.3031C90.6228 95.3551 91.9139 98.507 92.2433 99.4745C92.5959 100.51 92.5959 101.373 92.5959 102.236C92.4196 104.48 91.5381 105.688 89.9514 107.414C88.1884 109.485 85.3675 112.765 83.6045 114.491C82.1941 115.872 79.9022 118.115 77.6102 116.044C75.142 113.973 76.3761 111.557 77.7865 110.003C79.1527 108.443 80.2983 107.17 81.6031 105.721L81.6038 105.72C82.3194 104.925 83.083 104.077 83.9571 103.099C84.486 102.581 84.6623 101.546 84.1334 100.683C83.4282 99.3018 81.6652 95.8499 80.96 94.6417C80.0785 92.9157 78.4917 92.2253 76.5524 92.9157L73.2027 93.7787C71.2633 94.4691 70.2055 96.5403 70.0292 98.6115L68.6188 108.968C68.4425 111.039 67.7373 112.765 66.6795 114.491ZM27.2288 80.6043C27.2288 99.1689 38.6342 114.938 54.4917 120.612L58.57 111.73C59.4515 110.004 60.1567 107.415 60.333 105.517C60.333 105.517 61.3908 93.4347 61.5671 89.4649C61.5671 86.7033 59.0989 80.4896 57.8648 77.5554C55.7347 72.8286 52.1176 71.3492 46.7372 69.1485C45.4378 68.617 44.0355 68.0435 42.5265 67.372C39.7143 66.1749 34.1038 64.0648 30.929 62.8837C28.554 68.273 27.2288 74.2762 27.2288 80.6043ZM40.8397 59.0812C38.4563 58.1639 36.3766 57.3636 34.3397 56.6163C37.5873 51.6814 41.8094 47.5071 46.7141 44.3998C46.0098 45.7154 45.6127 47.205 45.6127 48.7831C45.6127 54.1195 50.1544 58.4456 55.7568 58.4456C61.3593 58.4456 65.901 54.1195 65.901 48.7831C65.901 44.3008 62.6968 40.5313 58.3512 39.4395C61.2872 38.7243 64.3464 38.3462 67.4898 38.3462C69.2803 38.3462 71.0436 38.4689 72.7723 38.7067C72.5266 40.5567 72.256 42.5777 71.9933 44.5397V44.5397C71.4298 48.7482 70.9026 52.6853 70.7348 54.0817C70.104 58.5591 67.6393 59.8601 65.1074 61.1965L65.1072 61.1966C64.8087 61.3542 64.5092 61.5123 64.2117 61.6761L63.9641 61.8027C60.0399 63.8094 57.2132 65.2548 51.3416 63.0569C47.0805 61.4828 43.7361 60.1957 40.84 59.0813L40.8397 59.0812Z" fill="#E7C6B6"/>
<mask id="path-3-outside-1_1_107" maskUnits="userSpaceOnUse" x="24.8286" y="31.7666" width="69" height="96" fill="black">
<rect fill="white" x="24.8286" y="31.7666" width="69" height="96"/>
<path fill-rule="evenodd" clip-rule="evenodd" d="M55.2852 40.3927C50.2383 40.9023 46.4096 45.3189 46.9317 50.2451C47.4538 55.1713 51.9786 58.7385 57.0255 58.3988C62.0723 57.8892 65.901 53.4726 65.3789 48.5464C64.8568 43.6202 60.332 39.8831 55.2852 40.3927Z"/>
</mask>
<path d="M58.4922 125.242C58.0709 125.969 58.3191 126.901 59.0467 127.322C59.7742 127.743 60.7055 127.495 61.1268 126.768L58.4922 125.242ZM66.5967 114.284L65.2998 113.487C65.2929 113.498 65.286 113.509 65.2793 113.521L66.5967 114.284ZM68.511 108.848L67.0028 108.642C66.9993 108.667 66.9965 108.693 66.9943 108.718L68.511 108.848ZM69.9033 98.6557L71.4115 98.8617C71.415 98.8363 71.4178 98.8108 71.42 98.7852L69.9033 98.6557ZM73.0358 93.8993L72.6571 92.425C72.613 92.4363 72.5695 92.4496 72.5266 92.4648L73.0358 93.8993ZM76.3424 93.05L76.7211 94.5244C76.7652 94.5131 76.8087 94.4998 76.8516 94.4846L76.3424 93.05ZM80.6931 94.7487L79.3383 95.4427C79.3513 95.4681 79.365 95.4931 79.3794 95.5178L80.6931 94.7487ZM83.8256 100.694L82.4708 101.388C82.4888 101.423 82.5081 101.458 82.5288 101.491L83.8256 100.694ZM83.6516 103.072L82.5883 101.983C82.5641 102.007 82.5407 102.031 82.5182 102.056L83.6516 103.072ZM81.3281 105.652L80.1983 104.632L81.3281 105.652ZM77.5606 109.867L78.6861 110.892C78.6923 110.885 78.6984 110.878 78.7044 110.872L77.5606 109.867ZM77.3866 115.813L78.4055 114.682C78.3917 114.669 78.3776 114.657 78.3634 114.645L77.3866 115.813ZM83.3036 114.284L84.3669 115.373L83.3036 114.284ZM89.5687 107.319L88.4495 106.287C88.4364 106.301 88.4235 106.316 88.411 106.331L89.5687 107.319ZM92.1791 102.223L93.6967 102.343C93.6998 102.303 93.7014 102.263 93.7014 102.223H92.1791ZM91.8311 99.5051L93.2717 99.0131L91.8311 99.5051ZM88.5929 91.4629L90.0009 90.8844L88.5929 91.4629ZM82.4334 76.2329L81.0124 76.7788L81.0158 76.7874L82.4334 76.2329ZM78.7788 51.0921L80.2902 51.2743L80.2917 51.2606L78.7788 51.0921ZM82.032 35.6326C82.125 34.797 81.5231 34.0443 80.6876 33.9512C79.852 33.8582 79.0992 34.4601 79.0062 35.2956L82.032 35.6326ZM58.5919 111.567L57.2371 110.873C57.2347 110.878 57.2323 110.882 57.2299 110.887L58.5919 111.567ZM60.3322 105.452L61.848 105.593L61.8487 105.585L60.3322 105.452ZM61.5505 89.6538L63.0712 89.7215C63.0722 89.699 63.0727 89.6764 63.0727 89.6538H61.5505ZM57.8958 77.9328L59.2984 77.3411C59.2934 77.3293 59.2883 77.3175 59.283 77.3058L57.8958 77.9328ZM46.9116 69.6589L47.4865 68.2493L47.4864 68.2493L46.9116 69.6589ZM42.7552 67.9104L43.3725 66.519C43.365 66.5156 43.3575 66.5124 43.3499 66.5091L42.7552 67.9104ZM29.0068 62.6445L29.53 61.215C29.5253 61.2133 29.5207 61.2116 29.516 61.2099L29.0068 62.6445ZM27.0924 58.2279L25.666 57.6964L27.0924 58.2279ZM31.9653 56.3593L31.4117 57.7773C31.43 57.7845 31.4485 57.7913 31.4671 57.7977L31.9653 56.3593ZM41.0902 59.7508L41.6355 58.3296L41.0902 59.7508ZM51.4567 63.6637L51.989 62.2375L51.9828 62.2353L51.4567 63.6637ZM63.9166 62.4293L63.2252 61.0731L63.2252 61.0731L63.9166 62.4293ZM64.1609 62.3047L64.8517 63.6612C64.8658 63.6541 64.8797 63.6467 64.8935 63.6391L64.1609 62.3047ZM65.0451 61.8327L65.754 63.1798L65.7541 63.1798L65.0451 61.8327ZM70.6 54.8305L72.1073 55.0435C72.1088 55.0332 72.1101 55.0229 72.1114 55.0126L70.6 54.8305ZM71.8422 45.4396L70.3335 45.237V45.237L71.8422 45.4396ZM74.8954 33.9523C74.998 33.1179 74.4047 32.3583 73.5703 32.2557C72.7358 32.1531 71.9762 32.7464 71.8736 33.5809L74.8954 33.9523ZM50.6168 124.137C50.2413 124.889 50.5468 125.803 51.299 126.179C52.0512 126.554 52.9654 126.249 53.3408 125.497L50.6168 124.137ZM61.1268 126.768L67.914 115.047L65.2793 113.521L58.4922 125.242L61.1268 126.768ZM67.8935 115.081C69.024 113.242 69.8281 111.316 70.0277 108.977L66.9943 108.718C66.8458 110.457 66.2577 111.928 65.2998 113.487L67.8935 115.081ZM70.0193 109.054L71.4115 98.8617L68.395 98.4497L67.0028 108.642L70.0193 109.054ZM71.42 98.7852C71.5668 97.0655 72.4149 95.735 73.545 95.3339L72.5266 92.4648C69.8281 93.4226 68.5878 96.1691 68.3865 98.5262L71.42 98.7852ZM73.4145 95.3737L76.7211 94.5244L75.9636 91.5756L72.6571 92.425L73.4145 95.3737ZM76.8516 94.4846C77.5293 94.244 78.0096 94.2865 78.3416 94.42C78.6765 94.5546 79.0359 94.8523 79.3383 95.4427L82.048 94.0547C81.4802 92.9464 80.6214 92.055 79.477 91.5951C78.3298 91.134 77.0698 91.1765 75.8332 91.6154L76.8516 94.4846ZM79.3794 95.5178C80.0477 96.6592 81.7613 100.003 82.4708 101.388L85.1805 100C84.4977 98.667 82.7308 95.2163 82.0068 93.9796L79.3794 95.5178ZM82.5288 101.491C82.6054 101.616 82.6272 101.745 82.6159 101.855C82.6029 101.982 82.5566 102.014 82.5883 101.983L84.715 104.162C85.7849 103.117 85.9881 101.305 85.1225 99.8969L82.5288 101.491ZM82.5182 102.056C81.6572 103.017 80.905 103.85 80.1983 104.632L82.458 106.673C83.1644 105.89 83.92 105.053 84.7851 104.088L82.5182 102.056ZM80.1983 104.632C78.9106 106.058 77.7732 107.318 76.4168 108.863L78.7044 110.872C80.0452 109.345 81.1695 108.1 82.458 106.673L80.1983 104.632ZM76.4351 108.842C75.6578 109.696 74.7809 110.936 74.5364 112.398C74.2675 114.006 74.8055 115.638 76.4097 116.98L78.3634 114.645C77.5312 113.949 77.4601 113.373 77.5392 112.9C77.6428 112.281 78.0712 111.567 78.6861 110.892L76.4351 108.842ZM76.3676 116.943C77.1396 117.639 77.9974 118.042 78.9096 118.139C79.8043 118.233 80.6198 118.019 81.304 117.707C82.6105 117.11 83.7114 116.013 84.3669 115.373L82.2403 113.194C81.5036 113.913 80.7771 114.6 80.0388 114.938C79.7006 115.092 79.4392 115.133 79.2299 115.111C79.0381 115.091 78.7647 115.005 78.4055 114.682L76.3676 116.943ZM84.3669 115.373C86.1672 113.616 89.0003 110.329 90.7264 108.307L88.411 106.331C86.6565 108.386 83.9206 111.554 82.2403 113.194L84.3669 115.373ZM90.6878 108.351C91.4809 107.491 92.1981 106.656 92.7277 105.7C93.2771 104.708 93.5941 103.645 93.6967 102.343L90.6616 102.103C90.5902 103.01 90.3851 103.645 90.0643 104.225C89.7237 104.84 89.2227 105.449 88.4495 106.287L90.6878 108.351ZM93.7014 102.223C93.7014 101.373 93.7094 100.295 93.2717 99.0131L90.3905 99.997C90.6488 100.753 90.6569 101.375 90.6569 102.223H93.7014ZM93.2717 99.0131C92.9268 98.0033 91.6235 94.8335 90.0009 90.8844L87.1849 92.0415C88.8393 96.0681 90.085 99.1024 90.3905 99.997L93.2717 99.0131ZM90.0009 90.8844C88.1307 86.3325 85.793 80.6427 83.8511 75.6783L81.0158 76.7874C82.9688 81.7803 85.3168 87.4948 87.1849 92.0415L90.0009 90.8844ZM83.8544 75.687C80.7859 67.6999 79.283 59.6303 80.2901 51.2743L77.2675 50.91C76.1863 59.8807 77.8159 68.4584 81.0124 76.7788L83.8544 75.687ZM80.2917 51.2606L82.032 35.6326L79.0062 35.2956L77.2659 50.9237L80.2917 51.2606ZM59.9468 112.261C60.9135 110.374 61.6577 107.635 61.8479 105.593L58.8165 105.311C58.6587 107.005 58.0107 109.363 57.2371 110.873L59.9468 112.261ZM60.3322 105.452C61.8487 105.585 61.8487 105.585 61.8487 105.585C61.8487 105.585 61.8487 105.584 61.8487 105.584C61.8488 105.584 61.8488 105.583 61.8489 105.583C61.849 105.581 61.8492 105.579 61.8494 105.576C61.8499 105.57 61.8507 105.562 61.8517 105.55C61.8537 105.528 61.8566 105.494 61.8605 105.45C61.8682 105.361 61.8795 105.231 61.894 105.065C61.9229 104.731 61.9645 104.251 62.0148 103.662C62.1156 102.485 62.2517 100.875 62.3933 99.1418C62.6754 95.6889 62.9827 91.7089 63.0712 89.7215L60.0297 89.586C59.9442 91.5056 59.6424 95.4246 59.3589 98.8939C59.2177 100.622 59.0819 102.228 58.9814 103.403C58.9312 103.99 58.8897 104.469 58.8609 104.801C58.8465 104.968 58.8352 105.097 58.8275 105.185C58.8237 105.229 58.8208 105.262 58.8188 105.285C58.8178 105.296 58.8171 105.304 58.8166 105.31C58.8163 105.313 58.8161 105.315 58.816 105.316C58.8159 105.317 58.8159 105.318 58.8159 105.318C58.8159 105.318 58.8158 105.318 58.8158 105.318C58.8158 105.318 58.8158 105.319 60.3322 105.452ZM63.0727 89.6538C63.0727 88.0049 62.3721 85.5659 61.6205 83.365C60.8426 81.0871 59.9136 78.7994 59.2984 77.3411L56.4933 78.5244C57.0963 79.9539 57.9945 82.1677 58.7394 84.3489C59.5106 86.6071 60.0282 88.5847 60.0282 89.6538H63.0727ZM59.283 77.3058C56.8963 72.0253 52.7216 70.3842 47.4865 68.2493L46.3368 71.0684C51.7238 73.2652 54.69 74.5361 56.5087 78.5597L59.283 77.3058ZM47.4864 68.2493C46.202 67.7255 44.8381 67.1692 43.3725 66.519L42.1378 69.3019C43.6514 69.9734 45.0559 70.5461 46.3368 71.0684L47.4864 68.2493ZM43.3499 66.5091C41.3147 65.6454 37.8484 64.3182 34.9157 63.2156C33.444 62.6623 32.0981 62.1623 31.12 61.8006C30.631 61.6198 30.2338 61.4735 29.9587 61.3723C29.8212 61.3218 29.7141 61.2825 29.6414 61.2558C29.6051 61.2425 29.5773 61.2323 29.5586 61.2254C29.5492 61.222 29.5421 61.2194 29.5373 61.2176C29.535 61.2168 29.5331 61.2161 29.5319 61.2157C29.5313 61.2154 29.5308 61.2153 29.5305 61.2152C29.5304 61.2151 29.5302 61.215 29.5302 61.215C29.5301 61.215 29.53 61.215 29.0068 62.6445C28.4835 64.074 28.4836 64.074 28.4836 64.074C28.4837 64.074 28.4838 64.0741 28.4839 64.0741C28.4842 64.0742 28.4846 64.0744 28.4852 64.0746C28.4863 64.075 28.4881 64.0756 28.4904 64.0765C28.495 64.0782 28.5019 64.0807 28.5111 64.0841C28.5295 64.0908 28.557 64.1009 28.593 64.1141C28.665 64.1405 28.7713 64.1795 28.908 64.2298C29.1816 64.3304 29.577 64.476 30.0641 64.6562C31.0385 65.0165 32.3791 65.5145 33.8442 66.0653C36.7851 67.171 40.193 68.4767 42.1605 69.3117L43.3499 66.5091ZM29.516 61.2099C28.9398 61.0054 28.6279 60.6627 28.4765 60.2982C28.3179 59.9163 28.286 59.3844 28.5189 58.7593L25.666 57.6964C25.2027 58.9399 25.1709 60.2766 25.6649 61.466C26.1661 62.6728 27.1594 63.6041 28.4976 64.079L29.516 61.2099ZM28.5189 58.7593C28.6748 58.3408 29.0515 57.9801 29.6384 57.7755C30.2363 57.5671 30.9051 57.5795 31.4117 57.7773L32.5189 54.9413C31.2852 54.4596 29.8657 54.472 28.6362 54.9006C27.3958 55.333 26.2062 56.2463 25.666 57.6964L28.5189 58.7593ZM31.4671 57.7977C34.3739 58.8045 37.1304 59.862 40.5449 61.172L41.6355 58.3296C38.2299 57.0229 35.426 55.9469 32.4635 54.9209L31.4671 57.7977ZM40.5449 61.172C43.4041 62.2691 46.7139 63.539 50.9306 65.0921L51.9828 62.2353C47.787 60.6898 44.4938 59.4262 41.6355 58.3296L40.5449 61.172ZM50.9244 65.0899C54.0131 66.2426 56.4372 66.4867 58.6688 66.0979C60.8398 65.7197 62.7102 64.753 64.608 63.7854L63.2252 61.0731C61.2493 62.0805 59.7877 62.8126 58.1462 63.0986C56.5652 63.374 54.6962 63.2479 51.989 62.2375L50.9244 65.0899ZM64.608 63.7854C64.689 63.7441 64.7701 63.7028 64.8517 63.6612L63.4701 60.9482C63.3878 60.9902 63.3061 61.0318 63.2252 61.0731L64.608 63.7854ZM64.8935 63.6391C65.1735 63.4854 65.4573 63.336 65.754 63.1798L64.3362 60.4856C64.0434 60.6397 63.7358 60.8015 63.4283 60.9704L64.8935 63.6391ZM65.7541 63.1798C66.9695 62.5402 68.4262 61.7874 69.622 60.5475C70.8681 59.2555 71.7564 57.5268 72.1073 55.0435L69.0928 54.6175C68.821 56.5407 68.1815 57.6555 67.4306 58.4341C66.6294 59.2648 65.6201 59.8099 64.3362 60.4856L65.7541 63.1798ZM72.1114 55.0126C72.2754 53.6517 72.7936 49.7923 73.3509 45.6422L70.3335 45.237C69.7784 49.3706 69.256 53.2607 69.0887 54.6483L72.1114 55.0126ZM73.3509 45.6422C73.9628 41.0862 74.6204 36.189 74.8954 33.9523L71.8736 33.5809C71.6013 35.7958 70.9468 40.6698 70.3335 45.237L73.3509 45.6422ZM53.3408 125.497L59.954 112.247L57.2299 110.887L50.6168 124.137L53.3408 125.497ZM46.9317 50.2451L43.9042 50.566L43.9042 50.566L46.9317 50.2451ZM55.2852 40.3927L55.591 43.4218L55.2852 40.3927ZM57.0255 58.3988L57.2299 61.4364C57.2638 61.4341 57.2976 61.4313 57.3313 61.4279L57.0255 58.3988ZM65.3789 48.5464L68.4065 48.2255L65.3789 48.5464ZM49.9593 49.9242C49.6296 46.8138 52.0817 43.7762 55.591 43.4218L54.9793 37.3636C48.3949 38.0285 43.1896 43.824 43.9042 50.566L49.9593 49.9242ZM56.821 55.3611C53.2746 55.5998 50.2954 53.0953 49.9593 49.9242L43.9042 50.566C44.6123 57.2472 50.6826 61.8771 57.2299 61.4364L56.821 55.3611ZM62.3513 48.8673C62.681 51.9777 60.229 55.0153 56.7196 55.3696L57.3313 61.4279C63.9157 60.763 69.121 54.9675 68.4065 48.2255L62.3513 48.8673ZM55.591 43.4218C58.9676 43.0809 62.0055 45.6041 62.3513 48.8673L68.4065 48.2255C67.7081 41.6364 61.6965 36.6854 54.9793 37.3636L55.591 43.4218Z" fill="#7D7272" mask="url(#path-3-outside-1_1_107)"/>
<path d="M87.6547 22.7276L79.6493 26.8045C78.7792 27.1442 77.909 26.9743 77.3869 26.125L68.1633 8.62843C67.8153 7.77908 67.9893 6.92973 68.8595 6.42012L76.8648 2.34325C77.735 2.00351 78.6052 2.17338 79.1272 3.02273L88.3508 20.5193C88.6989 21.3686 88.3508 22.3879 87.6547 22.7276Z" fill="#7D7272" stroke="#7D7272" stroke-width="3.04451"/>
<path d="M9.88785 80.6711C9.7551 80.0431 10.5012 79.6101 10.9757 80.0396L15.6701 84.2896L21.1451 81.1113C21.6986 80.79 22.3367 81.3661 22.077 81.9526L19.5049 87.7612L24.2021 92.0137C24.6763 92.443 24.3247 93.2321 23.6891 93.1649L17.406 92.501L14.8363 98.304C14.5764 98.891 13.7209 98.8026 13.5882 98.175L12.2741 91.9587L5.98482 91.2941C5.34981 91.227 5.17271 90.3833 5.7262 90.062L11.2012 86.8837L9.88785 80.6711Z" fill="#E7C6B6"/>
<path d="M18.6623 20.8691C18.6957 20.2281 19.5293 20.0035 19.877 20.5418L23.3162 25.8664L29.424 24.221C30.0417 24.0546 30.5099 24.7755 30.1081 25.2743L26.1267 30.2177L29.5695 35.5478C29.9168 36.0856 29.3726 36.7558 28.7757 36.5254L22.8792 34.2497L18.9045 39.1847C18.5021 39.6843 17.6975 39.3775 17.7309 38.7372L18.0617 32.3904L12.1554 30.1109C11.5594 29.8809 11.6064 29.0211 12.224 28.8547L18.3318 27.2093L18.6623 20.8691Z" fill="#E7C6B6"/>
<path d="M116.602 32.0971C116.95 31.5588 117.784 31.7833 117.817 32.4243L118.148 38.7646L124.255 40.4101C124.873 40.5764 124.92 41.4362 124.324 41.6662L118.418 43.9458L118.748 50.2926C118.782 50.933 117.977 51.2398 117.575 50.7401L113.6 45.8051L107.704 48.0808C107.107 48.3112 106.563 47.641 106.91 47.1033L110.353 41.773L106.371 36.8297C105.969 36.3308 106.438 35.6099 107.055 35.7763L113.163 37.4218L116.602 32.0971Z" fill="#E7C6B6"/>
<path d="M111.043 71.3065C111.518 70.8769 112.264 71.31 112.131 71.938L110.818 78.1506L116.293 81.3288C116.846 81.6501 116.669 82.4938 116.034 82.5609L109.745 83.2255L108.43 89.4418C108.298 90.0694 107.442 90.1578 107.182 89.5708L104.613 83.7678L98.3295 84.4318C97.6939 84.499 97.3423 83.7099 97.8165 83.2805L102.514 79.0281L99.9417 73.2195C99.6819 72.633 100.32 72.0569 100.874 72.3782L106.349 75.5564L111.043 71.3065Z" fill="#E7C6B6"/>
</svg>
