<svg width="119" height="140" viewBox="0 0 119 140" fill="none" xmlns="http://www.w3.org/2000/svg">
<path d="M0 10C0 4.47715 4.47715 0 10 0H92C97.5229 0 102 4.47715 102 10V119C102 124.523 97.5229 129 92 129H10C4.47715 129 0 124.523 0 119V10Z" fill="#E7C6B6"/>
<rect x="18" y="26" width="19" height="19.1033" rx="4" fill="white"/>
<rect x="42" y="26" width="19" height="19.1033" rx="4" fill="white"/>
<rect x="66" y="26" width="19" height="19.1033" rx="4" fill="white"/>
<rect x="18" y="55.1577" width="19" height="19.1033" rx="4" fill="white"/>
<rect x="42" y="55.1577" width="19" height="19.1033" rx="4" fill="white"/>
<rect x="66" y="55.1577" width="19" height="19.1033" rx="4" fill="white"/>
<rect x="18" y="84.3149" width="19" height="19.1033" rx="4" fill="white"/>
<rect x="42" y="84.3149" width="19" height="19.1033" rx="4" fill="white"/>
<rect x="66" y="84.3149" width="19" height="19.1033" rx="4" fill="white"/>
<line x1="1" y1="-1" x2="15.3193" y2="-1" transform="matrix(0.735333 -0.677706 0.67374 0.738969 22 42.0869)" stroke="#7D7272" stroke-width="2" stroke-linecap="round"/>
<line x1="1" y1="-1" x2="15.3193" y2="-1" transform="matrix(-0.735333 -0.677706 -0.67374 0.738969 34 42.0869)" stroke="#7D7272" stroke-width="2" stroke-linecap="round"/>
<line x1="1" y1="-1" x2="15.3193" y2="-1" transform="matrix(0.735333 -0.677706 0.67374 0.738969 46 42.0869)" stroke="#7D7272" stroke-width="2" stroke-linecap="round"/>
<line x1="1" y1="-1" x2="15.3193" y2="-1" transform="matrix(-0.735333 -0.677706 -0.67374 0.738969 58 42.0869)" stroke="#7D7272" stroke-width="2" stroke-linecap="round"/>
<line x1="1" y1="-1" x2="15.3193" y2="-1" transform="matrix(0.735333 -0.677706 0.67374 0.738969 45 100.402)" stroke="#7D7272" stroke-width="2" stroke-linecap="round"/>
<line x1="1" y1="-1" x2="15.3193" y2="-1" transform="matrix(-0.735333 -0.677706 -0.67374 0.738969 57 100.402)" stroke="#7D7272" stroke-width="2" stroke-linecap="round"/>
<circle cx="97" cy="118" r="22" fill="#7D7272"/>
<path d="M103.892 115.148V112.905C103.892 109.645 101.072 107 97.5919 107H97.4094C93.9298 107 91.1091 109.644 91.1091 112.905V115.149C90.7806 115.276 90.4999 115.493 90.3025 115.77C90.1051 116.047 89.9999 116.373 90 116.707V125.314C90 125.761 90.1896 126.19 90.527 126.506C90.8644 126.822 91.3221 127 91.7993 127H103.201C103.678 127 104.136 126.822 104.473 126.506C104.81 126.19 105 125.761 105 125.314V116.707C105 116.373 104.895 116.047 104.698 115.77C104.501 115.493 104.22 115.276 103.892 115.148ZM91.4423 115.053H91.4468H91.4423ZM91.4857 115.045H91.4924H91.4857ZM91.5294 115.039H91.5384H91.5294ZM91.5737 115.033L91.5859 115.031L91.5737 115.033ZM91.6184 115.028H91.6341H91.6184ZM91.6633 115.025H91.6836H91.6633ZM91.7086 115.022H91.7347H91.7086ZM98.5442 121.092V122.792C98.5442 123.051 98.4342 123.3 98.2384 123.484C98.0425 123.667 97.7769 123.771 97.5 123.771C97.2231 123.771 96.9575 123.667 96.7616 123.484C96.5658 123.3 96.4558 123.051 96.4558 122.792V121.092C96.1776 120.888 95.9742 120.608 95.874 120.291C95.7738 119.974 95.7817 119.635 95.8966 119.322C96.0116 119.009 96.2279 118.738 96.5153 118.546C96.8027 118.353 97.147 118.25 97.5 118.25C97.853 118.25 98.1973 118.353 98.4847 118.546C98.7721 118.738 98.9884 119.009 99.1034 119.322C99.2183 119.635 99.2262 119.974 99.126 120.291C99.0258 120.608 98.8224 120.888 98.5442 121.092ZM93.2107 115.02V112.905C93.2107 110.734 95.0951 108.968 97.411 108.968H97.5935C99.9097 108.968 101.794 110.734 101.794 112.905V115.02H93.2107ZM103.604 115.061H103.6H103.604ZM103.561 115.053H103.556H103.561ZM103.517 115.045H103.51H103.517ZM103.474 115.038H103.464H103.474ZM103.429 115.033L103.417 115.031L103.429 115.033ZM103.385 115.028H103.369H103.385ZM103.34 115.024H103.319H103.34ZM103.294 115.022C103.286 115.022 103.277 115.022 103.268 115.022C103.276 115.021 103.284 115.021 103.293 115.022L103.294 115.022Z" fill="white"/>
</svg>
