<svg width="129" height="139" viewBox="0 0 129 139" fill="none" xmlns="http://www.w3.org/2000/svg">
<rect y="0.179199" width="111" height="128.696" rx="6" fill="#E7C6B6"/>
<path fill-rule="evenodd" clip-rule="evenodd" d="M17.1875 30.0069C17.1875 28.0749 18.7452 26.5088 20.6667 26.5088H76.3333C78.2545 26.5088 79.8125 28.0749 79.8125 30.0069C79.8125 31.9388 78.2545 33.5049 76.3333 33.5049H20.6667C18.7452 33.5049 17.1875 31.9388 17.1875 30.0069Z" fill="white"/>
<path fill-rule="evenodd" clip-rule="evenodd" d="M17.1875 50.9954C17.1875 49.0638 18.7452 47.4973 20.6667 47.4973H65.8958C67.817 47.4973 69.375 49.0638 69.375 50.9954C69.375 52.927 67.817 54.4935 65.8958 54.4935H20.6667C18.7452 54.4935 17.1875 52.927 17.1875 50.9954Z" fill="white"/>
<path fill-rule="evenodd" clip-rule="evenodd" d="M17.1875 71.9839C17.1875 70.0523 18.7452 68.4858 20.6667 68.4858H55.4583C57.3795 68.4858 58.9375 70.0523 58.9375 71.9839C58.9375 73.9156 57.3795 75.482 55.4583 75.482H20.6667C18.7452 75.482 17.1875 73.9156 17.1875 71.9839Z" fill="white"/>
<path d="M78 89.0899V117.955C78 120.736 79.3433 123.404 81.7344 125.37L94.4844 135.857C99.4638 139.953 107.536 139.953 112.516 135.857L125.266 125.37C127.657 123.404 129 120.736 129 117.955V89.0899C129 83.2981 123.292 78.6029 116.25 78.6029H90.75C83.7084 78.6029 78 83.2981 78 89.0899Z" fill="#7D7272"/>
<path d="M93 103.53L101.115 113.625C101.563 114.182 102.435 114.103 102.774 113.473L114 92.6791" stroke="white" stroke-width="5" stroke-linecap="round"/>
</svg>
