<svg width="36" height="36" viewBox="0 0 36 36" fill="none" xmlns="http://www.w3.org/2000/svg">
<g id="Group 720">
<path id="Vk" fill-rule="evenodd" clip-rule="evenodd" d="M22.9935 18.0553C22.9935 18.0553 25.0581 15.1757 25.2633 14.2293C25.3316 13.8914 25.1812 13.702 24.8257 13.702H23.0345C22.6243 13.702 22.4739 13.8778 22.3509 14.1347C22.3509 14.1347 21.3824 16.1749 20.2042 17.4605C19.8258 17.8762 19.6335 18.0013 19.4247 18.0013C19.2564 18.0013 19.1786 17.8624 19.1786 17.4875V14.2023C19.1786 13.7426 19.124 13.6074 18.7411 13.6074H15.8697C15.6509 13.6074 15.5142 13.7332 15.5142 13.9048C15.5142 14.3377 16.1842 14.4354 16.1842 15.6083V18.0283C16.1842 18.515 16.1568 18.7043 15.9244 18.7043C15.3091 18.7043 13.8461 16.6088 13.0257 14.2293C12.8616 13.7426 12.6838 13.6074 12.219 13.6074H10.4278C10.168 13.6074 9.97656 13.7831 9.97656 14.04C9.97656 14.5132 10.5371 16.7034 12.7386 19.6371C14.2153 21.611 16.1568 22.679 17.907 22.679C18.9735 22.679 19.2333 22.5033 19.2333 22.0571V20.5429C19.2333 20.1644 19.3838 20.0021 19.6025 20.0021C19.8486 20.0021 20.283 20.0803 21.298 21.0702C22.5012 22.2059 22.5833 22.679 23.2397 22.679H25.2496C25.4547 22.679 25.6461 22.5844 25.6461 22.2464C25.6461 21.8002 25.0581 21.0027 24.1557 20.0562C23.7865 19.5696 23.1849 19.0423 22.9935 18.7989C22.72 18.515 22.8021 18.3527 22.9935 18.0553Z" fill="white"/>
<circle id="Ellipse 1" cx="17.6901" cy="17.6901" r="17.1698" stroke="#EAC141" stroke-width="1.04059"/>
</g>
</svg>
