<svg width="36" height="36" viewBox="0 0 36 36" fill="none" xmlns="http://www.w3.org/2000/svg">
<g id="Group 716">
<path id="Ok" fill-rule="evenodd" clip-rule="evenodd" d="M18.2151 9.07227C15.7282 9.07227 13.7123 11.0721 13.7123 13.539C13.7123 16.0059 15.7282 18.0059 18.2151 18.0059C20.702 18.0059 22.7179 16.0059 22.7179 13.539C22.7179 11.0721 20.702 9.07227 18.2151 9.07227ZM18.2143 15.3841C17.1863 15.3841 16.3529 14.5574 16.3529 13.5377C16.3529 12.518 17.1863 11.6914 18.2143 11.6914C19.2423 11.6914 20.0756 12.518 20.0756 13.5377C20.0756 14.5574 19.2423 15.3841 18.2143 15.3841ZM22.744 20.3045C22.6868 20.35 21.6066 21.1968 19.8039 21.561L22.5249 24.236C23.0035 24.7099 23.004 25.4788 22.5263 25.9535C22.0486 26.4281 21.2735 26.4288 20.7948 25.9548L18.1531 23.4031L15.7538 25.9384C15.5136 26.1856 15.1931 26.3099 14.8723 26.3099C14.5664 26.3099 14.2602 26.197 14.0226 25.9697C13.5358 25.5042 13.5217 24.7354 13.9911 24.2525L16.5738 21.5752C14.7206 21.2195 13.5958 20.3506 13.5379 20.3045C13.0104 19.8849 12.9257 19.1206 13.3487 18.5973C13.7717 18.0741 14.5422 17.99 15.0698 18.4096C15.0809 18.4185 16.2574 19.2952 18.1531 19.2965C20.0488 19.2952 21.2009 18.4185 21.2121 18.4096C21.7397 17.99 22.5102 18.0741 22.9332 18.5973C23.3562 19.1206 23.2715 19.8849 22.744 20.3045Z" fill="white"/>
<circle id="Ellipse 3" cx="18.0704" cy="17.6901" r="17.1698" stroke="#EAC141" stroke-width="1.04059"/>
</g>
</svg>
