<svg xmlns="http://www.w3.org/2000/svg" viewBox="-293 387 24 18.8" >
	<path id="a" d="M-269,389.2c-0.9,0.4-1.9,0.6-2.8,0.7c1-0.6,1.8-1.5,2.2-2.6c-1,0.6-2,0.9-3.1,1.1c-1.5-1.6-4-2-5.9-0.9
		c-2,1-3,3.2-2.5,5.3c-4-0.2-7.6-2-10.1-4.9c-1.3,2.2-0.6,4.9,1.5,6.3c-0.8,0-1.5-0.2-2.2-0.6v0.1c0,2.3,1.7,4.2,3.9,4.6
		c-0.7,0.2-1.5,0.2-2.2,0.1c0.6,1.9,2.5,3.3,4.6,3.3c-2.1,1.6-4.7,2.3-7.3,2c2.3,1.4,4.9,2.1,7.5,2.1c9.1,0,14-7.2,14-13.5
		c0-0.2,0-0.4,0-0.6C-270.5,391-269.7,390.2-269,389.2C-269,389.2-269,389.2-269,389.2z"/>
</svg>
