<svg xmlns="http://www.w3.org/2000/svg" viewBox="-292 389 26 15.4">
	<path id="a" d="M-277.7,404.3c0,0,0.5-0.1,0.7-0.3c0.2-0.2,0.2-0.7,0.2-0.7s0-2.2,0.9-2.5c1-0.3,2.2,2.1,3.5,3
		c1,0.7,1.7,0.5,1.7,0.5l3.5-0.1c0,0,1.8-0.1,1-1.6c-0.1-0.1-0.5-1.1-2.6-3.1c-2.2-2.1-1.9-1.8,0.7-5.4c1.6-2.2,2.2-3.6,2-4.1
		c-0.2-0.6-1.4-0.4-1.4-0.4l-3.9,0c0,0-0.3,0-0.5,0.1c-0.2,0.1-0.3,0.4-0.3,0.4s-0.6,1.7-1.4,3.2c-1.7,3.1-2.4,3.2-2.7,3
		c-0.7-0.4-0.5-1.8-0.5-2.7c0-3,0.4-4.2-0.8-4.5c-0.4-0.1-0.7-0.2-1.8-0.2c-1.4,0-2.6,0-3.2,0.3c-0.4,0.2-0.8,0.7-0.6,0.8
		c0.3,0,0.8,0.2,1.2,0.6c0.4,0.6,0.4,1.8,0.4,1.8s0.2,3.5-0.5,3.9c-0.5,0.3-1.3-0.3-2.8-3.1c-0.8-1.4-1.4-3-1.4-3s-0.1-0.3-0.3-0.5
		c-0.2-0.1-0.4-0.2-0.6-0.3l-3.7,0c0,0-0.6,0-0.8,0.3c-0.2,0.2,0,0.7,0,0.7s2.9,7.1,6.2,10.6c3,3.3,6.4,3.1,6.4,3.1H-277.7z"/>
</svg>
