<svg width="396" height="250" viewBox="0 0 396 250" fill="none" xmlns="http://www.w3.org/2000/svg">
<g clip-path="url(#clip0_63_464)">
<path d="M379.729 0H15.8307C7.08762 0 0 7.08762 0 15.8307V233.583C0 242.326 7.08762 249.414 15.8307 249.414H379.729C388.472 249.414 395.559 242.326 395.559 233.583V15.8307C395.559 7.08762 388.472 0 379.729 0Z" fill="#FEC74E"/>
<g opacity="0.3">
<path opacity="0.3" d="M239.738 193.202C239.738 189.431 241.209 187.456 243.525 187.456C245.84 187.456 247.316 189.442 247.316 193.202C247.316 196.962 245.845 199.044 243.525 199.044C241.204 199.044 239.738 196.978 239.738 193.202ZM245.389 193.202C245.389 190.048 244.608 189.044 243.525 189.044C242.441 189.044 241.666 190.048 241.666 193.202C241.666 196.356 242.447 197.45 243.525 197.45C244.603 197.45 245.389 196.362 245.389 193.202Z" fill="#B79147"/>
<path opacity="0.3" d="M248.74 193.202C248.74 189.431 250.211 187.456 252.526 187.456C254.842 187.456 256.318 189.442 256.318 193.202C256.318 196.962 254.842 199.044 252.526 199.044C250.211 199.044 248.74 196.978 248.74 193.202ZM254.385 193.202C254.385 190.048 253.609 189.044 252.526 189.044C251.443 189.044 250.667 190.048 250.667 193.202C250.667 196.356 251.448 197.45 252.526 197.45C253.604 197.45 254.385 196.362 254.385 193.202Z" fill="#B79147"/>
<path opacity="0.3" d="M261.835 186.378C261.937 186.377 262.037 186.399 262.128 186.443C262.22 186.488 262.299 186.552 262.361 186.633C262.423 186.713 262.465 186.807 262.485 186.906C262.504 187.006 262.5 187.109 262.473 187.206L258.755 201.152C258.717 201.292 258.633 201.417 258.517 201.505C258.401 201.593 258.259 201.641 258.113 201.64C258.011 201.64 257.912 201.616 257.821 201.571C257.73 201.525 257.651 201.46 257.59 201.38C257.528 201.299 257.486 201.206 257.466 201.106C257.446 201.007 257.45 200.904 257.475 200.807L261.219 186.866C261.256 186.73 261.335 186.608 261.446 186.52C261.557 186.432 261.694 186.382 261.835 186.378Z" fill="#B79147"/>
<path opacity="0.3" d="M263.774 193.202C263.774 189.431 265.245 187.456 267.56 187.456C269.875 187.456 271.352 189.442 271.352 193.202C271.352 196.962 269.875 199.044 267.56 199.044C265.245 199.044 263.774 196.978 263.774 193.202ZM269.424 193.202C269.424 190.048 268.643 189.044 267.56 189.044C266.477 189.044 265.701 190.048 265.701 193.202C265.701 196.356 266.482 197.45 267.56 197.45C268.638 197.45 269.424 196.362 269.424 193.202Z" fill="#B79147"/>
<path opacity="0.3" d="M272.77 193.202C272.77 189.431 274.246 187.456 276.561 187.456C278.877 187.456 280.353 189.442 280.353 193.202C280.353 196.962 278.877 199.044 276.561 199.044C274.246 199.044 272.77 196.978 272.77 193.202ZM278.42 193.202C278.42 190.048 277.645 189.044 276.561 189.044C275.478 189.044 274.703 190.048 274.703 193.202C274.703 196.356 275.483 197.45 276.561 197.45C277.64 197.45 278.42 196.362 278.42 193.202Z" fill="#B79147"/>
</g>
<path d="M239.451 192.936C239.451 189.161 240.922 187.185 243.243 187.185C245.564 187.185 247.03 189.171 247.03 192.936C247.03 196.702 245.559 198.778 243.243 198.778C240.928 198.778 239.451 196.707 239.451 192.936ZM245.102 192.936C245.102 189.75 244.321 188.773 243.243 188.773C242.165 188.773 241.379 189.777 241.379 192.936C241.379 196.096 242.16 197.185 243.243 197.185C244.326 197.185 245.118 196.091 245.118 192.936H245.102Z" fill="#B79147"/>
<path d="M248.479 192.936C248.479 189.161 249.95 187.185 252.266 187.185C254.581 187.185 256.057 189.171 256.057 192.936C256.057 196.702 254.581 198.778 252.266 198.778C249.95 198.778 248.479 196.707 248.479 192.936ZM254.13 192.936C254.13 189.75 253.349 188.773 252.266 188.773C251.182 188.773 250.407 189.777 250.407 192.936C250.407 196.096 251.188 197.185 252.266 197.185C253.344 197.185 254.119 196.091 254.119 192.936H254.13Z" fill="#B79147"/>
<path d="M261.564 186.107C261.666 186.106 261.766 186.129 261.858 186.173C261.949 186.217 262.029 186.282 262.091 186.362C262.153 186.442 262.196 186.536 262.216 186.635C262.236 186.735 262.233 186.837 262.207 186.935L258.463 200.881C258.425 201.021 258.342 201.144 258.227 201.232C258.112 201.321 257.971 201.369 257.826 201.37C257.724 201.37 257.624 201.346 257.532 201.302C257.441 201.257 257.361 201.192 257.299 201.111C257.237 201.03 257.194 200.937 257.174 200.837C257.154 200.737 257.157 200.634 257.183 200.536L260.927 186.596C260.965 186.455 261.047 186.331 261.163 186.243C261.278 186.155 261.419 186.107 261.564 186.107Z" fill="#B79147"/>
<path d="M263.503 192.936C263.503 189.161 264.974 187.185 267.294 187.185C269.615 187.185 271.081 189.171 271.081 192.936C271.081 196.702 269.61 198.778 267.294 198.778C264.979 198.778 263.503 196.707 263.503 192.936ZM269.153 192.936C269.153 189.75 268.372 188.773 267.294 188.773C266.216 188.773 265.43 189.777 265.43 192.936C265.43 196.096 266.211 197.185 267.294 197.185C268.378 197.185 269.153 196.091 269.153 192.936Z" fill="#B79147"/>
<path d="M272.504 192.936C272.504 189.161 273.975 187.185 276.291 187.185C278.606 187.185 280.082 189.171 280.082 192.936C280.082 196.702 278.606 198.778 276.291 198.778C273.975 198.778 272.504 196.707 272.504 192.936ZM278.149 192.936C278.149 189.75 277.374 188.773 276.291 188.773C275.207 188.773 274.432 189.777 274.432 192.936C274.432 196.096 275.213 197.185 276.291 197.185C277.369 197.185 278.149 196.091 278.149 192.936Z" fill="#B79147"/>
<path d="M222.952 188.635H223.43L224.003 190.552C224.125 190.966 224.21 191.306 224.343 191.72C224.476 191.306 224.561 190.966 224.683 190.552L225.251 188.635H225.713L224.587 192.177H224.056L222.952 188.635Z" fill="#B79147"/>
<path d="M226.871 188.635H227.402L228.602 192.177H228.124L227.508 190.201C227.381 189.803 227.264 189.416 227.152 189.007C227.041 189.416 226.929 189.803 226.802 190.201L226.175 192.177H225.719L226.871 188.635ZM226.303 190.759H227.933V191.12H226.303V190.759Z" fill="#B79147"/>
<path d="M229.053 188.635H229.505V191.795H231.05V192.177H229.053V188.635Z" fill="#B79147"/>
<path d="M231.677 188.635H232.128V192.177H231.677V188.635Z" fill="#B79147"/>
<path d="M233.079 188.635H233.966C235.028 188.635 235.639 189.267 235.639 190.393C235.639 191.518 235.054 192.177 233.982 192.177H233.079V188.635ZM233.929 191.821C234.757 191.821 235.171 191.29 235.171 190.403C235.171 189.516 234.757 189.017 233.929 189.017H233.53V191.821H233.929Z" fill="#B79147"/>
<path d="M224.173 195.4H223.111V195.018H225.708V195.4H224.646V198.56H224.194L224.173 195.4Z" fill="#B79147"/>
<path d="M226.329 195.018H226.781V196.505H228.427V195.018H228.878V198.56H228.427V196.898H226.781V198.56H226.329V195.018Z" fill="#B79147"/>
<path d="M229.85 195.018H230.954C231.677 195.018 232.192 195.278 232.192 196.016C232.192 196.755 231.661 197.079 230.954 197.079H230.296V198.576H229.844L229.85 195.018ZM230.912 196.696C231.443 196.696 231.767 196.473 231.767 196.016C231.767 195.56 231.459 195.385 230.912 195.385H230.317V196.696H230.912ZM230.912 196.941L231.262 196.707L232.325 198.56H231.793L230.912 196.941Z" fill="#B79147"/>
<path d="M232.903 197.1V195.018H233.355V197.11C233.355 197.965 233.716 198.231 234.178 198.231C234.64 198.231 235.017 197.965 235.017 197.11V195.018H235.452V197.1C235.452 198.236 234.921 198.629 234.178 198.629C233.434 198.629 232.903 198.236 232.903 197.1Z" fill="#B79147"/>
<g opacity="0.3">
<path opacity="0.3" d="M54.3426 145.19H53.5354C53.3786 145.191 53.2248 145.233 53.0893 145.312C52.0603 145.873 50.9519 146.274 49.8021 146.501C49.6002 146.545 49.4191 146.656 49.2888 146.816C49.1584 146.976 49.0866 147.176 49.0852 147.383C49.0852 147.622 49.1803 147.852 49.3496 148.021C49.5189 148.19 49.7486 148.286 49.988 148.286H51.7936C52.0321 148.287 52.2604 148.383 52.4285 148.552C52.5967 148.721 52.6911 148.95 52.6911 149.188V162.316C52.6911 162.457 52.6351 162.592 52.5355 162.691C52.4359 162.791 52.3009 162.847 52.16 162.847H49.0693C48.8308 162.847 48.6019 162.941 48.4328 163.11C48.2636 163.278 48.1679 163.506 48.1665 163.744V164.068C48.1665 164.308 48.2616 164.537 48.4309 164.707C48.6002 164.876 48.8299 164.971 49.0693 164.971H58.4423C58.6818 164.971 58.9114 164.876 59.0807 164.707C59.25 164.537 59.3451 164.308 59.3451 164.068V163.744C59.3437 163.506 59.248 163.278 59.0788 163.11C58.9097 162.941 58.6809 162.847 58.4423 162.847H55.7871C55.6462 162.847 55.5112 162.791 55.4116 162.691C55.312 162.592 55.256 162.457 55.256 162.316V146.092C55.256 145.973 55.2323 145.855 55.1863 145.744C55.1403 145.634 55.0728 145.534 54.9879 145.45C54.9029 145.366 54.8021 145.3 54.6914 145.255C54.5806 145.21 54.4621 145.188 54.3426 145.19Z" fill="#B79147"/>
<path opacity="0.3" d="M66.1107 162.964C70.784 158.052 74.1933 154.361 74.1933 150.643C74.1933 147.128 71.9098 144.802 68.2509 144.802C67.2676 144.802 66.2945 145.002 65.3901 145.388C64.4858 145.774 63.6687 146.338 62.9882 147.048C62.8896 147.144 62.8112 147.259 62.7577 147.386C62.7042 147.513 62.6766 147.649 62.6766 147.786C62.6766 147.924 62.7042 148.06 62.7577 148.187C62.8112 148.314 62.8896 148.429 62.9882 148.525C63.1774 148.708 63.4307 148.811 63.6944 148.811C63.9581 148.811 64.2115 148.708 64.4007 148.525C65.3202 147.531 66.5913 146.937 67.9429 146.868C70.4707 146.868 71.6974 148.461 71.6974 150.728C71.6974 152.8 70.3698 154.674 69.143 156.235C68.1659 157.467 67.0985 158.625 66.0098 159.762C65.3566 160.452 64.6875 161.132 64.0184 161.806C63.5564 162.268 62.558 162.773 62.4252 163.458C62.2553 164.265 63.1793 164.955 63.9069 164.955H74.1562C74.291 164.956 74.4245 164.93 74.5492 164.879C74.6739 164.827 74.7872 164.752 74.8825 164.657C74.9778 164.561 75.0533 164.448 75.1045 164.323C75.1558 164.199 75.1818 164.065 75.1811 163.93V163.787C75.1818 163.652 75.1558 163.519 75.1045 163.394C75.0533 163.269 74.9778 163.156 74.8825 163.061C74.7872 162.965 74.6739 162.89 74.5492 162.839C74.4245 162.787 74.291 162.761 74.1562 162.762H69.4564C68.4155 162.794 67.1835 162.879 66.1107 162.964Z" fill="#B79147"/>
<path opacity="0.3" d="M86.1313 154.674V154.557C88.2556 153.766 89.7319 152.237 89.7319 149.852C89.7319 146.666 87.2519 144.828 83.8053 144.828C82.0174 144.843 80.2896 145.475 78.9144 146.618C78.8075 146.702 78.7186 146.806 78.6532 146.925C78.5878 147.044 78.5472 147.175 78.5338 147.31C78.5204 147.445 78.5345 147.581 78.5752 147.71C78.616 147.84 78.6826 147.96 78.771 148.063L78.8188 148.121C78.9916 148.322 79.2362 148.447 79.5002 148.47C79.7642 148.493 80.0266 148.411 80.2314 148.243C81.2022 147.407 82.4341 146.936 83.7151 146.91C85.8127 146.91 87.135 148.116 87.135 150.043C87.135 151.971 85.9295 153.469 82.4618 153.697C82.2063 153.716 81.9672 153.83 81.792 154.017C81.6168 154.204 81.5185 154.45 81.5165 154.706C81.5162 154.964 81.6154 155.212 81.7934 155.399C81.9714 155.586 82.2146 155.697 82.4724 155.71C86.4394 155.917 87.836 157.43 87.836 159.618C87.836 161.806 86.1314 163.245 83.7257 163.245C82.1464 163.261 80.6169 162.693 79.4295 161.652C79.3256 161.565 79.2054 161.501 79.0759 161.462C78.9464 161.423 78.8104 161.41 78.6759 161.425C78.5415 161.44 78.4115 161.482 78.2937 161.548C78.1759 161.615 78.0727 161.704 77.9903 161.811L77.9266 161.896C77.7714 162.101 77.6994 162.356 77.725 162.611C77.7507 162.866 77.872 163.103 78.0647 163.272C79.6658 164.705 81.7582 165.466 83.9062 165.396C87.5333 165.396 90.4435 163.272 90.4435 159.74C90.4276 156.984 88.5211 155.237 86.1313 154.674Z" fill="#B79147"/>
<path opacity="0.3" d="M102.828 145.19H101.553C101.386 145.189 101.222 145.231 101.074 145.309C100.927 145.388 100.801 145.502 100.709 145.641L92.7111 157.579C92.5978 157.747 92.5369 157.945 92.5359 158.147V158.503C92.5359 158.773 92.6433 159.033 92.8345 159.224C93.0257 159.415 93.2851 159.523 93.5555 159.523H101.431V163.973C101.431 164.106 101.457 164.238 101.508 164.361C101.559 164.484 101.634 164.596 101.728 164.69C101.822 164.784 101.934 164.859 102.057 164.91C102.18 164.961 102.312 164.987 102.445 164.987H102.828C103.097 164.987 103.356 164.88 103.547 164.69C103.738 164.5 103.846 164.242 103.847 163.973V159.523H105.525C105.659 159.523 105.792 159.496 105.916 159.445C106.039 159.394 106.152 159.319 106.246 159.224C106.341 159.129 106.416 159.017 106.467 158.893C106.519 158.769 106.545 158.637 106.545 158.503C106.545 158.369 106.519 158.236 106.467 158.113C106.416 157.989 106.341 157.877 106.246 157.782C106.152 157.687 106.039 157.612 105.916 157.561C105.792 157.51 105.659 157.483 105.525 157.483H103.847V146.209C103.847 145.939 103.74 145.679 103.549 145.488C103.357 145.297 103.098 145.19 102.828 145.19ZM95.2124 157.483L99.8379 150.718C100.369 149.735 100.953 148.87 101.431 147.924H101.553C101.495 148.987 101.41 150.681 101.41 151.721V157.483H95.2124Z" fill="#B79147"/>
<path opacity="0.3" d="M136.172 152.433C135.104 152.429 134.055 152.713 133.135 153.256L133.666 147.377H140.288C140.57 147.377 140.84 147.266 141.039 147.066C141.238 146.867 141.35 146.597 141.35 146.315V146.214C141.35 145.933 141.238 145.663 141.039 145.463C140.84 145.264 140.57 145.152 140.288 145.152H132.391C132.124 145.151 131.867 145.251 131.67 145.431C131.474 145.611 131.352 145.858 131.329 146.124L130.798 154.09C130.787 154.278 130.825 154.465 130.91 154.633C130.995 154.801 131.123 154.944 131.281 155.046L131.552 155.216C131.72 155.319 131.913 155.374 132.11 155.374C132.307 155.374 132.5 155.319 132.667 155.216C133.508 154.649 134.5 154.351 135.514 154.361C138.047 154.361 139.714 155.954 139.714 158.71C139.714 161.466 137.792 163.219 135.381 163.219C133.846 163.232 132.359 162.691 131.191 161.695C131.082 161.608 130.956 161.544 130.822 161.506C130.688 161.468 130.547 161.457 130.409 161.473C130.27 161.489 130.136 161.533 130.014 161.601C129.892 161.669 129.785 161.76 129.699 161.87C129.542 162.083 129.47 162.347 129.497 162.61C129.525 162.873 129.65 163.117 129.847 163.293C131.459 164.669 133.523 165.399 135.641 165.343C136.528 165.369 137.411 165.213 138.235 164.884C139.059 164.555 139.806 164.06 140.431 163.43C141.056 162.8 141.545 162.049 141.867 161.222C142.19 160.396 142.339 159.512 142.306 158.625C142.311 154.366 139.55 152.433 136.172 152.433Z" fill="#B79147"/>
<path opacity="0.3" d="M152.327 152.884C150.734 152.884 148.949 153.846 147.707 155.396C147.813 149.103 150.155 146.942 152.932 146.942C153.851 146.952 154.742 147.259 155.471 147.818C155.683 147.984 155.95 148.063 156.218 148.039C156.486 148.016 156.735 147.891 156.915 147.691C157.013 147.583 157.087 147.456 157.133 147.318C157.179 147.18 157.197 147.034 157.184 146.889C157.172 146.744 157.13 146.604 157.06 146.476C156.991 146.348 156.897 146.235 156.782 146.145C155.658 145.264 154.265 144.796 152.837 144.818C148.891 144.818 145.291 147.877 145.291 155.842C145.291 162.215 148.222 165.359 152.125 165.359C155.311 165.359 157.967 162.799 157.967 158.986C157.977 154.945 155.758 152.884 152.327 152.884ZM152.12 163.346C150.282 163.346 148.971 162.236 148.275 160.16C148.103 159.656 148.031 159.122 148.065 158.591C148.099 158.059 148.237 157.539 148.472 157.061C148.707 156.582 149.033 156.155 149.433 155.803C149.833 155.451 150.299 155.181 150.803 155.009C151.158 154.894 151.529 154.835 151.902 154.833C154.35 154.833 155.566 156.427 155.566 159.034C155.566 161.641 154.064 163.346 152.12 163.346Z" fill="#B79147"/>
<path opacity="0.3" d="M161.689 147.383H170.446C166.756 152.529 165.226 157.021 164.791 163.845C164.781 163.995 164.803 164.145 164.853 164.286C164.904 164.427 164.983 164.556 165.085 164.666C165.188 164.775 165.312 164.862 165.449 164.922C165.587 164.982 165.735 165.013 165.885 165.014H166.315C166.6 165.014 166.873 164.903 167.077 164.705C167.282 164.506 167.401 164.236 167.409 163.952C167.781 156.974 168.837 152.63 173.118 147.054C173.268 146.863 173.35 146.627 173.351 146.384V146.294C173.351 146.003 173.235 145.723 173.029 145.517C172.823 145.311 172.544 145.195 172.252 145.195H161.689C161.398 145.195 161.118 145.311 160.912 145.517C160.706 145.723 160.59 146.003 160.59 146.294C160.593 146.584 160.71 146.861 160.916 147.065C161.122 147.268 161.4 147.383 161.689 147.383Z" fill="#B79147"/>
<path opacity="0.3" d="M185.358 154.982V154.86C186.574 153.941 188.088 152.157 188.088 150.08C188.088 147 185.964 144.812 182.491 144.812C179.304 144.812 176.888 146.846 176.888 149.889C176.888 151.976 178.179 153.442 179.655 154.467V154.589C177.791 155.582 175.938 157.34 175.938 159.9C175.938 163.049 178.694 165.338 182.443 165.338C186.192 165.338 188.816 163.017 188.816 160.027C188.8 157.425 187.121 156.028 185.358 154.982ZM179.23 149.895C179.212 149.471 179.282 149.049 179.436 148.654C179.59 148.26 179.824 147.901 180.123 147.601C180.423 147.302 180.781 147.068 181.176 146.914C181.571 146.76 181.993 146.69 182.416 146.708C184.599 146.708 185.858 148.259 185.858 150.213V150.261C185.837 150.826 185.667 151.375 185.365 151.853C185.062 152.33 184.638 152.718 184.136 152.978C183.634 153.237 183.072 153.358 182.507 153.329C181.943 153.299 181.396 153.12 180.924 152.81C180.413 152.513 179.988 152.088 179.691 151.576C179.394 151.065 179.235 150.486 179.23 149.895ZM182.464 163.463C180.043 163.463 178.216 161.87 178.216 159.693C178.223 158.793 178.51 157.919 179.039 157.191C179.459 156.597 180.073 156.167 180.774 155.973C181.476 155.78 182.223 155.835 182.889 156.129C184.87 157.005 186.351 158.004 186.351 159.974C186.351 161.944 184.785 163.463 182.464 163.463Z" fill="#B79147"/>
<path opacity="0.3" d="M218.103 144.818C214.917 144.818 212.261 147.377 212.261 151.19C212.261 155.253 214.476 157.313 217.907 157.313C219.5 157.313 221.289 156.352 222.532 154.801C222.426 161.094 220.094 163.256 217.301 163.256C216.384 163.245 215.496 162.937 214.768 162.38C214.555 162.213 214.286 162.134 214.017 162.159C213.747 162.183 213.498 162.31 213.318 162.512C213.222 162.62 213.149 162.747 213.103 162.884C213.057 163.022 213.04 163.167 213.052 163.311C213.065 163.455 213.106 163.595 213.175 163.723C213.244 163.85 213.338 163.963 213.451 164.052C214.577 164.934 215.972 165.403 217.402 165.38C221.348 165.38 224.943 162.321 224.943 154.355C224.938 147.977 222.012 144.818 218.103 144.818ZM218.331 155.37C215.878 155.37 214.667 153.777 214.667 151.169C214.667 148.562 216.17 146.83 218.108 146.83C219.951 146.83 221.263 147.94 221.958 150.017C222.305 151.035 222.233 152.149 221.76 153.115C221.286 154.081 220.448 154.819 219.431 155.168C219.077 155.292 218.706 155.36 218.331 155.37Z" fill="#B79147"/>
<path opacity="0.3" d="M234.167 144.818C230.216 144.818 227.821 148.376 227.821 155.014C227.821 161.652 230.216 165.359 234.167 165.359C238.118 165.359 240.54 161.641 240.54 155.014C240.54 148.386 238.124 144.818 234.167 144.818ZM234.167 163.304C231.868 163.304 230.301 160.818 230.301 155.014C230.301 149.21 231.894 146.873 234.167 146.873C236.44 146.873 238.033 149.21 238.033 155.014C238.033 160.818 236.467 163.304 234.167 163.304Z" fill="#B79147"/>
<path opacity="0.3" d="M250.508 145.19H249.701C249.544 145.191 249.39 145.233 249.255 145.312C248.226 145.873 247.117 146.274 245.967 146.501C245.765 146.545 245.584 146.656 245.454 146.816C245.324 146.976 245.252 147.176 245.25 147.383C245.25 147.622 245.346 147.852 245.515 148.021C245.684 148.19 245.914 148.286 246.153 148.286H248.856V162.263C248.856 162.421 248.794 162.573 248.682 162.685C248.571 162.798 248.42 162.862 248.261 162.863H245.224C244.985 162.863 244.757 162.957 244.587 163.125C244.418 163.294 244.322 163.522 244.321 163.76V164.084C244.321 164.324 244.416 164.553 244.585 164.723C244.755 164.892 244.984 164.987 245.224 164.987H254.597C254.836 164.987 255.066 164.892 255.235 164.723C255.405 164.553 255.5 164.324 255.5 164.084V163.76C255.498 163.522 255.403 163.294 255.233 163.125C255.064 162.957 254.835 162.863 254.597 162.863H252.005C251.847 162.862 251.696 162.798 251.584 162.685C251.473 162.573 251.411 162.421 251.411 162.263V146.092C251.411 145.853 251.315 145.623 251.146 145.454C250.977 145.285 250.747 145.19 250.508 145.19Z" fill="#B79147"/>
<path opacity="0.3" d="M262.287 162.964C266.96 158.052 270.369 154.361 270.369 150.643C270.369 147.128 268.086 144.802 264.427 144.802C263.443 144.802 262.47 145.002 261.566 145.388C260.662 145.774 259.845 146.338 259.164 147.048C259.065 147.144 258.987 147.259 258.934 147.386C258.88 147.513 258.853 147.649 258.853 147.786C258.853 147.924 258.88 148.06 258.934 148.187C258.987 148.314 259.065 148.429 259.164 148.525C259.353 148.708 259.607 148.811 259.87 148.811C260.134 148.811 260.387 148.708 260.577 148.525C261.496 147.531 262.767 146.937 264.119 146.868C266.647 146.868 267.873 148.461 267.873 150.728C267.873 153.915 264.623 157.388 258.845 163.144C258.653 163.336 258.544 163.595 258.543 163.867V163.93C258.542 164.065 258.568 164.199 258.619 164.323C258.671 164.448 258.746 164.561 258.841 164.657C258.937 164.752 259.05 164.827 259.175 164.879C259.299 164.93 259.433 164.956 259.568 164.955H270.305C270.44 164.956 270.574 164.93 270.699 164.879C270.823 164.827 270.936 164.752 271.032 164.657C271.127 164.561 271.203 164.448 271.254 164.323C271.305 164.199 271.331 164.065 271.33 163.93V163.787C271.331 163.652 271.305 163.519 271.254 163.394C271.203 163.269 271.127 163.156 271.032 163.061C270.936 162.965 270.823 162.89 270.699 162.839C270.574 162.787 270.44 162.761 270.305 162.762H265.606C264.581 162.794 263.349 162.879 262.287 162.964Z" fill="#B79147"/>
<path opacity="0.3" d="M303.247 154.674V154.557C305.371 153.766 306.842 152.237 306.842 149.852C306.842 146.666 304.362 144.828 300.921 144.828C299.133 144.843 297.405 145.475 296.03 146.618C295.923 146.702 295.834 146.806 295.768 146.925C295.703 147.044 295.662 147.175 295.649 147.31C295.636 147.445 295.65 147.581 295.69 147.71C295.731 147.84 295.798 147.96 295.886 148.063L295.934 148.121C296.107 148.322 296.351 148.447 296.615 148.47C296.879 148.493 297.142 148.411 297.347 148.243C298.317 147.407 299.549 146.936 300.83 146.91C302.928 146.91 304.25 148.116 304.25 150.043C304.25 151.971 303.045 153.469 299.577 153.697C299.322 153.716 299.082 153.83 298.907 154.017C298.732 154.204 298.634 154.45 298.632 154.706C298.631 154.964 298.731 155.212 298.909 155.399C299.087 155.586 299.33 155.697 299.588 155.71C303.555 155.917 304.951 157.43 304.951 159.618C304.951 161.806 303.247 163.245 300.841 163.245C299.262 163.261 297.732 162.693 296.545 161.652C296.441 161.565 296.321 161.501 296.191 161.462C296.062 161.423 295.926 161.41 295.791 161.425C295.657 161.44 295.527 161.482 295.409 161.548C295.291 161.615 295.188 161.704 295.106 161.811L295.042 161.896C294.887 162.101 294.815 162.356 294.84 162.611C294.866 162.866 294.987 163.103 295.18 163.272C296.781 164.705 298.873 165.466 301.022 165.396C304.649 165.396 307.559 163.272 307.559 159.74C307.543 156.984 305.636 155.237 303.247 154.674Z" fill="#B79147"/>
<path opacity="0.3" d="M319.943 145.19H318.668C318.501 145.19 318.336 145.231 318.188 145.31C318.04 145.389 317.913 145.502 317.819 145.641L309.826 157.579C309.713 157.747 309.652 157.945 309.651 158.147V158.503C309.651 158.773 309.759 159.033 309.95 159.224C310.141 159.415 310.4 159.523 310.671 159.523H318.546V163.973C318.546 164.242 318.653 164.5 318.843 164.69C319.034 164.88 319.292 164.987 319.561 164.987H319.943C320.212 164.987 320.471 164.88 320.662 164.69C320.853 164.5 320.961 164.242 320.963 163.973V159.523H322.641C322.911 159.523 323.17 159.415 323.362 159.224C323.553 159.033 323.66 158.773 323.66 158.503C323.66 158.233 323.553 157.973 323.362 157.782C323.17 157.591 322.911 157.483 322.641 157.483H320.963V146.209C320.963 145.939 320.855 145.679 320.664 145.488C320.473 145.297 320.213 145.19 319.943 145.19ZM312.328 157.483L316.953 150.718C317.484 149.735 318.068 148.87 318.546 147.924H318.668C318.61 148.987 318.525 150.681 318.525 151.721V157.483H312.328Z" fill="#B79147"/>
<path opacity="0.3" d="M332.338 152.433C331.269 152.429 330.22 152.713 329.3 153.256L329.831 147.377H336.453C336.735 147.377 337.005 147.266 337.204 147.066C337.403 146.867 337.515 146.597 337.515 146.315V146.214C337.515 145.933 337.403 145.663 337.204 145.463C337.005 145.264 336.735 145.152 336.453 145.152H327.606L326.995 154.063C326.983 154.251 327.021 154.438 327.105 154.606C327.189 154.774 327.316 154.916 327.473 155.019L327.744 155.189C327.912 155.293 328.105 155.347 328.302 155.347C328.499 155.347 328.692 155.293 328.859 155.189C329.7 154.623 330.692 154.325 331.706 154.334C334.239 154.334 335.906 155.927 335.906 158.684C335.906 161.44 333.984 163.192 331.573 163.192C330.038 163.205 328.55 162.664 327.383 161.668C327.273 161.582 327.148 161.517 327.014 161.479C326.879 161.441 326.739 161.43 326.6 161.446C326.462 161.463 326.328 161.506 326.206 161.574C326.084 161.642 325.977 161.734 325.891 161.843C325.734 162.056 325.662 162.32 325.689 162.584C325.717 162.847 325.842 163.09 326.039 163.267C327.651 164.642 329.715 165.373 331.833 165.316C332.72 165.342 333.603 165.186 334.427 164.857C335.25 164.528 335.998 164.033 336.623 163.403C337.248 162.774 337.737 162.022 338.059 161.196C338.382 160.369 338.531 159.485 338.498 158.599C338.477 154.366 335.715 152.433 332.338 152.433Z" fill="#B79147"/>
<path opacity="0.3" d="M348.492 152.884C346.899 152.884 345.115 153.846 343.872 155.396C343.978 149.103 346.32 146.942 349.098 146.942C350.016 146.952 350.907 147.259 351.636 147.818C351.848 147.984 352.115 148.063 352.383 148.039C352.652 148.016 352.901 147.891 353.081 147.691C353.178 147.583 353.252 147.456 353.298 147.318C353.344 147.18 353.362 147.034 353.349 146.889C353.337 146.744 353.295 146.604 353.226 146.476C353.157 146.348 353.062 146.235 352.948 146.145C351.823 145.264 350.43 144.796 349.002 144.818C345.056 144.818 341.456 147.877 341.456 155.842C341.456 162.215 344.387 165.359 348.29 165.359C351.477 165.359 354.132 162.799 354.132 158.986C354.159 154.945 351.923 152.884 348.492 152.884ZM348.285 163.346C346.448 163.346 345.136 162.236 344.44 160.16C344.094 159.142 344.165 158.027 344.639 157.062C345.113 156.096 345.951 155.358 346.968 155.009C347.323 154.894 347.694 154.835 348.067 154.833C350.516 154.833 351.732 156.427 351.732 159.034C351.732 161.641 350.229 163.346 348.285 163.346Z" fill="#B79147"/>
</g>
<path d="M53.8063 144.648H52.9991C52.8404 144.648 52.6847 144.69 52.5477 144.77C51.5212 145.334 50.4144 145.737 49.2658 145.965C49.0624 146.006 48.8795 146.117 48.748 146.277C48.6164 146.438 48.5442 146.639 48.5435 146.846C48.5449 147.085 48.6407 147.313 48.8098 147.481C48.979 147.65 49.2078 147.744 49.4463 147.744H51.2519C51.4913 147.744 51.721 147.839 51.8903 148.008C52.0596 148.178 52.1547 148.407 52.1547 148.647V161.78C52.1547 161.92 52.0987 162.056 51.9991 162.155C51.8996 162.255 51.7645 162.311 51.6236 162.311H48.5329C48.2935 162.311 48.0639 162.406 47.8946 162.575C47.7252 162.744 47.6301 162.974 47.6301 163.213V163.537C47.6315 163.776 47.7273 164.004 47.8964 164.172C48.0656 164.34 48.2944 164.435 48.5329 164.435H57.906C58.1445 164.435 58.3733 164.34 58.5425 164.172C58.7116 164.004 58.8074 163.776 58.8088 163.537V163.213C58.8088 162.974 58.7137 162.744 58.5444 162.575C58.375 162.406 58.1454 162.311 57.906 162.311H55.2507C55.1099 162.311 54.9748 162.255 54.8752 162.155C54.7756 162.056 54.7197 161.92 54.7197 161.78V145.529C54.7141 145.292 54.6151 145.066 54.4441 144.901C54.2731 144.736 54.0439 144.645 53.8063 144.648Z" fill="#B79147"/>
<path d="M65.5743 162.422C70.2422 157.515 73.6569 153.819 73.6569 150.107C73.6569 146.586 71.3734 144.266 67.7144 144.266C66.7299 144.266 65.7557 144.466 64.8503 144.853C63.945 145.24 63.1273 145.806 62.4464 146.517C62.2485 146.704 62.1329 146.961 62.1249 147.233C62.1169 147.505 62.2173 147.769 62.4039 147.967C62.5905 148.165 62.8481 148.28 63.12 148.288C63.3919 148.296 63.6558 148.196 63.8537 148.009C64.7725 147.012 66.0464 146.415 67.4011 146.347C69.9236 146.347 71.1556 147.94 71.1556 150.208C71.1556 152.284 69.828 154.159 68.596 155.715C67.6241 156.952 66.5514 158.105 65.4681 159.241C64.8096 159.932 64.1404 160.611 63.4713 161.286C63.0146 161.753 62.0109 162.252 61.8782 162.943C61.7135 163.745 62.6376 164.435 63.3598 164.435H73.6091C73.7439 164.436 73.8775 164.41 74.0021 164.358C74.1268 164.307 74.2401 164.232 74.3354 164.136C74.4307 164.041 74.5062 163.928 74.5574 163.803C74.6087 163.678 74.6347 163.545 74.634 163.41V163.267C74.634 162.995 74.526 162.734 74.3338 162.542C74.1416 162.35 73.8809 162.242 73.6091 162.242H68.9146C67.8737 162.252 66.647 162.337 65.5743 162.422Z" fill="#B79147"/>
<path d="M85.5898 154.132V154.026C87.7406 153.23 89.1903 151.706 89.1903 149.321C89.1903 146.135 86.7103 144.292 83.2638 144.292C81.4759 144.307 79.748 144.939 78.3728 146.082C78.2659 146.165 78.1771 146.27 78.1117 146.388C78.0463 146.507 78.0056 146.638 77.9922 146.773C77.9788 146.908 77.9929 147.045 78.0337 147.174C78.0745 147.303 78.1411 147.423 78.2294 147.526L78.2772 147.585C78.4503 147.787 78.6954 147.913 78.9603 147.937C79.2251 147.96 79.4889 147.88 79.6951 147.712C80.6627 146.873 81.8933 146.4 83.1735 146.374C85.2977 146.374 86.5988 147.585 86.5988 149.507C86.5988 151.429 85.388 152.938 81.9255 153.166C81.6696 153.181 81.4291 153.293 81.2533 153.48C81.0775 153.666 80.9798 153.913 80.9803 154.17C80.9798 154.427 81.0781 154.676 81.2549 154.863C81.4316 155.051 81.6735 155.164 81.9309 155.179C85.8978 155.38 87.2945 156.894 87.2945 159.082C87.2945 161.27 85.5898 162.709 83.1841 162.709C81.6059 162.728 80.0769 162.16 78.8932 161.116C78.7886 161.029 78.6677 160.965 78.5375 160.926C78.4074 160.887 78.2709 160.875 78.136 160.891C78.0011 160.906 77.8708 160.949 77.7527 161.016C77.6346 161.083 77.5312 161.173 77.4488 161.28L77.3904 161.36C77.2334 161.563 77.1597 161.819 77.1844 162.074C77.209 162.33 77.3302 162.566 77.5231 162.735C79.1254 164.167 81.217 164.928 83.3647 164.86C86.9918 164.86 89.9073 162.735 89.9073 159.199C89.8913 156.448 87.9848 154.695 85.5898 154.132Z" fill="#B79147"/>
<path d="M102.286 144.648H101.011C100.844 144.648 100.68 144.689 100.533 144.768C100.385 144.846 100.26 144.96 100.167 145.099L92.1695 157.037C92.0583 157.206 91.9992 157.404 91.9995 157.606V157.961C91.9988 158.095 92.0245 158.227 92.0752 158.351C92.1259 158.475 92.2005 158.587 92.2947 158.682C92.389 158.777 92.501 158.852 92.6244 158.903C92.7479 158.955 92.8802 158.981 93.0138 158.981H100.889V163.431C100.889 163.7 100.996 163.958 101.186 164.148C101.377 164.339 101.635 164.445 101.904 164.445H102.286C102.42 164.446 102.552 164.42 102.676 164.37C102.799 164.319 102.912 164.244 103.007 164.15C103.101 164.056 103.177 163.944 103.228 163.821C103.279 163.697 103.306 163.565 103.306 163.431V158.981H104.989C105.123 158.981 105.255 158.955 105.378 158.903C105.502 158.852 105.614 158.777 105.708 158.682C105.802 158.587 105.877 158.475 105.928 158.351C105.978 158.227 106.004 158.095 106.003 157.961C106.003 157.828 105.977 157.696 105.926 157.573C105.875 157.45 105.8 157.338 105.706 157.244C105.612 157.15 105.5 157.075 105.377 157.024C105.254 156.973 105.122 156.947 104.989 156.947H103.306V145.667C103.306 145.397 103.198 145.138 103.007 144.946C102.816 144.755 102.556 144.648 102.286 144.648ZM94.6707 156.947L99.2962 150.181C99.8591 149.199 100.417 148.333 100.889 147.388H101.017C100.953 148.45 100.868 150.139 100.868 151.18V156.947H94.6707Z" fill="#B79147"/>
<path d="M135.636 151.902C134.567 151.896 133.515 152.179 132.593 152.72L133.124 146.846H139.741C140.023 146.846 140.293 146.735 140.492 146.535C140.691 146.336 140.803 146.066 140.803 145.784V145.678C140.803 145.396 140.691 145.126 140.492 144.927C140.293 144.728 140.023 144.616 139.741 144.616H131.855C131.587 144.615 131.329 144.715 131.132 144.896C130.935 145.078 130.814 145.326 130.793 145.593L130.262 153.527C130.25 153.714 130.288 153.902 130.372 154.069C130.456 154.237 130.583 154.38 130.74 154.483L131.01 154.653C131.178 154.756 131.371 154.811 131.568 154.811C131.765 154.811 131.958 154.756 132.126 154.653C132.966 154.087 133.959 153.789 134.972 153.798C137.505 153.798 139.173 155.391 139.173 158.153C139.173 160.914 137.256 162.656 134.839 162.656C133.305 162.669 131.817 162.128 130.649 161.132C130.428 160.959 130.147 160.881 129.869 160.915C129.59 160.949 129.336 161.092 129.162 161.312C129 161.522 128.924 161.787 128.952 162.051C128.98 162.315 129.108 162.559 129.311 162.73C130.92 164.108 132.982 164.84 135.1 164.785C135.986 164.811 136.869 164.654 137.692 164.324C138.516 163.995 139.263 163.5 139.888 162.871C140.512 162.241 141.001 161.49 141.324 160.664C141.647 159.838 141.797 158.954 141.764 158.068C141.77 153.824 139.008 151.902 135.636 151.902Z" fill="#B79147"/>
<path d="M151.791 152.343C150.197 152.343 148.408 153.309 147.165 154.86C147.271 148.562 149.613 146.4 152.396 146.4C153.313 146.413 154.202 146.722 154.929 147.282C155.142 147.447 155.409 147.525 155.678 147.5C155.946 147.476 156.194 147.35 156.374 147.149C156.47 147.041 156.543 146.915 156.589 146.777C156.635 146.64 156.652 146.495 156.64 146.35C156.627 146.206 156.585 146.066 156.517 145.939C156.448 145.811 156.354 145.699 156.241 145.609C155.117 144.726 153.724 144.255 152.295 144.276C148.349 144.276 144.754 147.34 144.754 155.301C144.754 161.673 147.68 164.822 151.589 164.822C154.775 164.822 157.43 162.257 157.43 158.45C157.436 154.403 155.221 152.343 151.791 152.343ZM151.578 162.81C149.741 162.81 148.429 161.7 147.733 159.592C147.561 159.088 147.49 158.555 147.524 158.024C147.558 157.492 147.696 156.973 147.931 156.495C148.165 156.017 148.492 155.59 148.892 155.238C149.292 154.887 149.757 154.617 150.261 154.446C150.616 154.329 150.987 154.268 151.36 154.265C153.814 154.265 155.025 155.89 155.025 158.466C155.025 161.041 153.522 162.81 151.578 162.81Z" fill="#B79147"/>
<path d="M161.148 146.846H169.884C166.166 151.987 164.663 156.48 164.228 163.309C164.219 163.459 164.241 163.608 164.293 163.749C164.344 163.89 164.424 164.019 164.526 164.128C164.629 164.237 164.754 164.324 164.891 164.383C165.029 164.442 165.177 164.472 165.327 164.472H165.752C166.037 164.472 166.31 164.361 166.515 164.163C166.719 163.965 166.838 163.695 166.846 163.41C167.223 156.432 168.275 152.093 172.56 146.517C172.707 146.323 172.787 146.086 172.788 145.843V145.752C172.788 145.461 172.673 145.181 172.467 144.975C172.26 144.769 171.981 144.653 171.689 144.653H161.148C160.856 144.653 160.577 144.769 160.371 144.975C160.164 145.181 160.049 145.461 160.049 145.752C160.05 146.043 160.166 146.321 160.372 146.526C160.578 146.731 160.857 146.846 161.148 146.846Z" fill="#B79147"/>
<path d="M184.817 154.446V154.318C186.038 153.4 187.546 151.621 187.546 149.539C187.546 146.459 185.422 144.271 181.949 144.271C178.763 144.271 176.352 146.305 176.352 149.348C176.352 151.435 177.642 152.906 179.113 153.925V154.053C177.249 155.046 175.396 156.804 175.396 159.363C175.396 162.512 178.152 164.807 181.901 164.807C185.65 164.807 188.274 162.486 188.274 159.496C188.258 156.883 186.585 155.487 184.817 154.446ZM178.694 149.353C178.675 148.927 178.746 148.503 178.901 148.106C179.057 147.709 179.293 147.35 179.596 147.05C179.898 146.75 180.26 146.516 180.658 146.364C181.056 146.212 181.481 146.145 181.906 146.167C184.089 146.167 185.342 147.723 185.342 149.677V149.719C185.323 150.285 185.154 150.835 184.851 151.313C184.549 151.791 184.125 152.18 183.623 152.44C183.121 152.7 182.558 152.822 181.993 152.792C181.429 152.763 180.882 152.584 180.409 152.274C179.894 151.978 179.465 151.553 179.164 151.041C178.863 150.528 178.701 149.947 178.694 149.353ZM181.928 162.921C179.501 162.921 177.679 161.328 177.679 159.151C177.686 158.254 177.972 157.382 178.497 156.655C178.916 156.059 179.53 155.628 180.232 155.434C180.934 155.24 181.682 155.296 182.347 155.593C184.328 156.469 185.81 157.462 185.81 159.438C185.81 161.413 184.222 162.921 181.928 162.921Z" fill="#B79147"/>
<path d="M217.567 144.276C214.38 144.276 211.725 146.841 211.725 150.649C211.725 154.717 213.945 156.772 217.375 156.772C218.969 156.772 220.753 155.811 221.996 154.26C221.889 160.558 219.558 162.714 216.77 162.714C215.853 162.703 214.965 162.396 214.237 161.838C214.024 161.671 213.755 161.592 213.486 161.617C213.216 161.642 212.966 161.768 212.787 161.971C212.69 162.079 212.616 162.206 212.57 162.344C212.523 162.481 212.506 162.627 212.518 162.772C212.531 162.917 212.573 163.058 212.642 163.186C212.711 163.314 212.806 163.426 212.92 163.516C214.045 164.397 215.437 164.866 216.866 164.844C220.811 164.844 224.412 161.78 224.412 153.819C224.401 147.441 221.47 144.276 217.567 144.276ZM217.79 154.833C215.336 154.833 214.125 153.208 214.125 150.627C214.125 148.047 215.628 146.289 217.572 146.289C219.409 146.289 220.721 147.399 221.417 149.507C221.763 150.525 221.691 151.638 221.217 152.603C220.743 153.568 219.906 154.305 218.889 154.653C218.534 154.769 218.163 154.83 217.79 154.833Z" fill="#B79147"/>
<path d="M233.61 144.276C229.653 144.276 227.264 147.839 227.264 154.478C227.264 161.116 229.653 164.823 233.61 164.823C237.566 164.823 239.951 161.105 239.951 154.478C239.951 147.85 237.582 144.276 233.61 144.276ZM233.61 162.762C231.305 162.762 229.738 160.277 229.738 154.478C229.738 148.679 231.332 146.337 233.61 146.337C235.888 146.337 237.476 148.673 237.476 154.478C237.476 160.282 235.93 162.762 233.61 162.762Z" fill="#B79147"/>
<path d="M249.971 144.648H249.164C249.006 144.648 248.85 144.69 248.713 144.77C247.686 145.334 246.579 145.737 245.431 145.965C245.227 146.006 245.045 146.117 244.913 146.277C244.782 146.438 244.709 146.639 244.709 146.846C244.71 147.085 244.806 147.313 244.975 147.481C245.144 147.65 245.373 147.744 245.611 147.744H248.32V161.726C248.318 161.885 248.255 162.036 248.142 162.147C248.03 162.259 247.878 162.321 247.72 162.321H244.682C244.443 162.321 244.213 162.416 244.044 162.586C243.874 162.755 243.779 162.985 243.779 163.224V163.548C243.781 163.787 243.876 164.015 244.046 164.183C244.215 164.351 244.444 164.445 244.682 164.445H254.055C254.294 164.445 254.522 164.351 254.692 164.183C254.861 164.015 254.957 163.787 254.958 163.548V163.224C254.958 162.985 254.863 162.755 254.694 162.586C254.524 162.416 254.295 162.321 254.055 162.321H251.469C251.311 162.321 251.159 162.259 251.046 162.147C250.934 162.036 250.87 161.885 250.869 161.726V145.529C250.863 145.295 250.767 145.071 250.599 144.907C250.431 144.742 250.206 144.649 249.971 144.648Z" fill="#B79147"/>
<path d="M261.756 162.422C266.424 157.515 269.838 153.819 269.838 150.107C269.838 146.586 267.555 144.266 263.896 144.266C262.911 144.266 261.937 144.466 261.032 144.853C260.126 145.24 259.309 145.806 258.628 146.517C258.529 146.613 258.451 146.728 258.397 146.855C258.344 146.981 258.316 147.118 258.316 147.255C258.316 147.393 258.344 147.529 258.397 147.656C258.451 147.783 258.529 147.897 258.628 147.993C258.818 148.175 259.071 148.276 259.334 148.276C259.597 148.276 259.85 148.175 260.04 147.993C260.959 146.996 262.233 146.399 263.588 146.331C266.11 146.331 267.342 147.924 267.342 150.192C267.342 153.378 264.087 156.857 258.314 162.608C258.124 162.803 258.016 163.063 258.012 163.336V163.394C258.012 163.666 258.12 163.927 258.312 164.119C258.504 164.311 258.765 164.419 259.037 164.419H269.774C269.909 164.42 270.043 164.394 270.168 164.342C270.292 164.291 270.405 164.216 270.501 164.12C270.596 164.025 270.672 163.912 270.723 163.787C270.774 163.662 270.8 163.529 270.799 163.394V163.251C270.799 162.979 270.691 162.718 270.499 162.526C270.307 162.334 270.046 162.226 269.774 162.226H265.08C264.044 162.252 262.818 162.337 261.756 162.422Z" fill="#B79147"/>
<path d="M302.705 154.132V154.026C304.829 153.23 306.305 151.706 306.305 149.321C306.305 146.135 303.825 144.292 300.379 144.292C298.591 144.307 296.863 144.939 295.488 146.082C295.381 146.165 295.292 146.27 295.227 146.388C295.161 146.507 295.121 146.638 295.107 146.773C295.094 146.908 295.108 147.045 295.149 147.174C295.189 147.303 295.256 147.423 295.344 147.526L295.392 147.585C295.565 147.787 295.81 147.913 296.075 147.937C296.34 147.96 296.604 147.88 296.81 147.712C297.778 146.873 299.008 146.4 300.289 146.374C302.413 146.374 303.714 147.585 303.714 149.507C303.714 151.429 302.503 152.938 299.041 153.166C298.785 153.181 298.544 153.293 298.368 153.48C298.193 153.666 298.095 153.913 298.095 154.17C298.095 154.427 298.193 154.676 298.37 154.863C298.547 155.051 298.789 155.164 299.046 155.179C303.013 155.38 304.41 156.894 304.41 159.082C304.41 161.27 302.705 162.709 300.299 162.709C298.721 162.728 297.192 162.16 296.008 161.116C295.904 161.029 295.783 160.965 295.653 160.926C295.522 160.887 295.386 160.875 295.251 160.891C295.116 160.906 294.986 160.949 294.868 161.016C294.75 161.083 294.646 161.173 294.564 161.28L294.505 161.36C294.348 161.563 294.275 161.819 294.299 162.074C294.324 162.33 294.445 162.566 294.638 162.735C296.24 164.167 298.332 164.928 300.48 164.86C304.107 164.86 307.017 162.735 307.017 159.199C307.001 156.448 305.1 154.695 302.705 154.132Z" fill="#B79147"/>
<path d="M319.401 144.648H318.127C317.96 144.648 317.795 144.689 317.648 144.768C317.501 144.846 317.375 144.96 317.282 145.099L309.285 157.037C309.174 157.206 309.114 157.404 309.115 157.606V157.961C309.114 158.095 309.14 158.227 309.19 158.351C309.241 158.475 309.316 158.587 309.41 158.682C309.504 158.777 309.616 158.852 309.74 158.903C309.863 158.955 309.995 158.981 310.129 158.981H318.005V163.431C318.005 163.7 318.111 163.958 318.302 164.148C318.492 164.339 318.75 164.445 319.019 164.445H319.401C319.535 164.446 319.667 164.42 319.791 164.37C319.915 164.319 320.027 164.244 320.122 164.15C320.217 164.056 320.292 163.944 320.343 163.821C320.394 163.697 320.421 163.565 320.421 163.431V158.981H322.104C322.374 158.98 322.632 158.872 322.822 158.68C323.012 158.489 323.119 158.231 323.119 157.961C323.117 157.693 323.01 157.436 322.82 157.246C322.63 157.056 322.373 156.948 322.104 156.947H320.421V145.667C320.421 145.397 320.313 145.138 320.122 144.946C319.931 144.755 319.672 144.648 319.401 144.648ZM311.786 156.947L316.411 150.181C316.969 149.199 317.532 148.333 318.005 147.388H318.132C318.068 148.45 317.983 150.139 317.983 151.18V156.947H311.786Z" fill="#B79147"/>
<path d="M331.801 151.902C330.732 151.896 329.681 152.179 328.758 152.72L329.289 146.846H335.912C336.193 146.846 336.463 146.735 336.663 146.535C336.862 146.336 336.974 146.066 336.974 145.784V145.678C336.974 145.396 336.862 145.126 336.663 144.927C336.463 144.728 336.193 144.616 335.912 144.616H327.043L326.432 153.527C326.421 153.715 326.46 153.902 326.545 154.07C326.63 154.238 326.758 154.381 326.916 154.483L327.181 154.653C327.349 154.756 327.542 154.811 327.739 154.811C327.936 154.811 328.129 154.756 328.296 154.653C329.137 154.087 330.129 153.789 331.143 153.798C333.676 153.798 335.343 155.391 335.343 158.153C335.343 160.914 333.426 162.656 331.01 162.656C329.475 162.669 327.988 162.128 326.82 161.132C326.599 160.959 326.318 160.881 326.039 160.915C325.761 160.949 325.507 161.092 325.333 161.312C325.17 161.522 325.095 161.787 325.123 162.051C325.15 162.315 325.279 162.559 325.482 162.73C327.091 164.108 329.153 164.84 331.27 164.785C332.157 164.811 333.039 164.654 333.863 164.324C334.686 163.995 335.434 163.5 336.058 162.871C336.683 162.241 337.172 161.49 337.495 160.664C337.817 159.838 337.967 158.954 337.935 158.068C337.935 153.824 335.173 151.902 331.801 151.902Z" fill="#B79147"/>
<path d="M347.956 152.343C346.363 152.343 344.573 153.309 343.33 154.86C343.437 148.562 345.779 146.4 348.561 146.4C349.479 146.413 350.367 146.722 351.094 147.282C351.307 147.447 351.575 147.525 351.843 147.5C352.111 147.476 352.36 147.35 352.539 147.149C352.635 147.041 352.709 146.915 352.754 146.777C352.8 146.64 352.817 146.495 352.805 146.35C352.792 146.206 352.751 146.066 352.682 145.939C352.613 145.811 352.52 145.699 352.406 145.609C351.282 144.726 349.889 144.255 348.46 144.276C344.515 144.276 340.919 147.34 340.919 155.301C340.919 161.673 343.846 164.822 347.754 164.822C350.94 164.822 353.596 162.257 353.596 158.45C353.627 154.403 351.386 152.343 347.956 152.343ZM347.743 162.81C345.906 162.81 344.594 161.7 343.899 159.592C343.726 159.088 343.655 158.555 343.689 158.024C343.723 157.492 343.861 156.973 344.096 156.495C344.331 156.017 344.657 155.59 345.057 155.238C345.457 154.887 345.922 154.617 346.426 154.446C346.781 154.329 347.152 154.268 347.526 154.265C349.979 154.265 351.19 155.89 351.19 158.466C351.19 161.041 349.687 162.81 347.743 162.81Z" fill="#B79147"/>
<path d="M97.018 86.0197H57.0298C53.5573 86.0197 50.7422 88.8348 50.7422 92.3074V117.649C50.7422 121.122 53.5573 123.937 57.0298 123.937H97.018C100.491 123.937 103.306 121.122 103.306 117.649V92.3074C103.306 88.8348 100.491 86.0197 97.018 86.0197Z" fill="#FAD757"/>
<path d="M97.0127 85.7648H57.0299C55.2951 85.7662 53.6318 86.456 52.4051 87.6826C51.1785 88.9093 50.4887 90.5726 50.4873 92.3074V117.649C50.4887 119.384 51.1785 121.047 52.4051 122.274C53.6318 123.501 55.2951 124.19 57.0299 124.192H97.0127C98.7484 124.192 100.413 123.503 101.641 122.276C102.869 121.049 103.559 119.385 103.561 117.649V92.3074C103.558 90.5721 102.867 88.9088 101.639 87.6823C100.412 86.4558 98.748 85.7662 97.0127 85.7648ZM57.0299 86.2959H68.1395C68.6836 86.307 69.2011 86.5336 69.5785 86.9259C69.9558 87.3181 70.1621 87.844 70.1522 88.3882C70.1527 88.6686 70.0986 88.9463 69.9928 89.206C68.8474 92.1185 68.1717 95.1944 67.9908 98.3189H50.9971V92.3286C50.995 91.5348 51.1495 90.7484 51.4517 90.0143C51.7538 89.2803 52.1978 88.613 52.7581 88.0506C53.3184 87.4883 53.9841 87.042 54.7171 86.7373C55.4501 86.4325 56.236 86.2753 57.0299 86.2746V86.2959ZM50.9971 98.7968H67.9589C67.9164 99.5615 67.8846 100.337 67.8846 101.128V108.807C67.8846 109.604 67.9164 110.4 67.9589 111.138H50.9971V98.7968ZM57.0299 123.671C55.4303 123.67 53.8967 123.034 52.7656 121.903C51.6346 120.772 50.9985 119.238 50.9971 117.639V111.648H67.9908C68.1705 114.773 68.8463 117.849 69.9928 120.761C70.0986 121.021 70.1527 121.299 70.1522 121.579C70.1621 122.123 69.9558 122.649 69.5785 123.041C69.2011 123.434 68.6836 123.66 68.1395 123.671H57.0299ZM69.637 123.671C69.9578 123.425 70.2173 123.108 70.3951 122.745C70.5729 122.382 70.6642 121.983 70.662 121.579C70.6615 121.233 70.5948 120.891 70.4655 120.57C69.02 116.82 68.3166 112.825 68.3944 108.807V101.128C68.3166 97.1101 69.02 93.1152 70.4655 89.3653C70.5948 89.0446 70.6615 88.7021 70.662 88.3563C70.6614 87.9526 70.5688 87.5543 70.3912 87.1918C70.2136 86.8292 69.9557 86.5119 69.637 86.264H84.3843C84.0657 86.5119 83.8077 86.8292 83.6301 87.1918C83.4525 87.5543 83.3599 87.9526 83.3594 88.3563C83.3599 88.7021 83.4266 89.0446 83.5559 89.3653C83.7896 89.9389 84.0073 90.5336 84.1985 91.1337C84.2203 91.198 84.2664 91.2512 84.3269 91.282C84.3875 91.3127 84.4576 91.3186 84.5224 91.2984C84.5863 91.2777 84.6394 91.2326 84.6702 91.1729C84.701 91.1133 84.7071 91.0439 84.687 90.9798C84.4905 90.3637 84.2675 89.7583 84.0285 89.1742C83.9227 88.9145 83.8686 88.6367 83.8692 88.3563C83.8592 87.8121 84.0656 87.2863 84.4429 86.894C84.8202 86.5017 85.3377 86.2752 85.8819 86.264H96.9915C98.5915 86.2654 100.126 86.9013 101.258 88.0322C102.39 89.1631 103.027 90.6967 103.03 92.2968V98.287H85.9244C85.8767 98.2877 85.8297 98.2979 85.7861 98.3171C85.7425 98.3363 85.7031 98.3641 85.6705 98.3987C85.6378 98.4334 85.6124 98.4743 85.5958 98.5189C85.5792 98.5636 85.5717 98.6111 85.5739 98.6588C85.5739 98.9402 85.6482 100.385 85.6482 101.128V108.807C85.726 112.825 85.0226 116.82 83.5771 120.57C83.4488 120.891 83.3821 121.233 83.3806 121.579C83.3784 121.983 83.4697 122.382 83.6475 122.745C83.8253 123.108 84.0848 123.425 84.4056 123.671H69.637ZM103.051 111.138H86.089C86.1368 110.379 86.158 109.598 86.158 108.807V101.128C86.158 100.475 86.1102 99.3226 86.089 98.7968H103.051V111.138ZM97.0127 123.671H85.9031C85.359 123.66 84.8415 123.434 84.4641 123.041C84.0868 122.649 83.8805 122.123 83.8905 121.579C83.8899 121.299 83.944 121.021 84.0498 120.761C85.1976 117.849 85.8752 114.773 86.0571 111.648H103.051V117.639C103.051 118.432 102.896 119.218 102.593 119.951C102.29 120.684 101.845 121.35 101.284 121.912C100.723 122.473 100.058 122.918 99.3246 123.222C98.5917 123.526 97.8061 123.682 97.0127 123.682V123.671Z" fill="black"/>
<path opacity="0.3" d="M55.0791 208.489L53.702 209.3C53.5323 208.955 53.2805 208.657 52.9686 208.432C52.6376 208.255 52.2627 208.177 51.8885 208.207C51.5143 208.236 51.1566 208.373 50.858 208.6C50.71 208.717 50.591 208.867 50.5105 209.038C50.43 209.209 50.39 209.395 50.3937 209.584C50.3937 210.11 50.8 210.573 51.6178 210.905L52.7364 211.363C53.5082 211.633 54.197 212.097 54.7362 212.71C55.1668 213.266 55.3906 213.954 55.3693 214.657C55.3817 215.133 55.2941 215.606 55.1124 216.047C54.9307 216.487 54.6588 216.885 54.3141 217.215C53.9751 217.549 53.5717 217.811 53.1282 217.986C52.6848 218.16 52.2105 218.243 51.7339 218.23C50.8473 218.262 49.9822 217.953 49.3174 217.367C48.6542 216.718 48.2398 215.858 48.146 214.936L49.8608 214.557C49.8831 215.038 50.0225 215.505 50.2671 215.92C50.4351 216.128 50.6445 216.3 50.8821 216.424C51.1197 216.548 51.3804 216.622 51.6479 216.64C51.9154 216.659 52.1839 216.623 52.4366 216.533C52.6893 216.444 52.9207 216.303 53.1163 216.12C53.2902 215.943 53.4266 215.733 53.5172 215.503C53.6079 215.272 53.651 215.026 53.644 214.778C53.6458 214.575 53.6155 214.372 53.5543 214.178C53.4952 213.986 53.3983 213.807 53.2693 213.652C53.1261 213.485 52.959 213.339 52.7734 213.22C52.5411 213.075 52.2977 212.948 52.0452 212.841L50.9583 212.389C49.4246 211.74 48.656 210.793 48.6525 209.547C48.6476 209.147 48.7317 208.751 48.8986 208.387C49.0656 208.023 49.3113 207.7 49.6181 207.442C50.2857 206.865 51.1463 206.559 52.0294 206.584C52.6664 206.582 53.2911 206.759 53.8309 207.096C54.3708 207.434 54.8036 207.917 55.0791 208.489Z" fill="#523B0F"/>
<path opacity="0.3" d="M60.7248 208.411V218.025H59.01V208.411H56.4246V206.832H63.2838V208.411H60.7248Z" fill="#523B0F"/>
<path opacity="0.3" d="M63.9012 212.389C63.8927 211.628 64.0432 210.874 64.343 210.175C64.6427 209.475 65.0853 208.846 65.6424 208.326C66.1836 207.776 66.8313 207.342 67.5461 207.05C68.2609 206.758 69.0278 206.614 69.8002 206.627C71.3477 206.633 72.8299 207.249 73.9246 208.34C75.0193 209.431 75.6381 210.909 75.6464 212.452C75.6599 213.219 75.5129 213.979 75.2149 214.686C74.9169 215.393 74.4745 216.03 73.9158 216.557C72.8392 217.606 71.4034 218.21 69.8983 218.245C68.3932 218.28 66.9307 217.744 65.806 216.746C65.1828 216.207 64.6883 215.537 64.3588 214.783C64.0292 214.029 63.8729 213.211 63.9012 212.389ZM65.6108 212.389C65.593 212.957 65.6951 213.523 65.9105 214.05C66.1259 214.577 66.4498 215.052 66.8613 215.446C67.2365 215.827 67.6842 216.128 68.178 216.333C68.6719 216.539 69.2019 216.643 69.7369 216.641C70.2915 216.653 70.8428 216.551 71.3564 216.342C71.8701 216.133 72.3353 215.821 72.7233 215.425C73.1174 215.031 73.428 214.562 73.6365 214.046C73.845 213.53 73.9471 212.977 73.9369 212.42C73.9519 211.864 73.8529 211.311 73.646 210.794C73.4392 210.278 73.1288 209.808 72.7339 209.416C72.354 209.018 71.8949 208.703 71.386 208.493C70.8771 208.283 70.3298 208.181 69.7791 208.195C69.228 208.184 68.6806 208.287 68.1712 208.497C67.6618 208.707 67.2014 209.02 66.819 209.416C66.4241 209.802 66.113 210.265 65.9051 210.777C65.6973 211.288 65.5971 211.837 65.6108 212.389Z" fill="#523B0F"/>
<path opacity="0.3" d="M79.4771 206.821V216.436H82.7801V218.014H77.7781V206.811L79.4771 206.821Z" fill="#523B0F"/>
<path opacity="0.3" d="M83.3709 212.389C83.3615 211.629 83.5109 210.875 83.8098 210.175C84.1087 209.476 84.5504 208.846 85.1069 208.326C85.6494 207.777 86.2981 207.343 87.0136 207.051C87.7292 206.759 88.4968 206.614 89.2699 206.627C90.8174 206.633 92.2996 207.249 93.3943 208.34C94.4891 209.431 95.1078 210.909 95.1162 212.452C95.1286 213.218 94.9812 213.979 94.6833 214.686C94.3854 215.392 93.9434 216.03 93.3855 216.557C92.3089 217.606 90.8732 218.21 89.368 218.245C87.8629 218.28 86.4004 217.744 85.2757 216.746C84.6525 216.208 84.1581 215.537 83.8285 214.783C83.4989 214.029 83.3426 213.211 83.3709 212.389ZM85.0805 212.389C85.0627 212.957 85.1648 213.523 85.3802 214.05C85.5956 214.577 85.9196 215.052 86.331 215.446C87.1091 216.218 88.1619 216.652 89.2594 216.652C90.3568 216.652 91.4097 216.218 92.1878 215.446C92.9649 214.638 93.3988 213.561 93.3988 212.442C93.3988 211.322 92.9649 210.245 92.1878 209.437C91.4032 208.655 90.3395 208.216 89.2304 208.216C88.1213 208.216 87.0575 208.655 86.273 209.437C85.8834 209.822 85.5768 210.283 85.3718 210.79C85.1668 211.298 85.0676 211.842 85.0805 212.389Z" fill="#523B0F"/>
<path opacity="0.3" d="M99.9493 208.411V218.025H98.2503V208.411H95.6702V206.832H102.529V208.411H99.9493Z" fill="#523B0F"/>
<path opacity="0.3" d="M103.12 212.389C103.112 211.628 103.262 210.874 103.562 210.175C103.862 209.475 104.305 208.846 104.862 208.326C105.404 207.777 106.053 207.343 106.768 207.051C107.484 206.759 108.252 206.614 109.025 206.627C110.571 206.635 112.052 207.251 113.146 208.342C114.239 209.433 114.857 210.91 114.866 212.452C114.879 213.219 114.732 213.98 114.434 214.686C114.136 215.393 113.694 216.03 113.135 216.557C112.058 217.606 110.623 218.21 109.118 218.245C107.612 218.28 106.15 217.744 105.025 216.746C104.403 216.207 103.909 215.536 103.58 214.782C103.25 214.028 103.093 213.211 103.12 212.389ZM104.83 212.389C104.812 212.958 104.914 213.524 105.131 214.051C105.347 214.578 105.673 215.054 106.086 215.446C106.46 215.827 106.907 216.129 107.4 216.334C107.893 216.539 108.422 216.643 108.956 216.641C109.511 216.653 110.062 216.551 110.576 216.342C111.089 216.133 111.555 215.821 111.943 215.425C112.716 214.615 113.148 213.539 113.148 212.421C113.148 211.302 112.716 210.226 111.943 209.416C111.562 209.019 111.103 208.705 110.594 208.495C110.085 208.284 109.538 208.182 108.988 208.195C108.436 208.183 107.887 208.286 107.377 208.496C106.867 208.706 106.405 209.019 106.022 209.416C105.631 209.804 105.324 210.268 105.119 210.78C104.914 211.291 104.815 211.838 104.83 212.389Z" fill="#523B0F"/>
</g>
<defs>
<clipPath id="clip0_63_464">
<rect width="395.559" height="249.414" fill="white"/>
</clipPath>
</defs>
</svg>
