<svg width="64" height="64" viewBox="0 0 64 64" fill="none" xmlns="http://www.w3.org/2000/svg">
<path d="M51.4027 46.8243C51.3341 46.1898 51.14 45.5753 50.8316 45.0165C50.5232 44.4578 50.1067 43.966 49.6063 43.5698C48.2158 42.48 45.9009 40.2176 45.5401 37.106C45.014 32.5963 46.2917 16.5192 33.1009 14.6402C33.0473 14.2126 33.091 13.7784 33.2286 13.37C33.3949 12.8978 33.4562 12.3951 33.4082 11.8969C33.3602 11.3986 33.2042 10.9168 32.951 10.4851C32.6977 10.0533 32.3534 9.682 31.9419 9.39696C31.5304 9.11193 31.0618 8.92005 30.5686 8.83471C30.0753 8.74936 29.5695 8.77261 29.0861 8.90282C28.6028 9.03303 28.1537 9.26707 27.7701 9.58863C27.3865 9.9102 27.0777 10.3115 26.8651 10.7647C26.6525 11.2179 26.5413 11.7119 26.5393 12.2125C26.5375 12.6258 26.6114 13.0359 26.7572 13.4226C26.89 13.8295 26.9285 14.2613 26.87 14.6853C13.8069 16.6395 15.032 32.6263 14.5285 37.0984C14.1602 40.2101 11.8527 42.4725 10.4622 43.5623C9.95298 43.9542 9.52855 44.4454 9.21462 45.0061C8.90068 45.5668 8.70377 46.1853 8.6358 46.8243C8.30509 50.2141 12.2285 49.8308 12.2285 49.8308H47.81C47.81 49.8308 51.7259 50.2141 51.4027 46.8243Z" fill="white"/>
<path d="M30.0195 56.911C31.4096 56.9112 32.7544 56.4168 33.8134 55.5162C34.8723 54.6156 35.5763 53.3676 35.7994 51.9955H24.232C24.4567 53.3682 25.1622 54.6163 26.2224 55.5168C27.2826 56.4173 28.6285 56.9115 30.0195 56.911Z" fill="white"/>
</svg>
