<svg width="53" height="65" viewBox="0 0 53 65" fill="none" xmlns="http://www.w3.org/2000/svg">
<g id="Group 48095983">
<path id="Vector" d="M23.2257 23.5703C23.2257 23.018 23.6734 22.5703 24.2257 22.5703H29.6707C30.2229 22.5703 30.6707 23.018 30.6707 23.5703V29.0494C30.6707 29.6017 30.2229 30.0494 29.6707 30.0494H24.2257C23.6734 30.0494 23.2257 29.6017 23.2257 29.0494V23.5703Z" fill="#E12D43"/>
<path id="Vector_2" d="M11.1654 23.5703C11.1654 23.018 11.6131 22.5703 12.1654 22.5703H17.6103C18.1626 22.5703 18.6103 23.018 18.6103 23.5703V29.0494C18.6103 29.6017 18.1626 30.0494 17.6103 30.0494H12.1654C11.6131 30.0494 11.1654 29.6017 11.1654 29.0494V23.5703Z" fill="#E12D43"/>
<path id="Vector_3" d="M35.2928 23.5703C35.2928 23.018 35.7405 22.5703 36.2928 22.5703H41.7377C42.29 22.5703 42.7377 23.018 42.7377 23.5703V29.0494C42.7377 29.6017 42.29 30.0494 41.7377 30.0494H36.2928C35.7405 30.0494 35.2928 29.6017 35.2928 29.0494V23.5703Z" fill="#E12D43"/>
<path id="Vector_4" d="M23.2257 35.6865C23.2257 35.1342 23.6734 34.6865 24.2257 34.6865H29.6707C30.2229 34.6865 30.6707 35.1342 30.6707 35.6865V41.1656C30.6707 41.7179 30.2229 42.1656 29.6707 42.1656H24.2257C23.6734 42.1656 23.2257 41.7179 23.2257 41.1656V35.6865Z" fill="#E12D43"/>
<path id="Vector_5" d="M35.3891 35.6865C35.3891 35.1342 35.8368 34.6865 36.3891 34.6865H41.834C42.3863 34.6865 42.834 35.1342 42.834 35.6865V41.1656C42.834 41.7179 42.3863 42.1656 41.834 42.1656H36.3891C35.8368 42.1656 35.3891 41.7179 35.3891 41.1656V35.6865Z" fill="#E12D43"/>
<path id="Vector_6" d="M11.1654 35.6865C11.1654 35.1342 11.6131 34.6865 12.1654 34.6865H17.6103C18.1626 34.6865 18.6103 35.1342 18.6103 35.6865V41.1656C18.6103 41.7179 18.1626 42.1656 17.6103 42.1656H12.1654C11.6131 42.1656 11.1654 41.7179 11.1654 41.1656V35.6865Z" fill="#E12D43"/>
<path id="Vector_7" d="M53.0012 24.1111L47.5158 29.6251L45.5609 31.5902V55.1055C45.5609 56.2101 44.6655 57.1055 43.5609 57.1055H10.3409C9.23634 57.1055 8.34091 56.2101 8.34091 55.1055V21.7334C8.34091 20.6288 9.23634 19.7334 10.3409 19.7334H43.5609C44.6655 19.7334 45.5609 20.6288 45.5609 21.7334V31.5902L53.0012 24.1111V2.91358C53.0012 1.80901 52.1057 0.913574 51.0012 0.913574H2.64844C1.54387 0.913574 0.648438 1.809 0.648438 2.91357V62.7254C0.648438 63.83 1.54387 64.7254 2.64844 64.7254H51.0012C52.1057 64.7254 53.0012 63.83 53.0012 62.7254V24.1111ZM12.0634 10.2648C12.0634 9.22828 12.9037 8.38801 13.9402 8.38801H39.9616C40.9981 8.38801 41.8384 9.22828 41.8384 10.2648C41.8384 11.3014 40.9982 12.1416 39.9616 12.1416H13.9402C12.9037 12.1416 12.0634 11.3014 12.0634 10.2648Z" fill="#E12D43"/>
<path id="Vector_8" d="M11.1654 47.8038C11.1654 47.2515 11.6131 46.8038 12.1654 46.8038H17.6103C18.1626 46.8038 18.6103 47.2515 18.6103 47.8038V53.2782C18.6103 53.8305 18.1626 54.2782 17.6103 54.2782H12.1654C11.6131 54.2782 11.1654 53.8305 11.1654 53.2782V47.8038Z" fill="#E12D43"/>
<path id="Vector_9" d="M23.2257 47.8038C23.2257 47.2515 23.6734 46.8038 24.2257 46.8038H29.6707C30.2229 46.8038 30.6707 47.2515 30.6707 47.8038V53.2782C30.6707 53.8305 30.2229 54.2782 29.6707 54.2782H24.2257C23.6734 54.2782 23.2257 53.8305 23.2257 53.2782V47.8038Z" fill="#E12D43"/>
<path id="Vector_10" d="M35.3891 47.8038C35.3891 47.2515 35.8368 46.8038 36.3891 46.8038H41.834C42.3863 46.8038 42.834 47.2515 42.834 47.8038V53.2782C42.834 53.8305 42.3863 54.2782 41.834 54.2782H36.3891C35.8368 54.2782 35.3891 53.8305 35.3891 53.2782V47.8038Z" fill="#E12D43"/>
</g>
</svg>
