<svg width="59" height="60" viewBox="0 0 59 60" fill="none" xmlns="http://www.w3.org/2000/svg">
<path id="icon" d="M57.4659 6.62014C56.7701 5.73375 55.8812 5.0186 54.867 4.52942C53.8529 4.04024 52.7405 3.78999 51.6149 3.79785H49.0577C49.0925 3.06348 49.1188 2.6123 49.1368 2.00512C49.1443 1.74471 49.0996 1.48542 49.0054 1.2426C48.9112 0.999786 48.7693 0.77836 48.5882 0.591422C48.4071 0.404483 48.1904 0.255827 47.9509 0.154244C47.7114 0.0526603 47.4541 0.000211712 47.194 0H11.8269C11.5668 4.65668e-05 11.3094 0.0523829 11.0698 0.153909C10.8303 0.255434 10.6135 0.404085 10.4324 0.591057C10.2512 0.77803 10.1093 0.999521 10.0152 1.24241C9.92101 1.48531 9.87645 1.74466 9.88415 2.00512C9.90211 2.6123 9.92846 3.06348 9.962 3.79785H7.40361C6.27815 3.79023 5.16588 4.0407 4.15194 4.5301C3.138 5.01949 2.24927 5.73482 1.5538 6.62134C0.868724 7.49567 0.392153 8.5153 0.160489 9.60234C-0.071176 10.6894 -0.0518076 11.8151 0.217114 12.8935L0.292571 13.1719C2.74077 22.7151 9.75479 29.6196 16.9592 29.6196C17.2799 29.6182 17.6001 29.5945 17.9174 29.5488C19.6219 31.7617 21.7261 33.634 24.1206 35.0686V38.0517C24.1206 38.4336 24.272 38.7998 24.5416 39.0699C24.8111 39.3399 25.1767 39.4916 25.5579 39.4916H26.3963V45.9474H25.5579C25.1767 45.9474 24.8111 46.0991 24.5416 46.3691C24.272 46.6392 24.1206 47.0054 24.1206 47.3873V51.2631H22.5887C22.2075 51.2631 21.8419 51.4149 21.5723 51.6849C21.3028 51.9549 21.1514 52.3212 21.1514 52.7031V55.4402H18.6804C18.2992 55.4402 17.9336 55.5919 17.6641 55.8619C17.3945 56.132 17.2431 56.4982 17.2431 56.8801V60H40.7585V56.8801C40.7585 56.4982 40.6071 56.132 40.3375 55.8619C40.068 55.5919 39.7024 55.4402 39.3212 55.4402H36.8886V52.7043C36.8886 52.3224 36.7372 51.9561 36.4676 51.6861C36.1981 51.4161 35.8325 51.2643 35.4513 51.2643H33.9781V47.3885C33.9781 47.0066 33.8266 46.6404 33.5571 46.3703C33.2875 46.1003 32.922 45.9486 32.5408 45.9486H31.7023V39.4916H32.5408C32.922 39.4916 33.2875 39.3399 33.5571 39.0699C33.8266 38.7998 33.9781 38.4336 33.9781 38.0517V35.071C36.6311 33.9634 38.7128 32.0711 40.6423 29.5512C41.0801 29.5969 41.5198 29.6206 41.9599 29.622C49.1691 29.622 56.2275 22.6959 58.6757 13.1551C58.7008 13.0543 58.7511 12.9955 58.7751 12.8947C59.0487 11.818 59.073 10.693 58.8461 9.60546C58.6192 8.51796 58.1471 7.49683 57.4659 6.62014ZM3.43068 12.3463L3.3636 12.0775C3.2107 11.4486 3.20086 10.7932 3.33479 10.16C3.46871 9.52668 3.74299 8.93165 4.13735 8.41886C4.94343 7.38811 6.15555 6.71973 7.4611 6.71973H10.2291C11.034 14.3994 13.1193 21.142 16.0502 26.243C10.6842 25.6406 5.37223 19.9132 3.43068 12.3463ZM55.6525 12.0775C55.631 12.1651 55.6094 12.2527 55.5855 12.3439C53.6439 19.9132 48.3319 25.6418 42.9696 26.2442C45.9017 21.142 47.9869 14.3994 48.7918 6.71973H51.555C52.8606 6.71973 54.0703 7.38811 54.8788 8.41886C55.274 8.93126 55.5491 9.52609 55.6839 10.1594C55.8186 10.7927 55.8096 11.4482 55.6573 12.0775H55.6525Z" fill="#E12D2D"/>
</svg>
