<svg width="82" height="82" viewBox="0 0 78 82" fill="none" xmlns="http://www.w3.org/2000/svg">
<g id="youtube_subscribe_Mesa_de_trabajo_1-02 1">
<path id="Vector" d="M65.8595 59.9937C65.7716 59.1807 65.5229 58.3933 65.1278 57.6775C64.7326 56.9616 64.199 56.3315 63.5579 55.8239C61.7763 54.4275 58.8103 51.5288 58.348 47.542C57.6739 41.764 59.311 21.1653 42.4103 18.7577C42.3417 18.2098 42.3977 17.6535 42.574 17.1303C42.787 16.5253 42.8655 15.8812 42.804 15.2429C42.7426 14.6045 42.5427 13.9872 42.2182 13.434C41.8937 12.8808 41.4525 12.4051 40.9254 12.0399C40.3982 11.6747 39.7977 11.4288 39.1658 11.3195C38.5338 11.2101 37.8857 11.2399 37.2664 11.4067C36.6472 11.5736 36.0718 11.8734 35.5803 12.2854C35.0888 12.6974 34.6931 13.2117 34.4207 13.7923C34.1484 14.3729 34.0059 15.0059 34.0032 15.6472C34.001 16.1767 34.0957 16.7022 34.2825 17.1977C34.4526 17.7191 34.5019 18.2723 34.427 18.8155C17.6899 21.3193 19.2596 41.8025 18.6144 47.5324C18.1425 51.5192 15.1861 54.4179 13.4045 55.8142C12.7521 56.3164 12.2083 56.9457 11.806 57.6641C11.4038 58.3824 11.1515 59.175 11.0644 59.9937C10.6407 64.3368 15.6676 63.8457 15.6676 63.8457H61.2563C61.2563 63.8457 66.2736 64.3368 65.8595 59.9937Z" fill="#E12D43"/>
<path id="Vector_2" d="M38.4625 72.9173C40.2436 72.9175 41.9667 72.284 43.3235 71.1302C44.6803 69.9763 45.5822 68.3773 45.868 66.6193H31.0474C31.3353 68.3781 32.2392 69.9772 33.5975 71.131C34.9559 72.2847 36.6803 72.9179 38.4625 72.9173Z" fill="#E12D43"/>
</g>
</svg>
