<svg width="63" height="55" viewBox="0 0 63 55" fill="none" xmlns="http://www.w3.org/2000/svg">
<g id="Group 48095984">
<path id="Vector" d="M11.3949 17.4435H24.5697L53.4051 5.63106L52.0092 2.22125C51.6493 1.34328 50.9555 0.644179 50.0803 0.277689C49.2051 -0.0888004 48.2202 -0.0926681 47.3421 0.266937L3.18117 18.3629C2.30327 18.7226 1.60418 19.4162 1.23768 20.2913C0.871176 21.1663 0.867284 22.1512 1.22686 23.0291L2.62279 26.4389L6.8106 24.7228V22.024C6.81257 20.8091 7.29631 19.6446 8.1557 18.7859C9.0151 17.9273 10.18 17.4445 11.3949 17.4435Z" fill="#E12D2D"/>
<path id="Vector_2" d="M6.81209 36.6555V30.6912L4.71912 31.5492L6.81209 36.6555Z" fill="#E12D2D"/>
<path id="Vector_3" d="M58.2488 17.4436L55.5007 10.7375L39.1366 17.4436H58.2488Z" fill="#E12D2D"/>
<path id="Vector_4" d="M59.1187 18.4495H11.3944C10.4458 18.4498 9.53611 18.8268 8.86544 19.4976C8.19476 20.1685 7.81799 21.0782 7.81799 22.0268V51.0558C7.81824 52.0045 8.19521 52.9143 8.86604 53.5851C9.53686 54.2559 10.4466 54.6329 11.3953 54.6331H59.1187C59.5885 54.6333 60.0537 54.5408 60.4878 54.3611C60.9219 54.1814 61.3163 53.9179 61.6485 53.5856C61.9807 53.2534 62.2442 52.859 62.4239 52.4249C62.6037 51.9909 62.6961 51.5256 62.696 51.0558V22.0268C62.6961 21.557 62.6037 21.0918 62.4239 20.6577C62.2442 20.2236 61.9807 19.8292 61.6485 19.497C61.3163 19.1648 60.9219 18.9013 60.4878 18.7216C60.0537 18.5418 59.5885 18.4494 59.1187 18.4495ZM23.2301 32.2935C23.2301 32.6933 23.0712 33.0768 22.7885 33.3595C22.5058 33.6423 22.1223 33.8011 21.7225 33.8011H13.4306C13.0307 33.8011 12.6473 33.6423 12.3645 33.3595C12.0818 33.0768 11.923 32.6933 11.923 32.2935V26.7153C11.923 26.5174 11.962 26.3213 12.0377 26.1384C12.1135 25.9555 12.2246 25.7893 12.3645 25.6493C12.5045 25.5093 12.6707 25.3982 12.8537 25.3225C13.0366 25.2467 13.2326 25.2077 13.4306 25.2077H21.7225C21.9204 25.2077 22.1165 25.2467 22.2994 25.3225C22.4823 25.3982 22.6485 25.5093 22.7885 25.6493C22.9285 25.7893 23.0395 25.9555 23.1153 26.1384C23.1911 26.3213 23.2301 26.5174 23.2301 26.7153V32.2935Z" fill="#E12D2D"/>
</g>
</svg>
