<svg width="35" height="42" viewBox="0 0 35 42" fill="none" xmlns="http://www.w3.org/2000/svg">
<path d="M15.4751 15.1316C15.4751 14.5793 15.9228 14.1316 16.4751 14.1316H19.3331C19.8854 14.1316 20.3331 14.5793 20.3331 15.1316V18.0119C20.3331 18.5642 19.8854 19.0119 19.3331 19.0119H16.4751C15.9228 19.0119 15.4751 18.5642 15.4751 18.0119V15.1316Z" fill="white"/>
<path d="M7.60608 15.1316C7.60608 14.5793 8.05379 14.1316 8.60608 14.1316H11.4641C12.0164 14.1316 12.4641 14.5793 12.4641 15.1316V18.0119C12.4641 18.5642 12.0164 19.0119 11.4641 19.0119H8.60608C8.05379 19.0119 7.60608 18.5642 7.60608 18.0119V15.1316Z" fill="white"/>
<path d="M23.3499 15.1316C23.3499 14.5793 23.7976 14.1316 24.3499 14.1316H27.2079C27.7601 14.1316 28.2079 14.5793 28.2079 15.1316V18.0119C28.2079 18.5642 27.7601 19.0119 27.2079 19.0119H24.3499C23.7976 19.0119 23.3499 18.5642 23.3499 18.0119V15.1316Z" fill="white"/>
<path d="M15.4751 23.0378C15.4751 22.4855 15.9228 22.0378 16.4751 22.0378H19.3331C19.8854 22.0378 20.3331 22.4855 20.3331 23.0378V25.9181C20.3331 26.4704 19.8854 26.9181 19.3331 26.9181H16.4751C15.9228 26.9181 15.4751 26.4704 15.4751 25.9181V23.0378Z" fill="white"/>
<path d="M23.4122 23.0378C23.4122 22.4855 23.8599 22.0378 24.4122 22.0378H27.2702C27.8225 22.0378 28.2702 22.4855 28.2702 23.0378V25.9181C28.2702 26.4704 27.8225 26.9181 27.2702 26.9181H24.4122C23.8599 26.9181 23.4122 26.4704 23.4122 25.9181V23.0378Z" fill="white"/>
<path d="M7.60608 23.0378C7.60608 22.4855 8.05379 22.0378 8.60608 22.0378H11.4641C12.0164 22.0378 12.4641 22.4855 12.4641 23.0378V25.9181C12.4641 26.4704 12.0164 26.9181 11.4641 26.9181H8.60608C8.05379 26.9181 7.60608 26.4704 7.60608 25.9181V23.0378Z" fill="white"/>
<path d="M34.9047 15.1369L31.3254 18.7349L30.0497 20.0172V34.6666C30.0497 35.7711 29.1543 36.6666 28.0497 36.6666H7.76281C6.65824 36.6666 5.76281 35.7712 5.76281 34.6666V14.2804C5.76281 13.1758 6.65824 12.2804 7.76281 12.2804H28.0497C29.1543 12.2804 30.0497 13.1758 30.0497 14.2804V20.0172L34.9047 15.1369V2C34.9047 0.89543 34.0092 0 32.9047 0H2.74329C1.63872 0 0.743286 0.895431 0.743286 2V39.6387C0.743286 40.7433 1.63872 41.6387 2.74329 41.6387H32.9047C34.0092 41.6387 34.9047 40.7433 34.9047 39.6387V15.1369ZM8.19181 6.10191C8.19181 5.42555 8.74011 4.87724 9.41647 4.87724H26.3961C27.0724 4.87724 27.6207 5.42555 27.6207 6.10191C27.6207 6.77828 27.0724 7.32658 26.3961 7.32658H9.41647C8.74011 7.32658 8.19181 6.77828 8.19181 6.10191Z" fill="white"/>
<path d="M7.60608 30.9445C7.60608 30.3922 8.05379 29.9445 8.60608 29.9445H11.4641C12.0164 29.9445 12.4641 30.3922 12.4641 30.9445V33.8217C12.4641 34.374 12.0164 34.8217 11.4641 34.8217H8.60608C8.05379 34.8217 7.60608 34.374 7.60608 33.8217V30.9445Z" fill="white"/>
<path d="M15.4751 30.9445C15.4751 30.3922 15.9228 29.9445 16.4751 29.9445H19.3331C19.8854 29.9445 20.3331 30.3922 20.3331 30.9445V33.8217C20.3331 34.374 19.8854 34.8217 19.3331 34.8217H16.4751C15.9228 34.8217 15.4751 34.374 15.4751 33.8217V30.9445Z" fill="white"/>
<path d="M23.4122 30.9445C23.4122 30.3922 23.8599 29.9445 24.4122 29.9445H27.2702C27.8225 29.9445 28.2702 30.3922 28.2702 30.9445V33.8217C28.2702 34.374 27.8225 34.8217 27.2702 34.8217H24.4122C23.8599 34.8217 23.4122 34.374 23.4122 33.8217V30.9445Z" fill="white"/>
</svg>
