<svg width="44" height="39" viewBox="0 0 44 39" fill="none" xmlns="http://www.w3.org/2000/svg">
<path d="M7.37891 12.3349H16.6953L37.0859 3.98193L36.0988 1.57073C35.8444 0.949884 35.3537 0.455523 34.7348 0.196364C34.1159 -0.0627941 33.4195 -0.0655291 32.7985 0.188761L1.5707 12.9851C0.949901 13.2394 0.455548 13.7299 0.196383 14.3487C-0.0627832 14.9675 -0.0655352 15.6639 0.188731 16.2847L1.17585 18.6959L4.13721 17.4824V15.574C4.1386 14.7149 4.48067 13.8915 5.08838 13.2842C5.69609 12.677 6.51982 12.3356 7.37891 12.3349Z" fill="white"/>
<path d="M4.13853 25.9203V21.7026L2.65851 22.3094L4.13853 25.9203Z" fill="white"/>
<path d="M40.5106 12.335L38.5673 7.5929L26.9956 12.335H40.5106Z" fill="white"/>
<path d="M41.1265 13.0463H7.37885C6.70806 13.0465 6.0648 13.3131 5.59054 13.7875C5.11628 14.2619 4.84985 14.9052 4.84985 15.576V36.1035C4.85003 36.7743 5.1166 37.4176 5.59097 37.892C6.06533 38.3664 6.70866 38.6329 7.37951 38.6331H41.1265C41.4587 38.6332 41.7877 38.5678 42.0946 38.4407C42.4016 38.3136 42.6805 38.1273 42.9154 37.8924C43.1503 37.6575 43.3367 37.3786 43.4638 37.0716C43.5909 36.7647 43.6562 36.4357 43.6561 36.1035V15.576C43.6562 15.2438 43.5909 14.9148 43.4638 14.6078C43.3367 14.3009 43.1503 14.022 42.9154 13.7871C42.6805 13.5521 42.4016 13.3658 42.0946 13.2387C41.7877 13.1116 41.4587 13.0462 41.1265 13.0463ZM15.7483 22.8359C15.7483 23.1187 15.636 23.3898 15.4361 23.5898C15.2361 23.7897 14.965 23.902 14.6822 23.902H8.81873C8.53599 23.902 8.26482 23.7897 8.06489 23.5898C7.86496 23.3898 7.75264 23.1187 7.75264 22.8359V18.8914C7.75264 18.7514 7.78022 18.6128 7.83379 18.4834C7.88737 18.3541 7.9659 18.2365 8.06489 18.1375C8.16389 18.0386 8.28141 17.96 8.41076 17.9064C8.5401 17.8529 8.67873 17.8253 8.81873 17.8253H14.6822C14.8222 17.8253 14.9608 17.8529 15.0902 17.9064C15.2195 17.96 15.3371 18.0386 15.4361 18.1375C15.5351 18.2365 15.6136 18.3541 15.6672 18.4834C15.7207 18.6128 15.7483 18.7514 15.7483 18.8914V22.8359Z" fill="white"/>
</svg>
