<svg width="47" height="48" viewBox="0 0 47 48" fill="none" xmlns="http://www.w3.org/2000/svg">
<path id="icon" d="M45.7779 5.29611C45.2237 4.587 44.5155 4.01488 43.7076 3.62353C42.8998 3.23219 42.0136 3.03199 41.117 3.03828H39.0799C39.1076 2.45078 39.1286 2.08984 39.1429 1.6041C39.1489 1.39577 39.1133 1.18834 39.0382 0.994084C38.9631 0.799829 38.8501 0.622688 38.7058 0.473137C38.5616 0.323587 38.3889 0.204662 38.1982 0.123395C38.0074 0.0421283 37.8024 0.00016937 37.5952 0H9.42143C9.21423 3.72534e-05 9.00916 0.0419063 8.81834 0.123127C8.62752 0.204348 8.45484 0.323268 8.31053 0.472846C8.16622 0.622424 8.05321 0.799617 7.97819 0.993932C7.90318 1.18825 7.86768 1.39573 7.87381 1.6041C7.88812 2.08984 7.90912 2.45078 7.93583 3.03828H5.89779C5.00124 3.03218 4.11519 3.23256 3.30748 3.62408C2.49976 4.01559 1.7918 4.58786 1.23777 5.29707C0.692034 5.99654 0.312393 6.81224 0.127847 7.68187C-0.0566995 8.55151 -0.0412705 9.45207 0.172955 10.3148L0.233065 10.5375C2.18333 18.1721 7.77076 23.6957 13.5099 23.6957C13.7653 23.6946 14.0204 23.6756 14.2732 23.6391C15.631 25.4093 17.3073 26.9072 19.2147 28.0549V30.4413C19.2147 30.7469 19.3353 31.0399 19.5501 31.2559C19.7648 31.4719 20.056 31.5933 20.3597 31.5933H21.0276V36.7579H20.3597C20.056 36.7579 19.7648 36.8793 19.5501 37.0953C19.3353 37.3113 19.2147 37.6043 19.2147 37.9098V41.0105H17.9944C17.6907 41.0105 17.3995 41.1319 17.1848 41.3479C16.97 41.564 16.8494 41.857 16.8494 42.1625V44.3521H14.881C14.5773 44.3521 14.2861 44.4735 14.0714 44.6896C13.8567 44.9056 13.736 45.1986 13.736 45.5041V48H32.4687V45.5041C32.4687 45.1986 32.348 44.9056 32.1333 44.6896C31.9186 44.4735 31.6274 44.3521 31.3237 44.3521H29.3858V42.1634C29.3858 41.8579 29.2652 41.5649 29.0505 41.3489C28.8358 41.1328 28.5445 41.0115 28.2409 41.0115H27.0673V37.9108C27.0673 37.6053 26.9466 37.3123 26.7319 37.0963C26.5172 36.8802 26.226 36.7589 25.9223 36.7589H25.2544V31.5933H25.9223C26.226 31.5933 26.5172 31.4719 26.7319 31.2559C26.9466 31.0399 27.0673 30.7469 27.0673 30.4413V28.0568C29.1807 27.1708 30.839 25.6569 32.3761 23.641C32.7248 23.6776 33.0751 23.6965 33.4257 23.6976C39.1686 23.6976 44.7914 18.1567 46.7416 10.5241C46.7617 10.4434 46.8017 10.3964 46.8208 10.3157C47.0388 9.45443 47.0582 8.55437 46.8774 7.68437C46.6967 6.81437 46.3206 5.99746 45.7779 5.29611ZM2.73291 9.87705L2.67948 9.66201C2.55768 9.15885 2.54984 8.63459 2.65652 8.12796C2.76321 7.62134 2.98171 7.14532 3.29585 6.73509C3.93799 5.91048 4.90358 5.37579 5.94359 5.37579H8.1486C8.78979 11.5195 10.4509 16.9136 12.7857 20.9944C8.51118 20.5125 4.27957 15.9306 2.73291 9.87705ZM44.3334 9.66201C44.3162 9.73209 44.299 9.80217 44.2799 9.87513C42.7333 15.9306 38.5017 20.5134 34.23 20.9953C36.5657 16.9136 38.2269 11.5195 38.8681 5.37579H41.0693C42.1093 5.37579 43.073 5.91048 43.717 6.73509C44.0318 7.145 44.251 7.62087 44.3583 8.12751C44.4657 8.63414 44.4585 9.15857 44.3372 9.66201H44.3334Z" fill="white"/>
</svg>
