<svg width="427" height="427" viewBox="0 0 427 427" fill="none" xmlns="http://www.w3.org/2000/svg">
<path d="M333.968 371.647C335.284 375.13 316.959 385.272 293.047 394.303C269.135 403.334 248.674 407.824 247.358 404.358L237.679 371.867L319.752 340.885L333.968 371.647Z" fill="#FEC74E"/>
<path opacity="0.07" d="M293.043 394.303C272.96 401.889 255.325 406.28 249.4 405.429C257.88 403.878 270.448 400.192 284.148 395.014C308.063 385.983 326.388 375.842 325.068 372.362L311.903 343.835L319.752 340.885L333.986 371.668C335.284 375.13 316.959 385.271 293.043 394.303Z" fill="black"/>
<path d="M281.094 362.66C303.759 354.1 321.067 344.341 319.753 340.863C318.44 337.385 299.001 341.504 276.337 350.063C253.672 358.623 236.364 368.382 237.677 371.86C238.991 375.339 258.429 371.22 281.094 362.66Z" fill="#FEC74E"/>
<path opacity="0.23" d="M281.094 362.66C303.759 354.1 321.067 344.341 319.753 340.863C318.44 337.385 299.001 341.504 276.337 350.063C253.672 358.623 236.364 368.382 237.677 371.86C238.991 375.339 258.429 371.22 281.094 362.66Z" fill="white"/>
<path d="M310.333 344.422L308.646 339.956C307.988 338.213 306.156 337.298 304.519 337.914L304.622 337.874C303.049 333.711 298.608 331.441 294.659 332.939C289.584 334.836 283.841 331.989 281.813 326.587L261.452 272.714C259.762 268.241 263.21 265.818 263.79 265.149C264.584 264.242 264.075 263.448 263.192 261.114L229.562 273.817C230.445 276.152 230.584 277.08 231.779 277.237C232.658 277.354 236.846 276.881 238.54 281.372L258.933 335.234C260.972 340.629 258.577 346.571 253.507 348.482C249.543 349.98 247.71 354.616 249.283 358.78L249.386 358.741C247.756 359.356 246.981 361.26 247.639 363.011L249.325 367.476C250.037 369.405 264.306 365.811 281.158 359.449C298.011 353.086 311.08 346.358 310.337 344.429L310.333 344.422Z" fill="#FEC74E"/>
<path d="M301.203 166.811C290.211 197.52 283.92 216.219 288.923 223.246C290.399 222.294 292.146 221.851 293.898 221.986C295.649 222.12 297.308 222.825 298.622 223.991C299.935 225.158 300.831 226.722 301.171 228.445C301.512 230.169 301.279 231.956 300.508 233.534C299.736 235.113 298.47 236.395 296.901 237.186C295.332 237.976 293.548 238.231 291.821 237.912C290.093 237.593 288.518 236.717 287.335 235.418C286.153 234.119 285.428 232.469 285.272 230.719C282.539 228.593 280.648 225.567 279.934 222.179C275.96 211.66 289.809 175.426 293.812 164.206C300.334 145.97 311.924 107.366 292.542 105.611C280.756 104.544 274.341 119.471 272.138 125.894C271.551 127.613 271.256 128.741 271.245 128.78L263.648 126.865C264.848 122.465 266.544 118.215 268.704 114.198C273.202 105.864 280.988 96.6942 293.257 97.7866C320.681 100.245 310.44 140.999 301.203 166.811Z" fill="#FEC74E"/>
<path opacity="0.07" d="M300.797 227.164C301.429 228.833 301.488 230.664 300.965 232.37C300.442 234.076 299.366 235.56 297.908 236.587C296.449 237.615 294.69 238.128 292.907 238.046C291.124 237.964 289.42 237.292 288.062 236.135C289.446 236.336 290.86 236.172 292.162 235.66C293.465 235.148 294.611 234.305 295.489 233.215C296.366 232.124 296.944 230.824 297.165 229.442C297.386 228.061 297.244 226.645 296.751 225.335C296.271 224.061 295.476 222.929 294.442 222.044C295.862 222.251 297.2 222.836 298.318 223.736C299.436 224.637 300.292 225.82 300.797 227.164Z" fill="black"/>
<path d="M266.313 106.835C278.28 141.999 286.24 185.727 279.924 222.125C264.246 315.119 173.96 277.208 125.257 160.121L266.313 106.835Z" fill="#FEC74E"/>
<path d="M266.313 106.835C265.356 104.309 232.651 114.308 193.826 128.979C155.001 143.65 124.303 157.577 125.257 160.121C126.211 162.666 158.46 152.813 197.285 138.149C236.11 123.485 267.267 109.365 266.313 106.835Z" fill="#F7DC6F"/>
<path d="M261.968 108.476C261.15 106.309 230.52 115.87 194.086 129.63C157.652 143.39 128.784 156.3 129.602 158.453C130.42 160.605 160.62 151.222 197.05 137.458C233.48 123.695 262.787 110.661 261.968 108.476Z" fill="#EDBC08"/>
<path opacity="0.61" d="M166.206 183.606L150.432 189.56C143.689 177.65 139.814 168.886 137.355 163.701C141.931 162.53 147.504 160.887 153.688 158.922C155.208 162.096 159.332 171.437 166.206 183.606Z" fill="white"/>
<path d="M138.726 228.171C114.728 214.92 80.0984 191.097 99.0572 171.117C113.92 155.46 139.402 172.633 140.48 173.369L136.046 179.835C135.836 179.689 115.052 165.64 104.733 176.511C91.3783 190.595 125.414 211.86 142.515 221.325C178.148 241.02 195.552 251.357 192.912 265.591C193.954 267.004 194.505 268.72 194.48 270.477C194.455 272.233 193.855 273.933 192.772 275.316C191.69 276.699 190.184 277.689 188.485 278.136C186.786 278.582 184.988 278.46 183.365 277.787C181.743 277.115 180.385 275.929 179.5 274.412C178.614 272.895 178.25 271.13 178.463 269.386C178.676 267.643 179.455 266.017 180.679 264.758C181.904 263.498 183.507 262.675 185.244 262.413C184.35 253.823 167.27 243.949 138.726 228.171Z" fill="#FEC74E"/>
<path opacity="0.07" d="M193.969 267.512C194.61 269.192 194.669 271.038 194.137 272.756C193.606 274.474 192.514 275.964 191.036 276.988C189.558 278.012 187.78 278.511 185.985 278.406C184.19 278.301 182.482 277.598 181.134 276.408C184.379 276.006 192.392 274.148 192.912 265.598C193.35 266.185 193.705 266.829 193.969 267.512Z" fill="black"/>
<path opacity="0.61" d="M218.912 251.596C208.949 251.389 197.641 246.073 186.197 236.202C174.842 226.417 163.886 212.685 154.069 196.214L168.886 190.62C177.447 207.163 186.147 220.969 197.907 233.245C204.383 239.939 211.41 246.077 218.912 251.596Z" fill="white"/>
<path opacity="0.07" d="M279.927 222.136C272.281 267.498 246.878 281.71 217.212 270.786C239.679 267.96 258.094 248.169 263.623 206.131C266.032 179.422 261.243 147.18 249.287 116.774C260.264 111.7 266.758 108.024 266.313 106.85C278.28 141.999 286.219 185.742 279.927 222.136Z" fill="black"/>
<path opacity="0.07" d="M305.355 348.638C305.313 348.525 304.32 345.884 303.576 343.945C287.564 353.097 249.571 365.914 247.572 362.865C247.283 362.024 247.328 361.104 247.696 360.295C254.724 360.651 283.963 350.606 299.755 342.408L298.865 340.045C297.292 335.882 292.855 333.612 288.902 335.11C283.842 337.02 278.113 334.152 276.074 328.758L260.698 288.086C258.528 288.193 256.56 288.047 255.162 287.613C255.162 287.613 251.959 291.388 248.571 292.175C247.984 293.897 245.593 298.58 247.621 305.063L248.08 306.54C248.016 306.376 247.198 304.213 238.562 281.365C236.872 276.888 232.684 277.347 231.801 277.23C230.623 277.073 230.47 276.162 229.616 273.899C242.658 275.589 254.375 271.704 263.42 261.655C264.164 263.576 264.534 264.309 263.805 265.142C263.221 265.815 259.777 268.238 261.467 272.711L281.824 326.584C283.842 331.989 289.585 334.836 294.641 332.939C298.609 331.441 303.05 333.708 304.626 337.874L304.519 337.917C304.853 337.79 305.208 337.724 305.565 337.725C305.988 337.726 306.405 337.813 306.793 337.981C308.49 338.693 308.658 339.981 310.33 344.422C310.757 345.55 306.416 348.033 305.355 348.638Z" fill="black"/>
<path d="M196.16 99.6761L210.568 103.558L196.16 107.437L192.282 121.844L188.403 107.437L173.996 103.558L188.403 99.6761L192.282 85.2684L196.16 99.6761Z" fill="#FEC74E"/>
<path d="M213.365 46.5466L223.756 49.3434L213.365 52.1403L210.568 62.527L207.772 52.1403L197.385 49.3434L207.772 46.5466L210.568 36.1598L213.365 46.5466Z" fill="#FEC74E"/>
<path d="M237.74 77.4329L251.076 81.0232L237.74 84.6136L234.149 97.9502L230.559 84.6136L217.222 81.0232L230.559 77.4329L234.149 64.0963L237.74 77.4329Z" fill="#FEC74E"/>
<path d="M82.2864 353.876L96.6941 357.758L82.2864 361.637L78.4078 376.045L74.5293 361.637L60.1216 357.758L74.5293 353.876L78.4078 339.469L82.2864 353.876Z" fill="#FEC74E"/>
<path d="M99.4912 300.747L109.882 303.544L99.4912 306.34L96.6944 316.727L93.8975 306.34L83.5107 303.544L93.8975 300.747L96.6944 290.36L99.4912 300.747Z" fill="#FEC74E"/>
<path d="M123.865 331.633L137.202 335.223L123.865 338.814L120.275 352.15L116.685 338.814L103.348 335.223L116.685 331.633L120.275 318.296L123.865 331.633Z" fill="#FEC74E"/>
</svg>
