<svg width="325" height="271" viewBox="0 0 325 271" fill="none" xmlns="http://www.w3.org/2000/svg">
<g filter="url(#filter0_b_1_187)">
<path d="M27.6327 2H297.45C311.615 2 323.083 13.4735 323.083 27.6466V243.618C323.083 257.791 311.615 269.266 297.45 269.266H27.6327C13.4673 269.266 2 257.791 2 243.618V27.6466C2 13.4735 13.4673 2 27.6327 2Z" fill="#FEC74E"/>
<path d="M27.6327 2H297.45C311.615 2 323.083 13.4735 323.083 27.6466V243.618C323.083 257.791 311.615 269.266 297.45 269.266H27.6327C13.4673 269.266 2 257.791 2 243.618V27.6466C2 13.4735 13.4673 2 27.6327 2Z" stroke="#B79147" stroke-width="3"/>
</g>
<path d="M159.888 243.756C161.488 243.756 162.656 242.684 162.656 241.196C162.656 239.708 161.488 238.652 159.888 238.652C158.288 238.652 157.12 239.708 157.12 241.196C157.12 242.684 158.288 243.756 159.888 243.756ZM154.368 247.82L147.152 238.732H146.176V249.932H147.36V240.844L154.56 249.932H155.536V238.732H154.368V247.82ZM159.888 239.356C161.024 239.356 161.824 240.108 161.824 241.196C161.824 242.3 161.024 243.036 159.888 243.036C158.752 243.036 157.952 242.3 157.952 241.196C157.952 240.108 158.752 239.356 159.888 239.356ZM157.44 245.932H162.336V245.132H157.44V245.932ZM172.062 238.636C169.886 238.636 168.238 239.98 168.238 242.076C168.238 244.124 169.79 245.436 172.014 245.436C173.566 245.436 174.878 244.748 175.438 243.516C175.47 243.852 175.486 244.172 175.486 244.428C175.486 247.468 173.934 249.02 171.518 249.02C170.686 249.02 169.918 248.876 169.342 248.492L168.878 249.42C169.582 249.852 170.526 250.028 171.534 250.028C174.574 250.028 176.654 248.044 176.654 244.236C176.654 240.7 175.038 238.636 172.062 238.636ZM172.19 244.46C170.462 244.46 169.374 243.516 169.374 242.044C169.374 240.556 170.494 239.612 172.11 239.612C174.046 239.612 175.07 240.78 175.07 242.012C175.07 243.404 173.902 244.46 172.19 244.46ZM181.812 238.636C179.636 238.636 177.988 239.98 177.988 242.076C177.988 244.124 179.54 245.436 181.764 245.436C183.316 245.436 184.628 244.748 185.188 243.516C185.22 243.852 185.236 244.172 185.236 244.428C185.236 247.468 183.684 249.02 181.268 249.02C180.436 249.02 179.668 248.876 179.092 248.492L178.628 249.42C179.332 249.852 180.276 250.028 181.284 250.028C184.324 250.028 186.404 248.044 186.404 244.236C186.404 240.7 184.788 238.636 181.812 238.636ZM181.94 244.46C180.212 244.46 179.124 243.516 179.124 242.044C179.124 240.556 180.244 239.612 181.86 239.612C183.796 239.612 184.82 240.78 184.82 242.012C184.82 243.404 183.652 244.46 181.94 244.46ZM191.562 238.636C189.386 238.636 187.738 239.98 187.738 242.076C187.738 244.124 189.29 245.436 191.514 245.436C193.066 245.436 194.378 244.748 194.938 243.516C194.97 243.852 194.986 244.172 194.986 244.428C194.986 247.468 193.434 249.02 191.018 249.02C190.186 249.02 189.418 248.876 188.842 248.492L188.378 249.42C189.082 249.852 190.026 250.028 191.034 250.028C194.074 250.028 196.154 248.044 196.154 244.236C196.154 240.7 194.538 238.636 191.562 238.636ZM191.69 244.46C189.962 244.46 188.874 243.516 188.874 242.044C188.874 240.556 189.994 239.612 191.61 239.612C193.546 239.612 194.57 240.78 194.57 242.012C194.57 243.404 193.402 244.46 191.69 244.46ZM200.768 243.324H199.328L199.712 239.756H204.832V238.732H198.704L198.128 244.348H200.512C203.36 244.348 204.256 245.244 204.256 246.684C204.256 248.044 203.248 248.972 201.344 248.972C199.904 248.972 198.624 248.428 197.904 247.676L197.344 248.588C198.208 249.468 199.744 250.028 201.36 250.028C204.096 250.028 205.424 248.54 205.424 246.636C205.424 244.652 204.144 243.324 200.768 243.324ZM214.882 243.532L218.05 239.548V238.732H210.85V239.756H216.578L213.474 243.644V244.492H214.274C216.354 244.492 217.298 245.372 217.298 246.716C217.298 248.108 216.274 248.972 214.418 248.972C212.962 248.972 211.666 248.428 210.946 247.676L210.386 248.588C211.25 249.468 212.802 250.028 214.418 250.028C217.122 250.028 218.482 248.588 218.482 246.716C218.482 244.924 217.282 243.66 214.882 243.532ZM223.594 238.636C221.418 238.636 219.77 239.98 219.77 242.076C219.77 244.124 221.322 245.436 223.546 245.436C225.098 245.436 226.41 244.748 226.97 243.516C227.002 243.852 227.018 244.172 227.018 244.428C227.018 247.468 225.466 249.02 223.05 249.02C222.218 249.02 221.45 248.876 220.874 248.492L220.41 249.42C221.114 249.852 222.058 250.028 223.066 250.028C226.106 250.028 228.186 248.044 228.186 244.236C228.186 240.7 226.57 238.636 223.594 238.636ZM223.722 244.46C221.994 244.46 220.906 243.516 220.906 242.044C220.906 240.556 222.026 239.612 223.642 239.612C225.578 239.612 226.602 240.78 226.602 242.012C226.602 243.404 225.434 244.46 223.722 244.46ZM229.136 238.732V239.756H231.776V249.932H232.928V238.732H229.136ZM239.414 243.532L242.582 239.548V238.732H235.382V239.756H241.11L238.006 243.644V244.492H238.806C240.886 244.492 241.83 245.372 241.83 246.716C241.83 248.108 240.806 248.972 238.95 248.972C237.494 248.972 236.198 248.428 235.478 247.676L234.918 248.588C235.782 249.468 237.334 250.028 238.95 250.028C241.654 250.028 243.014 248.588 243.014 246.716C243.014 244.924 241.814 243.66 239.414 243.532ZM251.768 243.324H250.328L250.712 239.756H255.832V238.732H249.704L249.128 244.348H251.512C254.36 244.348 255.256 245.244 255.256 246.684C255.256 248.044 254.248 248.972 252.344 248.972C250.904 248.972 249.624 248.428 248.904 247.676L248.344 248.588C249.208 249.468 250.744 250.028 252.36 250.028C255.096 250.028 256.424 248.54 256.424 246.636C256.424 244.652 255.144 243.324 251.768 243.324ZM262.527 243.228C260.975 243.228 259.663 243.916 259.103 245.148C259.071 244.812 259.055 244.492 259.055 244.236C259.055 241.196 260.607 239.644 263.023 239.644C263.855 239.644 264.623 239.788 265.199 240.172L265.663 239.244C264.959 238.812 264.015 238.636 263.007 238.636C259.967 238.636 257.887 240.62 257.887 244.428C257.887 247.964 259.503 250.028 262.479 250.028C264.655 250.028 266.303 248.684 266.303 246.588C266.303 244.54 264.751 243.228 262.527 243.228ZM262.431 249.052C260.495 249.052 259.471 247.884 259.471 246.652C259.471 245.26 260.639 244.204 262.351 244.204C264.079 244.204 265.167 245.148 265.167 246.62C265.167 248.108 264.047 249.052 262.431 249.052ZM277.157 245.964H274.917V243.372H273.797V245.964H268.933L274.661 238.732H273.381L267.445 246.156V246.988H273.765V249.932H274.917V246.988H277.157V245.964ZM281.096 243.324H279.656L280.04 239.756H285.16V238.732H279.032L278.456 244.348H280.84C283.688 244.348 284.584 245.244 284.584 246.684C284.584 248.044 283.576 248.972 281.672 248.972C280.232 248.972 278.952 248.428 278.232 247.676L277.672 248.588C278.536 249.468 280.072 250.028 281.688 250.028C284.424 250.028 285.752 248.54 285.752 246.636C285.752 244.652 284.472 243.324 281.096 243.324Z" fill="#B79147"/>
<path d="M256.961 22.9208V48.8375M284.618 49.1073H256.961V75.0241M284.618 75.2939H256.961V101.211M256.961 101.211L256.692 75.2939H229.036V101.211H256.961ZM33.4181 39.5236C33.4181 36.554 33.4181 34.2593 33.553 32.5045C33.688 30.7498 33.9577 29.5349 34.4973 28.4551C35.4418 26.5653 37.0606 24.9456 38.9494 24.0006C40.0286 23.4607 41.2428 23.1908 42.9966 23.0558C44.7504 22.9208 47.0438 22.9208 50.0118 22.9208H61.0745V48.8375H33.4181V39.5236ZM173.184 22.9208H200.84V48.8375H173.184V22.9208ZM61.3442 22.9208H89.0006V48.8375H61.3442V22.9208ZM201.11 22.9208H228.766V48.8375H201.11V22.9208ZM89.2703 22.9208H116.927V48.8375H89.2703V22.9208ZM229.036 22.9208H256.692V48.8375H229.036V22.9208ZM117.331 22.9208H144.988V48.8375H117.331V22.9208ZM145.258 22.9208H172.914V48.8375H145.258V22.9208ZM33.4181 49.1073H61.0745V75.0241H33.4181V49.1073ZM173.184 49.1073H200.84V75.0241H173.184V49.1073ZM61.3442 49.1073H89.0006V75.0241H61.3442V49.1073ZM201.11 49.1073H228.766V75.0241H201.11V49.1073ZM89.2703 49.1073H116.927V75.0241H89.2703V49.1073ZM229.036 49.1073H256.692V75.0241H229.036V49.1073ZM117.331 49.1073H144.988V75.0241H117.331V49.1073ZM145.258 49.1073H172.914V75.0241H145.258V49.1073ZM33.4181 75.2939H61.0745V101.211H33.4181V75.2939ZM173.184 75.2939H200.84V101.211H173.184V75.2939ZM61.3442 75.2939H89.0006V101.211H61.3442V75.2939ZM201.11 75.2939H228.766V101.211H201.11V75.2939ZM89.2703 75.2939H116.927V101.211H89.2703V75.2939ZM117.331 75.2939H144.988V101.211H117.331V75.2939ZM145.258 75.2939H172.914V101.211H145.258V75.2939Z" stroke="white" stroke-opacity="0.59" stroke-width="2.21552"/>
<path d="M46.4133 34.9945C47.0888 35.0781 47.6041 35.3079 47.9592 35.6839C48.3144 36.06 48.492 36.5301 48.492 37.0941C48.492 37.5189 48.384 37.9054 48.1682 38.2536C47.9523 38.6018 47.625 38.8804 47.1862 39.0893C46.7545 39.2913 46.2252 39.3922 45.5985 39.3922C45.0762 39.3922 44.5713 39.3191 44.0838 39.1729C43.6033 39.0197 43.1924 38.8108 42.8512 38.5461L43.4362 37.4911C43.7008 37.7139 44.0211 37.8915 44.3972 38.0238C44.7802 38.1492 45.1737 38.2119 45.5776 38.2119C46.0581 38.2119 46.4341 38.1144 46.7057 37.9194C46.9843 37.7174 47.1236 37.4458 47.1236 37.1046C47.1236 36.7634 46.9913 36.4987 46.7266 36.3107C46.469 36.1157 46.072 36.0182 45.5358 36.0182H44.8673V35.0885L46.5282 33.1143H43.2064V31.9756H48.1891V32.8844L46.4133 34.9945Z" fill="#B79147"/>
<path d="M48.0431 60.7024C48.4262 60.8765 48.7186 61.1133 48.9206 61.4127C49.1295 61.7052 49.234 62.0499 49.234 62.4469C49.234 62.8925 49.1086 63.2825 48.8579 63.6168C48.6142 63.9511 48.266 64.2087 47.8133 64.3898C47.3607 64.5639 46.8349 64.6509 46.236 64.6509C45.6371 64.6509 45.1113 64.5639 44.6587 64.3898C44.213 64.2087 43.8683 63.9511 43.6245 63.6168C43.3808 63.2825 43.2589 62.8925 43.2589 62.4469C43.2589 62.0499 43.3599 61.7052 43.5618 61.4127C43.7638 61.1133 44.0528 60.8765 44.4289 60.7024C44.1364 60.5422 43.91 60.3333 43.7499 60.0756C43.5967 59.811 43.5201 59.5081 43.5201 59.1668C43.5201 58.756 43.6315 58.3973 43.8543 58.0909C44.0841 57.7845 44.4045 57.5477 44.8154 57.3806C45.2262 57.2135 45.6998 57.1299 46.236 57.1299C46.7792 57.1299 47.2562 57.2135 47.6671 57.3806C48.078 57.5477 48.3983 57.7845 48.6281 58.0909C48.8579 58.3973 48.9728 58.756 48.9728 59.1668C48.9728 59.5081 48.8927 59.8075 48.7326 60.0652C48.5724 60.3228 48.3426 60.5352 48.0431 60.7024ZM46.236 58.1954C45.8112 58.1954 45.4734 58.2859 45.2227 58.467C44.979 58.648 44.8571 58.9022 44.8571 59.2295C44.8571 59.5429 44.979 59.7936 45.2227 59.9816C45.4734 60.1627 45.8112 60.2532 46.236 60.2532C46.6678 60.2532 47.009 60.1627 47.2597 59.9816C47.5104 59.7936 47.6357 59.5429 47.6357 59.2295C47.6357 58.9022 47.5069 58.648 47.2492 58.467C46.9985 58.2859 46.6608 58.1954 46.236 58.1954ZM46.236 63.5855C46.7374 63.5855 47.1343 63.481 47.4268 63.2721C47.7193 63.0632 47.8656 62.7742 47.8656 62.4051C47.8656 62.0429 47.7193 61.7574 47.4268 61.5485C47.1343 61.3396 46.7374 61.2351 46.236 61.2351C45.7346 61.2351 45.3411 61.3396 45.0556 61.5485C44.7701 61.7574 44.6273 62.0429 44.6273 62.4051C44.6273 62.7742 44.7701 63.0632 45.0556 63.2721C45.3411 63.481 45.7346 63.5855 46.236 63.5855Z" fill="#B79147"/>
<path d="M46.6229 146.211C47.1034 146.211 47.5352 146.305 47.9182 146.493C48.3012 146.674 48.6007 146.935 48.8166 147.276C49.0324 147.618 49.1404 148.011 49.1404 148.457C49.1404 148.93 49.022 149.348 48.7852 149.71C48.5484 150.065 48.2281 150.341 47.8242 150.536C47.4203 150.731 46.9676 150.828 46.4662 150.828C45.4634 150.828 44.6835 150.515 44.1263 149.888C43.5762 149.261 43.3011 148.363 43.3011 147.193C43.3011 146.371 43.4508 145.671 43.7503 145.093C44.0497 144.508 44.4676 144.066 45.0038 143.767C45.547 143.46 46.1737 143.307 46.8841 143.307C47.2601 143.307 47.6118 143.349 47.9391 143.432C48.2734 143.509 48.5624 143.624 48.8061 143.777L48.3047 144.801C47.9426 144.564 47.4795 144.446 46.9154 144.446C46.212 144.446 45.6619 144.661 45.2649 145.093C44.868 145.525 44.6695 146.148 44.6695 146.963V146.973C44.8854 146.723 45.1605 146.535 45.4948 146.409C45.829 146.277 46.2051 146.211 46.6229 146.211ZM46.3931 149.763C46.8179 149.763 47.1626 149.651 47.4273 149.428C47.6919 149.198 47.8242 148.896 47.8242 148.519C47.8242 148.136 47.6919 147.834 47.4273 147.611C47.1626 147.388 46.8075 147.276 46.3618 147.276C45.923 147.276 45.5644 147.395 45.2858 147.632C45.0142 147.868 44.8784 148.168 44.8784 148.53C44.8784 148.885 45.0108 149.181 45.2754 149.418C45.547 149.648 45.9196 149.763 46.3931 149.763Z" fill="#B79147"/>
<path d="M48.8164 169.413V170.322L45.9751 176.725H44.5231L47.2704 170.562H44.3977V171.805H43.1338V169.413H48.8164Z" fill="#B79147"/>
<path d="M72.5594 83.9789V91.291H71.2014V85.1175H69.6554V83.9789H72.5594Z" fill="#B79147"/>
<path d="M76.4751 83.8745C77.4779 83.8745 78.2544 84.1878 78.8046 84.8146C79.3617 85.4413 79.6402 86.3397 79.6402 87.5096C79.6402 88.3314 79.4905 89.0347 79.1911 89.6197C78.8916 90.1977 78.4703 90.6399 77.9271 90.9463C77.3909 91.2458 76.7676 91.3955 76.0573 91.3955C75.6812 91.3955 75.3261 91.3572 74.9918 91.2806C74.6645 91.197 74.379 91.0786 74.1353 90.9254L74.6367 89.9017C74.9988 90.1385 75.4619 90.2569 76.026 90.2569C76.7293 90.2569 77.2795 90.041 77.6764 89.6093C78.0734 89.1775 78.2718 88.5542 78.2718 87.7394V87.729C78.056 87.9797 77.7809 88.1712 77.4466 88.3035C77.1123 88.4289 76.7363 88.4915 76.3184 88.4915C75.8379 88.4915 75.4062 88.401 75.0232 88.2199C74.6401 88.0319 74.3407 87.7673 74.1248 87.4261C73.9089 87.0848 73.801 86.6914 73.801 86.2457C73.801 85.7721 73.9194 85.3578 74.1561 85.0026C74.3929 84.6405 74.7133 84.3619 75.1172 84.1669C75.5211 83.9719 75.9737 83.8745 76.4751 83.8745ZM76.5796 87.4261C77.0183 87.4261 77.3735 87.3077 77.6451 87.0709C77.9236 86.8341 78.0629 86.5347 78.0629 86.1726C78.0629 85.8174 77.9271 85.5249 77.6555 85.2951C77.3909 85.0583 77.0218 84.9399 76.5483 84.9399C76.1235 84.9399 75.7787 85.0548 75.5141 85.2846C75.2495 85.5075 75.1172 85.8069 75.1172 86.183C75.1172 86.566 75.2495 86.8689 75.5141 87.0918C75.7787 87.3146 76.1339 87.4261 76.5796 87.4261Z" fill="#B79147"/>
<path d="M71.8163 117.41V124.722H70.4583V118.548H68.9124V117.41H71.8163Z" fill="#B79147"/>
<path d="M79.7851 123.061H78.4898V124.722H77.1736V123.061H73.1624V122.121L76.7662 117.41H78.2182L74.8233 121.912H77.2154V120.439H78.4898V121.912H79.7851V123.061Z" fill="#B79147"/>
<path d="M71.8163 143.411V150.724H70.4583V144.55H68.9123V143.411H71.8163Z" fill="#B79147"/>
<path d="M78.5628 149.574V150.724H73.1728V149.815L76.0767 147.057C76.404 146.744 76.6234 146.472 76.7348 146.242C76.8532 146.005 76.9124 145.772 76.9124 145.542C76.9124 145.201 76.7975 144.94 76.5677 144.759C76.3379 144.578 76.0001 144.487 75.5544 144.487C74.8093 144.487 74.2382 144.742 73.8413 145.25L72.8907 144.519C73.1762 144.136 73.5593 143.84 74.0398 143.631C74.5272 143.415 75.0704 143.307 75.6693 143.307C76.4632 143.307 77.0969 143.495 77.5705 143.871C78.044 144.247 78.2808 144.759 78.2808 145.407C78.2808 145.804 78.1972 146.176 78.0301 146.524C77.863 146.872 77.5426 147.269 77.0691 147.715L75.1157 149.574H78.5628Z" fill="#B79147"/>
<path d="M102.057 149.574V150.724H96.667V149.815L99.5709 147.057C99.8982 146.744 100.118 146.472 100.229 146.242C100.347 146.005 100.407 145.772 100.407 145.542C100.407 145.201 100.292 144.94 100.062 144.759C99.8321 144.578 99.4943 144.487 99.0486 144.487C98.3035 144.487 97.7324 144.742 97.3355 145.25L96.3849 144.519C96.6704 144.136 97.0535 143.84 97.534 143.631C98.0214 143.415 98.5646 143.307 99.1635 143.307C99.9574 143.307 100.591 143.495 101.065 143.871C101.538 144.247 101.775 144.759 101.775 145.407C101.775 145.804 101.691 146.176 101.524 146.524C101.357 146.872 101.037 147.269 100.563 147.715L98.6099 149.574H102.057Z" fill="#B79147"/>
<path d="M105.369 143.411V150.724H104.011V144.55H102.465V143.411H105.369Z" fill="#B79147"/>
<path d="M182.952 146.242C183.982 146.242 184.745 146.444 185.239 146.848C185.734 147.245 185.981 147.788 185.981 148.477C185.981 148.916 185.873 149.313 185.657 149.668C185.441 150.023 185.117 150.305 184.686 150.514C184.254 150.723 183.721 150.828 183.087 150.828C182.565 150.828 182.06 150.755 181.573 150.608C181.085 150.455 180.674 150.246 180.34 149.982L180.915 148.927C181.186 149.149 181.51 149.327 181.886 149.459C182.269 149.585 182.663 149.647 183.067 149.647C183.547 149.647 183.923 149.55 184.195 149.355C184.473 149.153 184.613 148.878 184.613 148.53C184.613 148.154 184.463 147.872 184.163 147.684C183.871 147.489 183.366 147.391 182.649 147.391H180.883L181.259 143.411H185.553V144.55H182.409L182.252 146.242H182.952Z" fill="#B79147"/>
<path d="M192.147 143.411V144.32L189.306 150.723H187.854L190.601 144.56H187.728V145.803H186.465V143.411H192.147Z" fill="#B79147"/>
<path d="M157.483 175.065H156.187V176.725H154.871V175.065H150.86V174.124L154.464 169.413H155.916L152.521 173.915H154.913V172.443H156.187V173.915H157.483V175.065Z" fill="#B79147"/>
<path d="M161.104 176.83C160.519 176.83 159.997 176.684 159.537 176.391C159.078 176.092 158.716 175.66 158.451 175.096C158.186 174.525 158.054 173.849 158.054 173.069C158.054 172.289 158.186 171.617 158.451 171.053C158.716 170.482 159.078 170.05 159.537 169.758C159.997 169.459 160.519 169.309 161.104 169.309C161.689 169.309 162.212 169.459 162.671 169.758C163.138 170.05 163.503 170.482 163.768 171.053C164.033 171.617 164.165 172.289 164.165 173.069C164.165 173.849 164.033 174.525 163.768 175.096C163.503 175.66 163.138 176.092 162.671 176.391C162.212 176.684 161.689 176.83 161.104 176.83ZM161.104 175.65C161.627 175.65 162.038 175.434 162.337 175.002C162.643 174.57 162.797 173.926 162.797 173.069C162.797 172.213 162.643 171.569 162.337 171.137C162.038 170.705 161.627 170.489 161.104 170.489C160.589 170.489 160.178 170.705 159.872 171.137C159.572 171.569 159.423 172.213 159.423 173.069C159.423 173.926 159.572 174.57 159.872 175.002C160.178 175.434 160.589 175.65 161.104 175.65Z" fill="#B79147"/>
<path d="M182.209 172.244C183.24 172.244 184.003 172.446 184.497 172.85C184.991 173.247 185.239 173.79 185.239 174.48C185.239 174.918 185.131 175.315 184.915 175.67C184.699 176.026 184.375 176.308 183.943 176.517C183.512 176.725 182.979 176.83 182.345 176.83C181.823 176.83 181.318 176.757 180.831 176.611C180.343 176.457 179.932 176.248 179.598 175.984L180.172 174.929C180.444 175.152 180.768 175.329 181.144 175.461C181.527 175.587 181.92 175.65 182.324 175.65C182.805 175.65 183.181 175.552 183.452 175.357C183.731 175.155 183.87 174.88 183.87 174.532C183.87 174.156 183.721 173.874 183.421 173.686C183.129 173.491 182.624 173.393 181.906 173.393H180.141L180.517 169.413H184.81V170.552H181.666L181.51 172.244H182.209Z" fill="#B79147"/>
<path d="M189.072 176.83C188.487 176.83 187.965 176.684 187.505 176.391C187.046 176.092 186.684 175.66 186.419 175.096C186.154 174.525 186.022 173.849 186.022 173.069C186.022 172.289 186.154 171.617 186.419 171.053C186.684 170.482 187.046 170.05 187.505 169.758C187.965 169.459 188.487 169.309 189.072 169.309C189.657 169.309 190.179 169.459 190.639 169.758C191.106 170.05 191.471 170.482 191.736 171.053C192.001 171.617 192.133 172.289 192.133 173.069C192.133 173.849 192.001 174.525 191.736 175.096C191.471 175.66 191.106 176.092 190.639 176.391C190.179 176.684 189.657 176.83 189.072 176.83ZM189.072 175.65C189.594 175.65 190.005 175.434 190.305 175.002C190.611 174.57 190.764 173.926 190.764 173.069C190.764 172.213 190.611 171.569 190.305 171.137C190.005 170.705 189.594 170.489 189.072 170.489C188.557 170.489 188.146 170.705 187.84 171.137C187.54 171.569 187.39 172.213 187.39 173.069C187.39 173.926 187.54 174.57 187.84 175.002C188.146 175.434 188.557 175.65 189.072 175.65Z" fill="#B79147"/>
<path d="M240.382 169.413V170.322L237.541 176.725H236.089L238.836 170.562H235.964V171.805H234.7V169.413H240.382Z" fill="#B79147"/>
<path d="M245.781 172.881C246.164 173.055 246.457 173.292 246.659 173.592C246.867 173.884 246.972 174.229 246.972 174.626C246.972 175.071 246.847 175.461 246.596 175.796C246.352 176.13 246.004 176.388 245.551 176.569C245.099 176.743 244.573 176.83 243.974 176.83C243.375 176.83 242.849 176.743 242.397 176.569C241.951 176.388 241.606 176.13 241.363 175.796C241.119 175.461 240.997 175.071 240.997 174.626C240.997 174.229 241.098 173.884 241.3 173.592C241.502 173.292 241.791 173.055 242.167 172.881C241.874 172.721 241.648 172.512 241.488 172.255C241.335 171.99 241.258 171.687 241.258 171.346C241.258 170.935 241.369 170.576 241.592 170.27C241.822 169.963 242.142 169.727 242.553 169.56C242.964 169.392 243.438 169.309 243.974 169.309C244.517 169.309 244.994 169.392 245.405 169.56C245.816 169.727 246.136 169.963 246.366 170.27C246.596 170.576 246.711 170.935 246.711 171.346C246.711 171.687 246.631 171.986 246.471 172.244C246.31 172.502 246.081 172.714 245.781 172.881ZM243.974 170.374C243.549 170.374 243.211 170.465 242.961 170.646C242.717 170.827 242.595 171.081 242.595 171.408C242.595 171.722 242.717 171.973 242.961 172.161C243.211 172.342 243.549 172.432 243.974 172.432C244.406 172.432 244.747 172.342 244.998 172.161C245.248 171.973 245.374 171.722 245.374 171.408C245.374 171.081 245.245 170.827 244.987 170.646C244.737 170.465 244.399 170.374 243.974 170.374ZM243.974 175.764C244.475 175.764 244.872 175.66 245.165 175.451C245.457 175.242 245.604 174.953 245.604 174.584C245.604 174.222 245.457 173.936 245.165 173.727C244.872 173.519 244.475 173.414 243.974 173.414C243.473 173.414 243.079 173.519 242.794 173.727C242.508 173.936 242.365 174.222 242.365 174.584C242.365 174.953 242.508 175.242 242.794 175.451C243.079 175.66 243.473 175.764 243.974 175.764Z" fill="#B79147"/>
<path d="M267.824 172.881C268.207 173.055 268.5 173.292 268.702 173.592C268.911 173.884 269.015 174.229 269.015 174.626C269.015 175.071 268.89 175.461 268.639 175.796C268.395 176.13 268.047 176.388 267.594 176.569C267.142 176.743 266.616 176.83 266.017 176.83C265.418 176.83 264.892 176.743 264.44 176.569C263.994 176.388 263.649 176.13 263.406 175.796C263.162 175.461 263.04 175.071 263.04 174.626C263.04 174.229 263.141 173.884 263.343 173.592C263.545 173.292 263.834 173.055 264.21 172.881C263.917 172.721 263.691 172.512 263.531 172.255C263.378 171.99 263.301 171.687 263.301 171.346C263.301 170.935 263.412 170.576 263.635 170.27C263.865 169.963 264.185 169.727 264.596 169.56C265.007 169.392 265.481 169.309 266.017 169.309C266.56 169.309 267.037 169.392 267.448 169.56C267.859 169.727 268.179 169.963 268.409 170.27C268.639 170.576 268.754 170.935 268.754 171.346C268.754 171.687 268.674 171.986 268.514 172.244C268.353 172.502 268.124 172.714 267.824 172.881ZM266.017 170.374C265.592 170.374 265.254 170.465 265.004 170.646C264.76 170.827 264.638 171.081 264.638 171.408C264.638 171.722 264.76 171.973 265.004 172.161C265.254 172.342 265.592 172.432 266.017 172.432C266.449 172.432 266.79 172.342 267.041 172.161C267.291 171.973 267.417 171.722 267.417 171.408C267.417 171.081 267.288 170.827 267.03 170.646C266.78 170.465 266.442 170.374 266.017 170.374ZM266.017 175.764C266.518 175.764 266.915 175.66 267.208 175.451C267.5 175.242 267.647 174.953 267.647 174.584C267.647 174.222 267.5 173.936 267.208 173.727C266.915 173.519 266.518 173.414 266.017 173.414C265.516 173.414 265.122 173.519 264.837 173.727C264.551 173.936 264.408 174.222 264.408 174.584C264.408 174.953 264.551 175.242 264.837 175.451C265.122 175.66 265.516 175.764 266.017 175.764Z" fill="#B79147"/>
<path d="M272.946 176.83C272.361 176.83 271.839 176.684 271.379 176.391C270.92 176.092 270.558 175.66 270.293 175.096C270.028 174.525 269.896 173.849 269.896 173.069C269.896 172.289 270.028 171.617 270.293 171.053C270.558 170.482 270.92 170.05 271.379 169.758C271.839 169.459 272.361 169.309 272.946 169.309C273.531 169.309 274.053 169.459 274.513 169.758C274.98 170.05 275.345 170.482 275.61 171.053C275.875 171.617 276.007 172.289 276.007 173.069C276.007 173.849 275.875 174.525 275.61 175.096C275.345 175.66 274.98 176.092 274.513 176.391C274.053 176.684 273.531 176.83 272.946 176.83ZM272.946 175.65C273.469 175.65 273.879 175.434 274.179 175.002C274.485 174.57 274.638 173.926 274.638 173.069C274.638 172.213 274.485 171.569 274.179 171.137C273.879 170.705 273.469 170.489 272.946 170.489C272.431 170.489 272.02 170.705 271.714 171.137C271.414 171.569 271.264 172.213 271.264 173.069C271.264 173.926 271.414 174.57 271.714 175.002C272.02 175.434 272.431 175.65 272.946 175.65Z" fill="#B79147"/>
<path d="M210.716 146.211C211.197 146.211 211.629 146.305 212.012 146.493C212.395 146.674 212.694 146.935 212.91 147.276C213.126 147.618 213.234 148.011 213.234 148.457C213.234 148.93 213.115 149.348 212.879 149.71C212.642 150.065 212.322 150.341 211.918 150.536C211.514 150.731 211.061 150.828 210.56 150.828C209.557 150.828 208.777 150.515 208.22 149.888C207.67 149.261 207.395 148.363 207.395 147.193C207.395 146.371 207.544 145.671 207.844 145.093C208.143 144.508 208.561 144.066 209.097 143.767C209.64 143.46 210.267 143.307 210.978 143.307C211.354 143.307 211.705 143.349 212.033 143.432C212.367 143.509 212.656 143.624 212.9 143.777L212.398 144.801C212.036 144.564 211.573 144.446 211.009 144.446C210.306 144.446 209.755 144.661 209.358 145.093C208.961 145.525 208.763 146.148 208.763 146.963V146.973C208.979 146.723 209.254 146.535 209.588 146.409C209.923 146.277 210.299 146.211 210.716 146.211ZM210.487 149.763C210.911 149.763 211.256 149.651 211.521 149.428C211.785 149.198 211.918 148.896 211.918 148.519C211.918 148.136 211.785 147.834 211.521 147.611C211.256 147.388 210.901 147.276 210.455 147.276C210.017 147.276 209.658 147.395 209.379 147.632C209.108 147.868 208.972 148.168 208.972 148.53C208.972 148.885 209.104 149.181 209.369 149.418C209.64 149.648 210.013 149.763 210.487 149.763Z" fill="#B79147"/>
<path d="M217.057 146.43C217.732 146.514 218.247 146.744 218.603 147.12C218.958 147.496 219.135 147.966 219.135 148.53C219.135 148.955 219.027 149.341 218.811 149.689C218.596 150.038 218.268 150.316 217.83 150.525C217.398 150.727 216.869 150.828 216.242 150.828C215.719 150.828 215.215 150.755 214.727 150.609C214.247 150.455 213.836 150.247 213.495 149.982L214.079 148.927C214.344 149.15 214.664 149.327 215.041 149.46C215.424 149.585 215.817 149.648 216.221 149.648C216.701 149.648 217.077 149.55 217.349 149.355C217.628 149.153 217.767 148.882 217.767 148.54C217.767 148.199 217.635 147.934 217.37 147.746C217.112 147.551 216.715 147.454 216.179 147.454H215.511V146.524L217.171 144.55H213.85V143.411H218.832V144.32L217.057 146.43Z" fill="#B79147"/>
<path d="M101.315 123.573V124.722H95.9246V123.813L98.8286 121.055C99.1559 120.742 99.3753 120.47 99.4867 120.241C99.6051 120.004 99.6643 119.771 99.6643 119.541C99.6643 119.199 99.5494 118.938 99.3196 118.757C99.0898 118.576 98.752 118.486 98.3063 118.486C97.5612 118.486 96.9901 118.74 96.5932 119.248L95.6426 118.517C95.9281 118.134 96.3111 117.838 96.7917 117.629C97.2791 117.413 97.8223 117.305 98.4212 117.305C99.2151 117.305 99.8488 117.493 100.322 117.869C100.796 118.245 101.033 118.757 101.033 119.405C101.033 119.802 100.949 120.174 100.782 120.523C100.615 120.871 100.295 121.268 99.821 121.713L97.8676 123.573H101.315Z" fill="#B79147"/>
<path d="M107.395 123.573V124.722H102.004V123.813L104.908 121.055C105.236 120.742 105.455 120.47 105.567 120.241C105.685 120.004 105.744 119.771 105.744 119.541C105.744 119.199 105.629 118.938 105.399 118.757C105.17 118.576 104.832 118.486 104.386 118.486C103.641 118.486 103.07 118.74 102.673 119.248L101.722 118.517C102.008 118.134 102.391 117.838 102.872 117.629C103.359 117.413 103.902 117.305 104.501 117.305C105.295 117.305 105.929 117.493 106.402 117.869C106.876 118.245 107.113 118.757 107.113 119.405C107.113 119.802 107.029 120.174 106.862 120.523C106.695 120.871 106.374 121.268 105.901 121.713L103.947 123.573H107.395Z" fill="#B79147"/>
<path d="M127.347 120.429C128.022 120.512 128.537 120.742 128.893 121.118C129.248 121.494 129.425 121.964 129.425 122.528C129.425 122.953 129.317 123.34 129.101 123.688C128.886 124.036 128.558 124.315 128.12 124.523C127.688 124.725 127.158 124.826 126.532 124.826C126.009 124.826 125.505 124.753 125.017 124.607C124.537 124.454 124.126 124.245 123.784 123.98L124.369 122.925C124.634 123.148 124.954 123.326 125.33 123.458C125.713 123.583 126.107 123.646 126.511 123.646C126.991 123.646 127.367 123.549 127.639 123.354C127.918 123.152 128.057 122.88 128.057 122.539C128.057 122.197 127.925 121.933 127.66 121.745C127.402 121.55 127.005 121.452 126.469 121.452H125.801V120.523L127.461 118.548H124.14V117.41H129.122V118.319L127.347 120.429Z" fill="#B79147"/>
<path d="M132.499 120.241C133.53 120.241 134.292 120.443 134.787 120.846C135.281 121.243 135.528 121.787 135.528 122.476C135.528 122.915 135.42 123.312 135.205 123.667C134.989 124.022 134.665 124.304 134.233 124.513C133.801 124.722 133.269 124.826 132.635 124.826C132.113 124.826 131.608 124.753 131.12 124.607C130.633 124.454 130.222 124.245 129.888 123.98L130.462 122.925C130.734 123.148 131.058 123.326 131.434 123.458C131.817 123.583 132.21 123.646 132.614 123.646C133.095 123.646 133.471 123.549 133.742 123.354C134.021 123.152 134.16 122.876 134.16 122.528C134.16 122.152 134.01 121.87 133.711 121.682C133.418 121.487 132.913 121.39 132.196 121.39H130.431L130.807 117.41H135.1V118.548H131.956L131.799 120.241H132.499Z" fill="#B79147"/>
<path d="M210.716 120.209C211.197 120.209 211.629 120.303 212.012 120.491C212.395 120.672 212.694 120.934 212.91 121.275C213.126 121.616 213.234 122.009 213.234 122.455C213.234 122.929 213.115 123.347 212.879 123.709C212.642 124.064 212.322 124.339 211.918 124.534C211.514 124.729 211.061 124.826 210.56 124.826C209.557 124.826 208.777 124.513 208.22 123.886C207.67 123.259 207.395 122.361 207.395 121.191C207.395 120.369 207.544 119.67 207.844 119.092C208.143 118.507 208.561 118.064 209.097 117.765C209.64 117.459 210.267 117.305 210.978 117.305C211.354 117.305 211.705 117.347 212.033 117.431C212.367 117.507 212.656 117.622 212.9 117.775L212.398 118.799C212.036 118.562 211.573 118.444 211.009 118.444C210.306 118.444 209.755 118.66 209.358 119.092C208.961 119.523 208.763 120.147 208.763 120.961V120.972C208.979 120.721 209.254 120.533 209.588 120.408C209.923 120.275 210.299 120.209 210.716 120.209ZM210.487 123.761C210.911 123.761 211.256 123.649 211.521 123.427C211.785 123.197 211.918 122.894 211.918 122.518C211.918 122.135 211.785 121.832 211.521 121.609C211.256 121.386 210.901 121.275 210.455 121.275C210.017 121.275 209.658 121.393 209.379 121.63C209.108 121.867 208.972 122.166 208.972 122.528C208.972 122.883 209.104 123.179 209.369 123.416C209.64 123.646 210.013 123.761 210.487 123.761Z" fill="#B79147"/>
<path d="M218.686 120.878C219.069 121.052 219.362 121.289 219.564 121.588C219.773 121.881 219.877 122.225 219.877 122.622C219.877 123.068 219.752 123.458 219.501 123.792C219.257 124.126 218.909 124.384 218.456 124.565C218.004 124.739 217.478 124.826 216.879 124.826C216.28 124.826 215.754 124.739 215.302 124.565C214.856 124.384 214.511 124.126 214.268 123.792C214.024 123.458 213.902 123.068 213.902 122.622C213.902 122.225 214.003 121.881 214.205 121.588C214.407 121.289 214.696 121.052 215.072 120.878C214.779 120.718 214.553 120.509 214.393 120.251C214.24 119.986 214.163 119.683 214.163 119.342C214.163 118.931 214.274 118.573 214.497 118.266C214.727 117.96 215.047 117.723 215.458 117.556C215.869 117.389 216.343 117.305 216.879 117.305C217.422 117.305 217.899 117.389 218.31 117.556C218.721 117.723 219.041 117.96 219.271 118.266C219.501 118.573 219.616 118.931 219.616 119.342C219.616 119.683 219.536 119.983 219.376 120.241C219.215 120.498 218.986 120.711 218.686 120.878ZM216.879 118.371C216.454 118.371 216.116 118.461 215.866 118.642C215.622 118.823 215.5 119.078 215.5 119.405C215.5 119.718 215.622 119.969 215.866 120.157C216.116 120.338 216.454 120.429 216.879 120.429C217.311 120.429 217.652 120.338 217.903 120.157C218.153 119.969 218.279 119.718 218.279 119.405C218.279 119.078 218.15 118.823 217.892 118.642C217.642 118.461 217.304 118.371 216.879 118.371ZM216.879 123.761C217.38 123.761 217.777 123.656 218.07 123.447C218.362 123.239 218.509 122.95 218.509 122.58C218.509 122.218 218.362 121.933 218.07 121.724C217.777 121.515 217.38 121.411 216.879 121.411C216.378 121.411 215.984 121.515 215.699 121.724C215.413 121.933 215.27 122.218 215.27 122.58C215.27 122.95 215.413 123.239 215.699 123.447C215.984 123.656 216.378 123.761 216.879 123.761Z" fill="#B79147"/>
<path d="M268.566 120.878C268.949 121.052 269.242 121.289 269.444 121.588C269.653 121.881 269.757 122.225 269.757 122.622C269.757 123.068 269.632 123.458 269.381 123.792C269.137 124.126 268.789 124.384 268.337 124.565C267.884 124.739 267.358 124.826 266.759 124.826C266.16 124.826 265.635 124.739 265.182 124.565C264.736 124.384 264.392 124.126 264.148 123.792C263.904 123.458 263.782 123.068 263.782 122.622C263.782 122.225 263.883 121.881 264.085 121.588C264.287 121.289 264.576 121.052 264.952 120.878C264.66 120.718 264.433 120.509 264.273 120.251C264.12 119.986 264.043 119.683 264.043 119.342C264.043 118.931 264.155 118.573 264.378 118.266C264.607 117.96 264.928 117.723 265.339 117.556C265.75 117.389 266.223 117.305 266.759 117.305C267.302 117.305 267.78 117.389 268.19 117.556C268.601 117.723 268.922 117.96 269.151 118.266C269.381 118.573 269.496 118.931 269.496 119.342C269.496 119.683 269.416 119.983 269.256 120.241C269.096 120.498 268.866 120.711 268.566 120.878ZM266.759 118.371C266.335 118.371 265.997 118.461 265.746 118.642C265.502 118.823 265.38 119.078 265.38 119.405C265.38 119.718 265.502 119.969 265.746 120.157C265.997 120.338 266.335 120.429 266.759 120.429C267.191 120.429 267.532 120.338 267.783 120.157C268.034 119.969 268.159 119.718 268.159 119.405C268.159 119.078 268.03 118.823 267.773 118.642C267.522 118.461 267.184 118.371 266.759 118.371ZM266.759 123.761C267.261 123.761 267.658 123.656 267.95 123.447C268.243 123.239 268.389 122.95 268.389 122.58C268.389 122.218 268.243 121.933 267.95 121.724C267.658 121.515 267.261 121.411 266.759 121.411C266.258 121.411 265.864 121.515 265.579 121.724C265.293 121.933 265.151 122.218 265.151 122.58C265.151 122.95 265.293 123.239 265.579 123.447C265.864 123.656 266.258 123.761 266.759 123.761Z" fill="#B79147"/>
<path d="M275.934 123.573V124.722H270.544V123.813L273.448 121.055C273.776 120.742 273.995 120.47 274.106 120.241C274.225 120.004 274.284 119.771 274.284 119.541C274.284 119.199 274.169 118.938 273.939 118.757C273.709 118.576 273.372 118.486 272.926 118.486C272.181 118.486 271.61 118.74 271.213 119.248L270.262 118.517C270.548 118.134 270.931 117.838 271.411 117.629C271.899 117.413 272.442 117.305 273.041 117.305C273.835 117.305 274.469 117.493 274.942 117.869C275.416 118.245 275.652 118.757 275.652 119.405C275.652 119.802 275.569 120.174 275.402 120.523C275.235 120.871 274.914 121.268 274.441 121.713L272.487 123.573H275.934Z" fill="#B79147"/>
<path d="M126.604 34.9945C127.28 35.0781 127.795 35.3079 128.15 35.6839C128.505 36.06 128.683 36.5301 128.683 37.0941C128.683 37.5189 128.575 37.9054 128.359 38.2536C128.143 38.6018 127.816 38.8804 127.377 39.0893C126.945 39.2913 126.416 39.3922 125.789 39.3922C125.267 39.3922 124.762 39.3191 124.275 39.1729C123.794 39.0197 123.383 38.8108 123.042 38.5461L123.627 37.4911C123.892 37.7139 124.212 37.8915 124.588 38.0238C124.971 38.1492 125.365 38.2119 125.769 38.2119C126.249 38.2119 126.625 38.1144 126.897 37.9194C127.175 37.7174 127.315 37.4458 127.315 37.1046C127.315 36.7634 127.182 36.4987 126.918 36.3107C126.66 36.1157 126.263 36.0182 125.727 36.0182H125.058V35.0885L126.719 33.1143H123.397V31.9756H128.38V32.8844L126.604 34.9945Z" fill="#B79147"/>
<path d="M136.089 37.6269H134.794V39.2878H133.478V37.6269H129.467V36.6868L133.071 31.9756H134.523L131.128 36.4778H133.52V35.005H134.794V36.4778H136.089V37.6269Z" fill="#B79147"/>
<path d="M100.572 63.3974V64.5465H95.1823V63.6377L98.0863 60.88C98.4136 60.5666 98.6329 60.295 98.7444 60.0652C98.8628 59.8284 98.9219 59.5951 98.9219 59.3653C98.9219 59.0241 98.807 58.7629 98.5772 58.5819C98.3474 58.4008 98.0097 58.3103 97.564 58.3103C96.8188 58.3103 96.2478 58.5645 95.8508 59.0728L94.9003 58.3416C95.1858 57.9586 95.5688 57.6626 96.0493 57.4537C96.5368 57.2378 97.08 57.1299 97.6789 57.1299C98.4728 57.1299 99.1065 57.3179 99.58 57.694C100.054 58.07 100.29 58.5819 100.29 59.2295C100.29 59.6265 100.207 59.999 100.04 60.3472C99.8725 60.6954 99.5522 61.0924 99.0786 61.5381L97.1252 63.3974H100.572Z" fill="#B79147"/>
<path d="M103.821 57.1299C104.824 57.1299 105.601 57.4433 106.151 58.07C106.708 58.6968 106.987 59.5951 106.987 60.7651C106.987 61.5868 106.837 62.2902 106.537 62.8751C106.238 63.4531 105.817 63.8953 105.273 64.2018C104.737 64.5012 104.114 64.6509 103.404 64.6509C103.028 64.6509 102.672 64.6126 102.338 64.536C102.011 64.4525 101.725 64.3341 101.482 64.1809L101.983 63.1572C102.345 63.3939 102.808 63.5123 103.372 63.5123C104.076 63.5123 104.626 63.2965 105.023 62.8647C105.42 62.4329 105.618 61.8096 105.618 60.9949V60.9844C105.402 61.2351 105.127 61.4266 104.793 61.5589C104.459 61.6843 104.083 61.747 103.665 61.747C103.184 61.747 102.752 61.6564 102.369 61.4754C101.986 61.2874 101.687 61.0227 101.471 60.6815C101.255 60.3403 101.147 59.9468 101.147 59.5011C101.147 59.0276 101.266 58.6132 101.502 58.258C101.739 57.8959 102.06 57.6174 102.463 57.4224C102.867 57.2274 103.32 57.1299 103.821 57.1299ZM103.926 60.6815C104.365 60.6815 104.72 60.5631 104.991 60.3263C105.27 60.0896 105.409 59.7901 105.409 59.428C105.409 59.0728 105.273 58.7803 105.002 58.5505C104.737 58.3138 104.368 58.1954 103.895 58.1954C103.47 58.1954 103.125 58.3103 102.86 58.5401C102.596 58.7629 102.463 59.0624 102.463 59.4384C102.463 59.8214 102.596 60.1244 102.86 60.3472C103.125 60.5701 103.48 60.6815 103.926 60.6815Z" fill="#B79147"/>
<path d="M100.572 90.142V91.291H95.1824V90.3823L98.0863 87.6245C98.4136 87.3112 98.633 87.0396 98.7444 86.8098C98.8628 86.573 98.922 86.3397 98.922 86.1099C98.922 85.7686 98.8071 85.5075 98.5773 85.3264C98.3475 85.1454 98.0097 85.0548 97.564 85.0548C96.8189 85.0548 96.2479 85.309 95.8509 85.8174L94.9003 85.0862C95.1859 84.7032 95.5689 84.4072 96.0494 84.1983C96.5369 83.9824 97.08 83.8745 97.6789 83.8745C98.4728 83.8745 99.1065 84.0625 99.5801 84.4385C100.054 84.8146 100.29 85.3264 100.29 85.9741C100.29 86.371 100.207 86.7436 100.04 87.0918C99.8726 87.44 99.5522 87.8369 99.0787 88.2826L97.1253 90.142H100.572Z" fill="#B79147"/>
<path d="M106.841 83.9789V84.8877L104 91.291H102.548L105.295 85.128H102.422V86.371H101.158V83.9789H106.841Z" fill="#B79147"/>
<path d="M126.604 86.9978C127.28 87.0813 127.795 87.3112 128.15 87.6872C128.505 88.0633 128.683 88.5333 128.683 89.0974C128.683 89.5222 128.575 89.9087 128.359 90.2569C128.143 90.6051 127.816 90.8837 127.377 91.0926C126.945 91.2945 126.416 91.3955 125.789 91.3955C125.267 91.3955 124.762 91.3224 124.275 91.1761C123.794 91.0229 123.383 90.814 123.042 90.5494L123.627 89.4943C123.892 89.7172 124.212 89.8948 124.588 90.0271C124.971 90.1524 125.365 90.2151 125.769 90.2151C126.249 90.2151 126.625 90.1176 126.897 89.9226C127.175 89.7207 127.315 89.4491 127.315 89.1079C127.315 88.7666 127.182 88.502 126.918 88.314C126.66 88.119 126.263 88.0215 125.727 88.0215H125.058V87.0918L126.719 85.1175H123.397V83.9789H128.38V84.8877L126.604 86.9978Z" fill="#B79147"/>
<path d="M132.621 91.3955C132.036 91.3955 131.514 91.2493 131.054 90.9568C130.595 90.6573 130.233 90.2256 129.968 89.6615C129.703 89.0904 129.571 88.4149 129.571 87.635C129.571 86.855 129.703 86.183 129.968 85.6189C130.233 85.0479 130.595 84.6161 131.054 84.3236C131.514 84.0242 132.036 83.8745 132.621 83.8745C133.206 83.8745 133.729 84.0242 134.188 84.3236C134.655 84.6161 135.02 85.0479 135.285 85.6189C135.55 86.183 135.682 86.855 135.682 87.635C135.682 88.4149 135.55 89.0904 135.285 89.6615C135.02 90.2256 134.655 90.6573 134.188 90.9568C133.729 91.2493 133.206 91.3955 132.621 91.3955ZM132.621 90.2151C133.144 90.2151 133.555 89.9992 133.854 89.5675C134.16 89.1357 134.314 88.4915 134.314 87.635C134.314 86.7784 134.16 86.1342 133.854 85.7025C133.555 85.2707 133.144 85.0548 132.621 85.0548C132.106 85.0548 131.695 85.2707 131.389 85.7025C131.089 86.1342 130.94 86.7784 130.94 87.635C130.94 88.4915 131.089 89.1357 131.389 89.5675C131.695 89.9992 132.106 90.2151 132.621 90.2151Z" fill="#B79147"/>
<path d="M182.209 86.8098C183.24 86.8098 184.003 87.0117 184.497 87.4156C184.991 87.8126 185.239 88.3557 185.239 89.0452C185.239 89.4839 185.131 89.8808 184.915 90.236C184.699 90.5912 184.375 90.8732 183.943 91.0821C183.512 91.291 182.979 91.3955 182.345 91.3955C181.823 91.3955 181.318 91.3224 180.831 91.1761C180.343 91.0229 179.932 90.814 179.598 90.5494L180.172 89.4943C180.444 89.7172 180.768 89.8948 181.144 90.0271C181.527 90.1524 181.92 90.2151 182.324 90.2151C182.805 90.2151 183.181 90.1176 183.452 89.9226C183.731 89.7207 183.87 89.4456 183.87 89.0974C183.87 88.7214 183.721 88.4393 183.421 88.2513C183.129 88.0563 182.624 87.9588 181.906 87.9588H180.141L180.517 83.9789H184.81V85.1175H181.666L181.51 86.8098H182.209Z" fill="#B79147"/>
<path d="M189.344 86.7784C189.824 86.7784 190.256 86.8724 190.639 87.0605C191.022 87.2415 191.322 87.5027 191.537 87.8439C191.753 88.1851 191.861 88.5786 191.861 89.0243C191.861 89.4978 191.743 89.9157 191.506 90.2778C191.269 90.633 190.949 90.908 190.545 91.103C190.141 91.298 189.688 91.3955 189.187 91.3955C188.184 91.3955 187.404 91.0821 186.847 90.4554C186.297 89.8286 186.022 88.9303 186.022 87.7603C186.022 86.9386 186.172 86.2387 186.471 85.6607C186.771 85.0757 187.188 84.6335 187.725 84.3341C188.268 84.0277 188.895 83.8745 189.605 83.8745C189.981 83.8745 190.333 83.9162 190.66 83.9998C190.994 84.0764 191.283 84.1913 191.527 84.3445L191.026 85.3682C190.663 85.1314 190.2 85.0131 189.636 85.0131C188.933 85.0131 188.383 85.2289 187.986 85.6607C187.589 86.0925 187.39 86.7157 187.39 87.5305V87.541C187.606 87.2903 187.881 87.1022 188.216 86.9769C188.55 86.8446 188.926 86.7784 189.344 86.7784ZM189.114 90.33C189.539 90.33 189.883 90.2186 190.148 89.9958C190.413 89.7659 190.545 89.463 190.545 89.087C190.545 88.7039 190.413 88.401 190.148 88.1782C189.883 87.9553 189.528 87.8439 189.083 87.8439C188.644 87.8439 188.285 87.9623 188.007 88.1991C187.735 88.4358 187.599 88.7353 187.599 89.0974C187.599 89.4526 187.732 89.7485 187.996 89.9853C188.268 90.2151 188.64 90.33 189.114 90.33Z" fill="#B79147"/>
<path d="M158.225 62.8856H156.93V64.5465H155.614V62.8856H151.602V61.9455L155.206 57.2344H156.658L153.263 61.7366H155.655V60.2637H156.93V61.7366H158.225V62.8856Z" fill="#B79147"/>
<path d="M161.807 60.2532C162.483 60.3368 162.998 60.5666 163.353 60.9427C163.709 61.3187 163.886 61.7888 163.886 62.3529C163.886 62.7777 163.778 63.1642 163.562 63.5124C163.346 63.8606 163.019 64.1391 162.58 64.348C162.149 64.55 161.619 64.651 160.993 64.651C160.47 64.651 159.965 64.5779 159.478 64.4316C158.997 64.2784 158.587 64.0695 158.245 63.8049L158.83 62.7498C159.095 62.9727 159.415 63.1502 159.791 63.2826C160.174 63.4079 160.568 63.4706 160.972 63.4706C161.452 63.4706 161.828 63.3731 162.1 63.1781C162.378 62.9761 162.518 62.7046 162.518 62.3633C162.518 62.0221 162.385 61.7575 162.121 61.5694C161.863 61.3744 161.466 61.2769 160.93 61.2769H160.261V60.3473L161.922 58.373H158.6V57.2344H163.583V58.1432L161.807 60.2532Z" fill="#B79147"/>
<path d="M240.383 57.2344V58.1432L237.541 64.5465H236.089L238.837 58.3834H235.964V59.6265H234.7V57.2344H240.383Z" fill="#B79147"/>
<path d="M244.254 60.2532C244.929 60.3368 245.444 60.5666 245.8 60.9427C246.155 61.3187 246.332 61.7888 246.332 62.3529C246.332 62.7777 246.224 63.1642 246.009 63.5124C245.793 63.8606 245.465 64.1391 245.027 64.348C244.595 64.55 244.066 64.651 243.439 64.651C242.917 64.651 242.412 64.5779 241.924 64.4316C241.444 64.2784 241.033 64.0695 240.692 63.8049L241.277 62.7498C241.541 62.9727 241.862 63.1502 242.238 63.2826C242.621 63.4079 243.014 63.4706 243.418 63.4706C243.898 63.4706 244.275 63.3731 244.546 63.1781C244.825 62.9761 244.964 62.7046 244.964 62.3633C244.964 62.0221 244.832 61.7575 244.567 61.5694C244.309 61.3744 243.912 61.2769 243.376 61.2769H242.708V60.3473L244.369 58.373H241.047V57.2344H246.029V58.1432L244.254 60.2532Z" fill="#B79147"/>
<path d="M268.566 60.7024C268.949 60.8765 269.242 61.1133 269.444 61.4127C269.653 61.7052 269.757 62.0499 269.757 62.4469C269.757 62.8925 269.632 63.2825 269.381 63.6168C269.137 63.9511 268.789 64.2087 268.337 64.3898C267.884 64.5639 267.358 64.6509 266.759 64.6509C266.16 64.6509 265.635 64.5639 265.182 64.3898C264.736 64.2087 264.392 63.9511 264.148 63.6168C263.904 63.2825 263.782 62.8925 263.782 62.4469C263.782 62.0499 263.883 61.7052 264.085 61.4127C264.287 61.1133 264.576 60.8765 264.952 60.7024C264.66 60.5422 264.433 60.3333 264.273 60.0756C264.12 59.811 264.043 59.5081 264.043 59.1668C264.043 58.756 264.155 58.3973 264.378 58.0909C264.607 57.7845 264.928 57.5477 265.339 57.3806C265.75 57.2135 266.223 57.1299 266.759 57.1299C267.302 57.1299 267.78 57.2135 268.19 57.3806C268.601 57.5477 268.922 57.7845 269.151 58.0909C269.381 58.3973 269.496 58.756 269.496 59.1668C269.496 59.5081 269.416 59.8075 269.256 60.0652C269.096 60.3228 268.866 60.5352 268.566 60.7024ZM266.759 58.1954C266.335 58.1954 265.997 58.2859 265.746 58.467C265.502 58.648 265.38 58.9022 265.38 59.2295C265.38 59.5429 265.502 59.7936 265.746 59.9816C265.997 60.1627 266.335 60.2532 266.759 60.2532C267.191 60.2532 267.532 60.1627 267.783 59.9816C268.034 59.7936 268.159 59.5429 268.159 59.2295C268.159 58.9022 268.03 58.648 267.773 58.467C267.522 58.2859 267.184 58.1954 266.759 58.1954ZM266.759 63.5855C267.261 63.5855 267.658 63.481 267.95 63.2721C268.243 63.0632 268.389 62.7742 268.389 62.4051C268.389 62.0429 268.243 61.7574 267.95 61.5485C267.658 61.3396 267.261 61.2351 266.759 61.2351C266.258 61.2351 265.864 61.3396 265.579 61.5485C265.293 61.7574 265.151 62.0429 265.151 62.4051C265.151 62.7742 265.293 63.0632 265.579 63.2721C265.864 63.481 266.258 63.5855 266.759 63.5855Z" fill="#B79147"/>
<path d="M272.926 60.0652C273.957 60.0652 274.719 60.2671 275.214 60.671C275.708 61.068 275.955 61.6112 275.955 62.3006C275.955 62.7393 275.847 63.1363 275.631 63.4914C275.416 63.8466 275.092 64.1286 274.66 64.3376C274.228 64.5465 273.696 64.6509 273.062 64.6509C272.539 64.6509 272.035 64.5778 271.547 64.4316C271.06 64.2784 270.649 64.0694 270.315 63.8048L270.889 62.7498C271.161 62.9726 271.484 63.1502 271.861 63.2825C272.244 63.4079 272.637 63.4706 273.041 63.4706C273.521 63.4706 273.897 63.3731 274.169 63.1781C274.448 62.9761 274.587 62.701 274.587 62.3528C274.587 61.9768 274.437 61.6947 274.138 61.5067C273.845 61.3117 273.34 61.2142 272.623 61.2142H270.858L271.234 57.2343H275.527V58.3729H272.383L272.226 60.0652H272.926Z" fill="#B79147"/>
<path d="M266.289 83.8745C267.292 83.8745 268.068 84.1878 268.618 84.8146C269.176 85.4413 269.454 86.3397 269.454 87.5096C269.454 88.3314 269.304 89.0347 269.005 89.6197C268.706 90.1977 268.284 90.6399 267.741 90.9463C267.205 91.2458 266.582 91.3955 265.871 91.3955C265.495 91.3955 265.14 91.3572 264.806 91.2806C264.478 91.197 264.193 91.0786 263.949 90.9254L264.451 89.9017C264.813 90.1385 265.276 90.2569 265.84 90.2569C266.543 90.2569 267.093 90.041 267.49 89.6093C267.887 89.1775 268.086 88.5542 268.086 87.7394V87.729C267.87 87.9797 267.595 88.1712 267.26 88.3035C266.926 88.4289 266.55 88.4915 266.132 88.4915C265.652 88.4915 265.22 88.401 264.837 88.2199C264.454 88.0319 264.155 87.7673 263.939 87.4261C263.723 87.0848 263.615 86.6914 263.615 86.2457C263.615 85.7721 263.733 85.3578 263.97 85.0026C264.207 84.6405 264.527 84.3619 264.931 84.1669C265.335 83.9719 265.788 83.8745 266.289 83.8745ZM266.393 87.4261C266.832 87.4261 267.187 87.3077 267.459 87.0709C267.738 86.8341 267.877 86.5347 267.877 86.1726C267.877 85.8174 267.741 85.5249 267.469 85.2951C267.205 85.0583 266.836 84.9399 266.362 84.9399C265.937 84.9399 265.593 85.0548 265.328 85.2846C265.063 85.5075 264.931 85.8069 264.931 86.183C264.931 86.566 265.063 86.8689 265.328 87.0918C265.593 87.3146 265.948 87.4261 266.393 87.4261Z" fill="#B79147"/>
<path d="M273.423 91.3955C272.838 91.3955 272.316 91.2493 271.856 90.9568C271.397 90.6573 271.034 90.2256 270.77 89.6615C270.505 89.0904 270.373 88.4149 270.373 87.635C270.373 86.855 270.505 86.183 270.77 85.6189C271.034 85.0479 271.397 84.6161 271.856 84.3236C272.316 84.0242 272.838 83.8745 273.423 83.8745C274.008 83.8745 274.53 84.0242 274.99 84.3236C275.457 84.6161 275.822 85.0479 276.087 85.6189C276.351 86.183 276.484 86.855 276.484 87.635C276.484 88.4149 276.351 89.0904 276.087 89.6615C275.822 90.2256 275.457 90.6573 274.99 90.9568C274.53 91.2493 274.008 91.3955 273.423 91.3955ZM273.423 90.2151C273.945 90.2151 274.356 89.9992 274.656 89.5675C274.962 89.1357 275.115 88.4915 275.115 87.635C275.115 86.7784 274.962 86.1342 274.656 85.7025C274.356 85.2707 273.945 85.0548 273.423 85.0548C272.908 85.0548 272.497 85.2707 272.19 85.7025C271.891 86.1342 271.741 86.7784 271.741 87.635C271.741 88.4915 271.891 89.1357 272.19 89.5675C272.497 89.9992 272.908 90.2151 273.423 90.2151Z" fill="#B79147"/>
<path d="M158.225 37.6269H156.93V39.2878H155.613V37.6269H151.602V36.6868L155.206 31.9756H156.658L153.263 36.4778H155.655V35.005H156.93V36.4778H158.225V37.6269Z" fill="#B79147"/>
<path d="M163.843 31.9756V32.8844L161.001 39.2878H159.549L162.297 33.1247H159.424V34.3678H158.16V31.9756H163.843Z" fill="#B79147"/>
<path d="M182.209 34.8066C183.24 34.8066 184.003 35.0085 184.497 35.4124C184.991 35.8094 185.239 36.3526 185.239 37.042C185.239 37.4807 185.131 37.8777 184.915 38.2328C184.699 38.588 184.375 38.87 183.943 39.079C183.512 39.2879 182.979 39.3923 182.345 39.3923C181.823 39.3923 181.318 39.3192 180.831 39.173C180.343 39.0198 179.932 38.8108 179.598 38.5462L180.172 37.4912C180.444 37.714 180.768 37.8916 181.144 38.0239C181.527 38.1493 181.92 38.2119 182.324 38.2119C182.805 38.2119 183.181 38.1144 183.452 37.9195C183.731 37.7175 183.87 37.4424 183.87 37.0942C183.87 36.7182 183.721 36.4361 183.421 36.2481C183.129 36.0531 182.624 35.9556 181.906 35.9556H180.141L180.517 31.9757H184.81V33.1143H181.666L181.51 34.8066H182.209Z" fill="#B79147"/>
<path d="M188.487 31.8713C189.49 31.8713 190.266 32.1847 190.817 32.8114C191.374 33.4382 191.652 34.3365 191.652 35.5065C191.652 36.3282 191.503 37.0316 191.203 37.6165C190.904 38.1945 190.482 38.6367 189.939 38.9432C189.403 39.2426 188.78 39.3923 188.069 39.3923C187.693 39.3923 187.338 39.354 187.004 39.2774C186.677 39.1939 186.391 39.0755 186.147 38.9223L186.649 37.8986C187.011 38.1353 187.474 38.2537 188.038 38.2537C188.741 38.2537 189.292 38.0378 189.688 37.6061C190.085 37.1743 190.284 36.551 190.284 35.7363V35.7258C190.068 35.9765 189.793 36.168 189.459 36.3003C189.124 36.4257 188.748 36.4884 188.331 36.4884C187.85 36.4884 187.418 36.3978 187.035 36.2168C186.652 36.0287 186.353 35.7641 186.137 35.4229C185.921 35.0817 185.813 34.6882 185.813 34.2425C185.813 33.769 185.931 33.3546 186.168 32.9994C186.405 32.6373 186.725 32.3588 187.129 32.1638C187.533 31.9688 187.986 31.8713 188.487 31.8713ZM188.592 35.4229C189.03 35.4229 189.386 35.3045 189.657 35.0677C189.936 34.831 190.075 34.5315 190.075 34.1694C190.075 33.8142 189.939 33.5217 189.668 33.2919C189.403 33.0551 189.034 32.9368 188.56 32.9368C188.136 32.9368 187.791 33.0517 187.526 33.2815C187.262 33.5043 187.129 33.8038 187.129 34.1798C187.129 34.5628 187.262 34.8658 187.526 35.0886C187.791 35.3115 188.146 35.4229 188.592 35.4229Z" fill="#B79147"/>
<path d="M211.459 34.7752C211.939 34.7752 212.371 34.8693 212.754 35.0573C213.137 35.2383 213.436 35.4995 213.652 35.8407C213.868 36.182 213.976 36.5754 213.976 37.0211C213.976 37.4947 213.858 37.9125 213.621 38.2746C213.384 38.6298 213.064 38.9049 212.66 39.0998C212.256 39.2948 211.803 39.3923 211.302 39.3923C210.299 39.3923 209.519 39.079 208.962 38.4522C208.412 37.8254 208.137 36.9271 208.137 35.7572C208.137 34.9354 208.287 34.2355 208.586 33.6575C208.886 33.0726 209.303 32.6303 209.84 32.3309C210.383 32.0245 211.01 31.8713 211.72 31.8713C212.096 31.8713 212.448 31.9131 212.775 31.9966C213.109 32.0732 213.398 32.1881 213.642 32.3413L213.14 33.365C212.778 33.1283 212.315 33.0099 211.751 33.0099C211.048 33.0099 210.498 33.2258 210.101 33.6575C209.704 34.0893 209.505 34.7126 209.505 35.5273V35.5378C209.721 35.2871 209.996 35.0991 210.331 34.9737C210.665 34.8414 211.041 34.7752 211.459 34.7752ZM211.229 38.3268C211.654 38.3268 211.998 38.2154 212.263 37.9926C212.528 37.7628 212.66 37.4598 212.66 37.0838C212.66 36.7008 212.528 36.3978 212.263 36.175C211.998 35.9521 211.643 35.8407 211.198 35.8407C210.759 35.8407 210.4 35.9591 210.122 36.1959C209.85 36.4327 209.714 36.7321 209.714 37.0942C209.714 37.4494 209.847 37.7454 210.111 37.9821C210.383 38.2119 210.755 38.3268 211.229 38.3268Z" fill="#B79147"/>
<path d="M219.982 38.1388V39.2879H214.592V38.3791L217.496 35.6214C217.823 35.308 218.043 35.0364 218.154 34.8066C218.272 34.5698 218.332 34.3365 218.332 34.1067C218.332 33.7655 218.217 33.5043 217.987 33.3233C217.757 33.1422 217.419 33.0517 216.974 33.0517C216.229 33.0517 215.657 33.3058 215.261 33.8142L214.31 33.083C214.595 32.7 214.978 32.404 215.459 32.1951C215.946 31.9792 216.49 31.8713 217.089 31.8713C217.882 31.8713 218.516 32.0593 218.99 32.4354C219.463 32.8114 219.7 33.3233 219.7 33.9709C219.7 34.3678 219.616 34.7404 219.449 35.0886C219.282 35.4368 218.962 35.8338 218.488 36.2795L216.535 38.1388H219.982Z" fill="#B79147"/>
<path d="M276.588 187.112H257.064V161.195M284.721 160.925H257.064V135.008M284.721 134.738H257.064M33.5204 170.509C33.5204 173.478 33.5204 175.773 33.6553 177.528C33.7901 179.283 34.06 180.497 34.5996 181.577C35.5439 183.467 37.163 185.087 39.0515 186.032C40.1309 186.571 41.3451 186.842 43.0989 186.977C44.8527 187.112 47.1462 187.112 50.1142 187.112H61.1766V161.195H33.5204V170.509ZM173.286 187.112H200.942V161.195H173.286V187.112ZM61.4465 187.112H89.1027V161.195H61.4465V187.112ZM201.212 187.112H228.869V161.195H201.212V187.112ZM89.3726 187.112H117.029V161.195H89.3726V187.112ZM229.138 187.112H256.795V161.195H229.138V187.112ZM117.434 187.112H145.09V161.195H117.434V187.112ZM145.36 187.112H173.016V161.195H145.36V187.112ZM33.5204 160.925H61.1766V135.008H33.5204V160.925ZM173.286 160.925H200.942V135.008H173.286V160.925ZM61.4465 160.925H89.1027V135.008H61.4465V160.925ZM201.212 160.925H228.869V135.008H201.212V160.925ZM89.3726 160.925H117.029V135.008H89.3726V160.925ZM229.138 160.925H256.795V135.008H229.138V160.925ZM117.434 160.925H145.09V135.008H117.434V160.925ZM145.36 160.925H173.016V135.008H145.36V160.925ZM33.5204 134.738H61.1766V108.822H33.5204V134.738ZM173.286 134.738H200.942V108.822H173.286V134.738ZM61.4465 134.738H89.1027V108.822H61.4465V134.738ZM201.212 134.738H228.869V108.822H201.212V134.738ZM89.3726 134.738H117.029V108.822H89.3726V134.738ZM229.138 134.738H256.795V108.822H229.138V134.738ZM117.434 134.738H145.09V108.822H117.434V134.738ZM145.36 134.738H173.016V108.822H145.36V134.738Z" stroke="white" stroke-opacity="0.59" stroke-width="2.21552"/>
<path d="M284.92 28.4551C283.975 26.5653 282.357 24.9456 280.467 24.0006C279.388 23.4607 278.174 23.1908 276.42 23.0558C274.666 22.9208 272.374 22.9208 269.405 22.9208H50.0118C47.0438 22.9208 44.7504 22.9208 42.9966 23.0558C41.2428 23.1908 40.0286 23.4607 38.9494 24.0006C37.0606 24.9456 35.4418 26.5653 34.4973 28.4551C33.9577 29.5349 33.688 30.7498 33.553 32.5045C33.4181 34.2593 33.4181 36.554 33.4181 39.5236V101.211H285.999V39.5236C285.999 36.554 285.999 34.2593 285.863 32.5045C285.73 30.7498 285.458 29.5349 284.92 28.4551ZM284.92 28.4551L285.458 28.1851" stroke="white" stroke-opacity="0.47" stroke-width="2.21552"/>
<path d="M33.1273 170.595C33.1273 173.549 33.1273 175.831 33.2498 177.576C33.3721 179.321 33.6171 180.529 34.1069 181.603C34.9639 183.483 36.4334 185.094 38.1475 186.033C39.1273 186.57 40.2293 186.839 41.8211 186.973C43.4129 187.107 45.4945 187.107 48.1883 187.107H271.533C274.225 187.107 276.307 187.107 277.899 186.973C279.492 186.839 280.593 186.57 281.572 186.033C283.287 185.094 284.757 183.483 285.612 181.603L286.103 181.872L285.612 181.603C286.103 180.529 286.349 179.321 286.47 177.576C286.593 175.831 286.593 173.549 286.593 170.595V109.247H33.1273V170.595Z" stroke="white" stroke-opacity="0.47" stroke-width="2.21552"/>
<path d="M48.0293 209.872H58.8216C67.0504 209.872 73.6627 216.486 73.6627 224.721V235.519C73.6627 243.754 67.0504 250.368 58.8216 250.368H48.0293C39.8006 250.368 33.1882 243.754 33.1882 235.519V224.721C33.1882 216.486 39.8006 209.872 48.0293 209.872Z" fill="white" fill-opacity="0.51" stroke="url(#paint0_linear_1_187)" stroke-width="1.20312"/>
<path d="M60.1719 226.745L51.4029 235.519L46.6804 230.794L48.7059 228.769L51.4029 231.47L58.1486 224.721L60.1719 226.745Z" fill="#B79147"/>
<path d="M255.917 23.0249H275.18C278.682 23.0249 285.688 25.1274 285.688 33.5377C285.688 41.9477 285.688 83.1808 285.688 101.87" stroke="white" stroke-opacity="0.47" stroke-width="2.35845"/>
<path d="M256.019 187.006H275.282C278.784 187.006 285.79 184.904 285.79 176.493C285.79 168.083 285.79 126.85 285.79 108.161" stroke="white" stroke-opacity="0.47" stroke-width="2.35845"/>
<defs>
<filter id="filter0_b_1_187" x="-23.4556" y="-23.4556" width="371.994" height="318.177" filterUnits="userSpaceOnUse" color-interpolation-filters="sRGB">
<feFlood flood-opacity="0" result="BackgroundImageFix"/>
<feGaussianBlur in="BackgroundImageFix" stdDeviation="11.9778"/>
<feComposite in2="SourceAlpha" operator="in" result="effect1_backgroundBlur_1_187"/>
<feBlend mode="normal" in="SourceGraphic" in2="effect1_backgroundBlur_1_187" result="shape"/>
</filter>
<linearGradient id="paint0_linear_1_187" x1="32.7912" y1="215.212" x2="70.3297" y2="250.051" gradientUnits="userSpaceOnUse">
<stop stop-color="white"/>
<stop offset="1" stop-color="white" stop-opacity="0"/>
</linearGradient>
</defs>
</svg>
