<svg width="187" height="54" viewBox="0 0 187 54" fill="none" xmlns="http://www.w3.org/2000/svg">
<g id="logo / stoloto / horizontal full">
<path id="logo-horizontal" fill-rule="evenodd" clip-rule="evenodd" d="M26.1857 11.1796L29.4768 9.47147C29.763 9.32912 29.9061 8.90207 29.763 8.5462L25.971 1.21525C25.7564 0.859378 25.3986 0.788204 25.0409 0.930553L21.7497 2.63874C21.392 2.85226 21.3204 3.20813 21.4635 3.564L25.2555 10.895C25.4702 11.2508 25.8279 11.322 26.1857 11.1796ZM18.2444 44.1347C18.1728 44.9176 17.8866 45.9852 17.5289 46.6969L14.8101 52.2485C14.8101 52.3909 14.667 52.3909 14.5239 52.3909C6.15289 50.1133 -0.000183105 42.4265 -0.000183105 33.3873C-0.000183105 22.4977 8.94323 13.6009 19.9615 13.6721C21.1778 13.6721 22.3226 13.7432 23.4673 13.9568C23.5389 13.9568 23.6104 14.0279 23.6104 14.0991C23.4979 15.0317 23.2282 17.0788 22.9764 18.9901C22.7477 20.7255 22.5338 22.3489 22.4657 22.9247C22.2097 24.771 21.2095 25.3075 20.1819 25.8586C20.0608 25.9236 19.9392 25.9888 19.8184 26.0564L19.718 26.1086C18.1254 26.9361 16.9783 27.5321 14.5955 26.6258C12.8662 25.9766 11.5089 25.4459 10.3336 24.9863C8.93165 24.4381 7.78867 23.9912 6.58217 23.5653C5.8667 23.2806 4.86503 23.5653 4.57884 24.3482C4.29266 25.1311 4.57885 25.914 5.36587 26.1987C5.36587 26.1987 9.37251 27.6934 11.0181 28.4051C11.6305 28.6821 12.1996 28.9186 12.7269 29.1377C14.9104 30.0452 16.3783 30.6553 17.2427 32.6044C17.7435 33.8144 18.7452 36.3767 18.7452 37.5155C18.6737 39.1525 18.2444 44.1347 18.2444 44.1347ZM39.7083 34.2408C39.2791 44.4899 30.8365 52.8173 20.5337 53.102C19.7466 53.102 18.9596 53.102 18.1726 53.0308C18.0295 53.0308 17.9579 52.8173 18.0295 52.7461L20.8198 47.8351C21.2491 47.1233 21.5353 46.4116 21.6069 45.5575L22.1792 41.287C22.2508 40.433 22.6801 39.5789 23.4671 39.2942L24.8265 38.9383C25.6135 38.6536 26.2574 38.9383 26.6152 39.65C26.9013 40.1482 27.6167 41.5715 27.903 42.141L27.903 42.1411C28.1177 42.497 28.0461 42.924 27.8315 43.1376C27.4766 43.541 27.1667 43.8908 26.8762 44.2187C26.3466 44.8164 25.8817 45.3411 25.3273 45.9845C24.7549 46.6251 24.2541 47.6215 25.2558 48.4756C26.1859 49.3297 27.116 48.4045 27.6884 47.8351C28.4039 47.1233 29.5486 45.771 30.2641 44.9169C30.908 44.2052 31.2658 43.707 31.3373 42.7817C31.3373 42.4258 31.3373 42.07 31.1942 41.6429C31.0605 41.244 30.5367 39.9446 29.8632 38.2741L29.8631 38.2737L29.8629 38.2734C29.0945 36.3673 28.1313 33.9781 27.3307 31.892C26.0428 28.4757 25.3989 24.9881 25.8282 21.3583L26.5436 14.8102C26.5436 14.7391 26.6152 14.6679 26.7583 14.6679C34.5569 17.6572 40.0661 25.344 39.7083 34.2408ZM16.17 16.873C14.0951 17.0865 12.5211 18.9371 12.7357 21.0011C12.9503 23.0652 14.8106 24.5598 16.8854 24.4175C18.9603 24.204 20.5344 22.3534 20.3197 20.2894C20.1051 18.2253 18.2448 16.6595 16.17 16.873ZM177.008 16.8025C171.642 16.8025 167.349 20.5036 167.349 26.1975C167.349 31.8915 171.642 35.5925 177.008 35.5925C182.374 35.5925 186.667 31.8915 186.667 26.1975C186.667 20.5748 182.374 16.8025 177.008 16.8025ZM172.572 26.2683C172.572 29.0441 174.432 30.8234 177.008 30.8234C179.584 30.8234 181.444 29.0441 181.444 26.2683C181.444 23.4925 179.584 21.7131 177.008 21.7131C174.432 21.7131 172.572 23.4925 172.572 26.2683ZM137.299 16.8025C131.933 16.8025 127.641 20.5036 127.641 26.1975C127.641 31.8915 131.933 35.5925 137.299 35.5925C142.666 35.5925 146.958 31.8915 146.958 26.1975C146.958 20.5748 142.666 16.8025 137.299 16.8025ZM132.863 26.2683C132.863 29.0441 134.724 30.8234 137.299 30.8234C139.875 30.8234 141.735 29.0441 141.735 26.2683C141.735 23.4925 139.875 21.7131 137.299 21.7131C134.724 21.7131 132.863 23.4925 132.863 26.2683ZM109.109 17.1575H122.918V35.3069H117.695V21.9262H113.617L113.187 28.1183C113.172 28.2852 113.156 28.4515 113.141 28.617L113.141 28.6173C112.813 32.1925 112.521 35.3781 107.392 35.3781H105.174L105.818 30.9653C108.41 30.9024 108.432 30.4507 108.896 21.2668C108.957 20.0554 109.026 18.692 109.109 17.1575ZM83.4239 26.1975C83.4239 20.5036 87.7167 16.8025 93.0828 16.8025C98.4488 16.8025 102.742 20.5748 102.742 26.1975C102.742 31.8915 98.4488 35.5925 93.0828 35.5925C87.7167 35.5925 83.4239 31.8915 83.4239 26.1975ZM93.0827 30.8234C90.507 30.8234 88.6468 29.0441 88.6468 26.2683C88.6468 23.4925 90.507 21.7131 93.0827 21.7131C95.6584 21.7131 97.5186 23.4925 97.5186 26.2683C97.5186 29.0441 95.6584 30.8234 93.0827 30.8234ZM56.3791 30.3976C53.5172 30.3976 50.9415 29.8994 50.9415 26.056C50.9415 23.2802 52.444 21.9279 55.449 21.9991C56.88 21.9991 58.5256 22.2838 59.7419 22.7108L61.459 18.298C59.5988 17.3727 57.3808 16.9457 55.2344 16.9457C49.0813 16.9457 45.504 20.8603 45.504 26.2695C45.504 32.7464 49.9399 35.5222 55.2344 35.5222C57.2377 35.5222 59.3126 35.1663 61.0297 34.5969L60.9582 29.7571C59.6703 30.1129 57.9532 30.3976 56.3791 30.3976ZM65.3225 17.1575H81.1344L80.2043 21.855H75.6253V35.3069H70.4023V21.9262H65.3225V17.1575ZM165.331 17.2287L165.346 17.1575V17.2287H165.331ZM149.033 17.2287H165.331L164.415 21.855H159.836V35.3069H154.542V21.9262H149.963L149.033 17.2287ZM52.6585 42.5664H48.795V49.6838H47.7218V41.7123H52.6585V42.5664ZM52.8732 45.1302C52.6585 45.6284 52.5154 46.1267 52.5154 46.696C52.5154 47.6213 52.7301 48.4042 53.2309 48.9736C53.7317 49.543 54.3757 49.8277 55.1627 49.8277C55.7351 49.8277 56.1643 49.7565 56.5936 49.4718C56.9514 49.1871 57.3091 48.8313 57.5237 48.4042C57.7384 47.906 57.8815 47.4078 57.8815 46.8384V46.7672C57.8815 45.842 57.6668 45.1302 57.166 44.5608C56.6652 43.9914 56.0213 43.7067 55.2342 43.7067C54.6619 43.7067 54.2326 43.7779 53.8033 44.0626C53.4456 44.2761 53.0878 44.632 52.8732 45.1302ZM53.5171 46.7658C53.5171 47.4064 53.6602 47.9758 53.9464 48.3316C54.2326 48.7587 54.6619 48.901 55.1627 48.901C55.6635 48.901 56.0928 48.6875 56.379 48.3316C56.6652 47.9758 56.8083 47.3352 56.8083 46.6235C56.8083 45.9829 56.6652 45.4135 56.379 45.0576C56.0928 44.6306 55.6635 44.4882 55.1627 44.4882C54.6619 44.4882 54.2326 44.7017 53.9464 45.0576C53.6602 45.4847 53.5171 46.0541 53.5171 46.7658ZM62.4606 48.6164C62.246 48.8299 61.8883 48.9722 61.5305 48.9722C61.0297 48.9722 60.6004 48.7587 60.3142 48.474C60.028 48.1182 59.8849 47.6199 59.8849 46.9082V46.6947C59.8849 45.9829 60.028 45.4135 60.3142 45.0577C60.6004 44.7018 61.0297 44.4883 61.5305 44.4883C61.9598 44.4883 62.246 44.6306 62.5322 44.8441C62.8184 45.0577 62.9615 45.4135 62.9615 45.7694H63.82C63.7485 45.1288 63.5338 44.6306 63.1046 44.2036C62.6753 43.8477 62.1029 43.6342 61.459 43.6342C60.8866 43.6342 60.4573 43.7765 60.028 43.99C59.5987 44.2747 59.3125 44.6306 59.0979 45.0577C58.8833 45.5559 58.8117 46.0541 58.8117 46.6235V46.7658C58.8117 47.6911 59.0264 48.4028 59.5272 48.9722C60.028 49.4705 60.672 49.7552 61.459 49.7552C61.8883 49.7552 62.246 49.684 62.6037 49.4705C62.9615 49.3281 63.2477 49.0434 63.4623 48.7587C63.6769 48.4028 63.82 48.1182 63.82 47.7623H62.8899C62.8899 48.1182 62.7468 48.4028 62.4606 48.6164ZM67.0396 48.1892L68.399 43.7764H69.4722L67.1111 50.6091C66.7534 51.6055 66.181 52.1037 65.3224 52.1037H65.1078L64.75 52.0326V51.1785H65.0362C65.394 51.1785 65.6802 51.1073 65.8233 50.965C66.0379 50.8226 66.181 50.5379 66.3241 50.182L66.5387 49.6126L64.3923 43.7764H65.5371L67.0396 48.1892ZM70.4027 48.4027L70.0449 48.8297H69.6157V51.392H70.6173V49.6838H74.7671V51.392H75.7687V48.8297H74.9817V43.7764H71.1182L71.0466 46.1251C71.0466 47.1215 70.832 47.9045 70.4027 48.4027ZM71.2608 48.8311H73.9796V44.703H72.1194L72.0478 46.1264C71.9763 47.2652 71.7616 48.1905 71.2608 48.8311ZM80.4816 49.3637C80.503 49.4945 80.5204 49.6013 80.562 49.684V49.6128H81.7067V49.5416C81.5636 49.2569 81.4921 48.8299 81.4921 48.2605V45.5559C81.4921 44.9153 81.349 44.4883 80.9197 44.1324C80.4904 43.7765 79.9896 43.6342 79.2741 43.6342C78.8448 43.6342 78.4155 43.7053 78.0578 43.8477C77.7001 43.99 77.4139 44.2036 77.1992 44.4883C76.9846 44.773 76.913 45.0577 76.913 45.3424H77.9147C77.9147 45.1288 78.0578 44.9153 78.2724 44.7018C78.5586 44.4883 78.8448 44.4171 79.2026 44.4171C79.6319 44.4171 79.918 44.4883 80.1327 44.7018C80.3473 44.9153 80.4189 45.2 80.4189 45.5559V46.0541H79.4172C78.5586 46.0541 77.9147 46.1964 77.4139 46.5523C76.913 46.9082 76.6984 47.3352 76.6984 47.9758C76.6984 48.474 76.913 48.9011 77.2708 49.2569C77.6285 49.6128 78.1293 49.7552 78.7017 49.7552C79.4172 49.7552 79.918 49.5416 80.4189 49.0434C80.4488 49.1627 80.4663 49.2694 80.4816 49.3637ZM78.845 48.9007C79.1312 48.9007 79.4889 48.8295 79.7751 48.6872C80.0613 48.5448 80.276 48.3313 80.4191 48.0466V46.8366H79.632C78.4157 46.8366 77.7718 47.1925 77.7718 47.9043C77.7718 48.1889 77.8434 48.4736 78.058 48.616C78.2726 48.8295 78.4873 48.9007 78.845 48.9007ZM87.3588 48.9722C87.7881 48.4028 88.0028 47.6911 88.0028 46.7658H88.0743V46.6235C88.0743 45.6982 87.8597 44.9865 87.4304 44.4171C87.0011 43.9189 86.4287 43.6342 85.7132 43.6342C84.9978 43.6342 84.4254 43.9189 83.9961 44.4171L83.9246 43.7765H82.9944V51.9616H83.9961V49.1146C84.4254 49.6128 84.9978 49.8263 85.7132 49.8263C86.3572 49.8263 86.9296 49.5416 87.3588 48.9722ZM87.0013 46.696C87.0013 46.0554 86.8582 45.4861 86.572 45.1302C86.2858 44.7743 85.9281 44.5608 85.4273 44.5608C84.7833 44.5608 84.354 44.8455 84.0679 45.3437V48.1907C84.354 48.7601 84.8549 48.9736 85.4988 48.9736C85.9996 48.9736 86.3574 48.7601 86.6436 48.4042C86.8582 47.9772 87.0013 47.4078 87.0013 46.696ZM92.5819 48.6164C92.3673 48.8299 92.0095 48.9722 91.6518 48.9722C91.151 48.9722 90.7932 48.7587 90.3639 48.474C90.0778 48.1182 89.9347 47.6199 89.9347 46.9082V46.6947C89.9347 45.9829 90.0778 45.4135 90.3639 45.0577C90.6501 44.7018 91.0794 44.4883 91.5803 44.4883C92.0095 44.4883 92.2957 44.6306 92.5819 44.8441C92.8681 45.0577 93.0112 45.4135 93.0112 45.7694H93.9413C93.8698 45.1288 93.6551 44.6306 93.2258 44.2036C92.7966 43.8477 92.2242 43.6342 91.5803 43.6342C91.0079 43.6342 90.5786 43.7765 90.1493 43.99C89.72 44.2747 89.4338 44.6306 89.2192 45.0577C89.0045 45.5559 88.933 46.0541 88.933 46.6235V46.7658C88.933 47.6911 89.1476 48.4028 89.6485 48.9722C90.1493 49.4705 90.7932 49.7552 91.5803 49.7552C92.0095 49.7552 92.3673 49.684 92.725 49.4705C93.0828 49.3281 93.3689 49.0434 93.5836 48.7587C93.7982 48.4028 93.9413 48.1182 93.9413 47.7623H93.0112C93.0112 48.1182 92.8681 48.4028 92.5819 48.6164ZM99.5936 44.5608H97.5903V49.6854H96.5886V44.5608H94.6568V43.7067H99.5936V44.5608ZM100.667 43.7764V49.6838H103.386C104.101 49.6838 104.674 49.5415 105.103 49.2568C105.461 48.9009 105.675 48.545 105.675 47.9756C105.675 47.6909 105.532 47.3351 105.317 47.1215C105.103 46.8368 104.817 46.6945 104.459 46.6233C104.745 46.481 105.031 46.3386 105.174 46.1251C105.317 45.9116 105.389 45.6981 105.389 45.4134C105.389 44.9151 105.174 44.4881 104.745 44.2034C104.387 43.9187 103.743 43.7764 102.956 43.7764H100.667ZM101.74 46.269H103.028C103.958 46.269 104.459 45.9843 104.459 45.4149C104.459 44.8455 104.029 44.5608 103.099 44.5608H101.74V46.269ZM101.74 48.8307V47.1225H103.314C104.172 47.1225 104.602 47.4072 104.602 47.9766C104.602 48.2613 104.53 48.4749 104.315 48.6172C104.101 48.7596 103.815 48.8307 103.385 48.8307H101.74ZM109.467 49.7552C108.68 49.7552 108.037 49.4705 107.536 48.9722C107.035 48.474 106.749 47.7623 106.749 46.837V46.6235C106.749 46.0541 106.892 45.4847 107.106 45.0577C107.321 44.6306 107.679 44.2036 108.037 43.99C108.466 43.7053 108.895 43.6342 109.324 43.6342C110.111 43.6342 110.684 43.9189 111.113 44.4171C111.542 44.9153 111.757 45.627 111.757 46.6235V47.0505H107.75C107.75 47.6199 107.965 48.1182 108.251 48.474C108.609 48.8299 108.967 49.0434 109.467 49.0434C109.825 49.0434 110.111 48.9722 110.398 48.8299C110.612 48.6875 110.898 48.474 111.042 48.2605L111.685 48.7587C111.256 49.3993 110.469 49.7552 109.467 49.7552ZM108.394 44.9153C108.608 44.6306 108.966 44.4882 109.395 44.4882C109.825 44.4882 110.111 44.6306 110.469 44.9153C110.755 45.2 110.898 45.627 110.898 46.1252V46.1964H107.893C107.964 45.627 108.107 45.2 108.394 44.9153ZM117.767 49.6838H116.836V47.1927H114.118V49.6838H113.044V43.7764H114.046V46.3386H116.765V43.7764H117.767V49.6838ZM123.347 49.6838H124.349V43.7764H123.347V46.3386H120.629V43.7764H119.627V49.6838H120.629V47.1927H123.347V49.6838ZM127.068 45.7692H128.642C129.286 45.7692 129.858 45.9828 130.216 46.2675C130.574 46.6233 130.788 47.0504 130.788 47.6909C130.788 48.2603 130.574 48.7585 130.216 49.1144C129.787 49.4703 129.286 49.6838 128.57 49.6838H126.066V43.7764H127.068V45.7692ZM127.068 48.8312V46.6248H128.57C128.928 46.696 129.214 46.7672 129.429 46.9807C129.643 47.1942 129.715 47.4077 129.715 47.7636C129.715 48.1195 129.643 48.333 129.429 48.5465C129.214 48.7601 128.928 48.8312 128.57 48.8312H127.068ZM132.935 49.6838H131.933V43.7764H132.935V49.6838ZM135.224 48.9722C135.725 49.4705 136.369 49.7552 137.156 49.7552C138.158 49.7552 138.945 49.3993 139.374 48.7587L138.73 48.2605C138.587 48.474 138.301 48.6875 138.086 48.8299C137.8 48.9722 137.514 49.0434 137.156 49.0434C136.655 49.0434 136.298 48.8299 135.94 48.474C135.654 48.1182 135.439 47.6199 135.439 47.0505H139.446V46.6235C139.446 45.627 139.231 44.9153 138.802 44.4171C138.372 43.9189 137.8 43.6342 137.013 43.6342C136.584 43.6342 136.155 43.7053 135.725 43.99C135.367 44.2036 135.01 44.6306 134.795 45.0577C134.58 45.4847 134.437 46.0541 134.437 46.6235V46.837C134.437 47.7623 134.724 48.474 135.224 48.9722ZM137.013 44.4882C136.584 44.4882 136.226 44.6306 136.011 44.9153C135.725 45.2 135.582 45.627 135.51 46.1964H138.515V46.1252C138.515 45.627 138.372 45.2 138.086 44.9153C137.8 44.6306 137.442 44.4882 137.013 44.4882ZM148.318 49.6838V43.7764H144.383L144.24 46.3386C144.168 47.2639 144.096 47.9045 143.953 48.2603C143.81 48.6162 143.596 48.7586 143.238 48.8297H142.952V49.755H143.381C143.953 49.6838 144.383 49.4703 144.669 49.0433C144.955 48.6162 145.098 47.8333 145.17 46.8368L145.313 44.6304H147.316V49.6838H148.318ZM149.677 46.696C149.677 46.1267 149.82 45.6284 150.034 45.1302C150.249 44.632 150.607 44.2761 150.964 44.0626C151.394 43.7779 151.823 43.7067 152.395 43.7067C153.182 43.7067 153.826 43.9914 154.327 44.5608C154.828 45.1302 155.043 45.842 155.043 46.7672V46.8384C155.043 47.4078 154.899 47.906 154.685 48.4042C154.47 48.8313 154.112 49.1871 153.755 49.4718C153.325 49.7565 152.896 49.8277 152.324 49.8277C151.537 49.8277 150.893 49.543 150.392 48.9736C149.963 48.4042 149.677 47.6213 149.677 46.696ZM151.108 48.3316C150.822 47.9758 150.679 47.4064 150.679 46.7658C150.679 46.0541 150.893 45.4847 151.108 45.0576C151.394 44.7017 151.823 44.4882 152.324 44.4882C152.825 44.4882 153.254 44.6306 153.541 45.0576C153.827 45.4135 153.97 45.9829 153.97 46.6235C153.97 47.3352 153.827 47.9758 153.541 48.3316C153.254 48.6875 152.825 48.901 152.324 48.901C151.823 48.901 151.394 48.7587 151.108 48.3316ZM160.695 44.5608H158.691V49.6854H157.69V44.5608H155.758V43.7067H160.695V44.5608ZM161.768 48.9722C162.269 49.4705 162.912 49.7552 163.699 49.7552C164.701 49.7552 165.417 49.3993 165.917 48.7587L165.274 48.2605C165.13 48.474 164.844 48.6875 164.63 48.8299C164.343 48.9722 164.057 49.0434 163.699 49.0434C163.199 49.0434 162.841 48.8299 162.483 48.474C162.197 48.1182 161.982 47.6199 161.982 47.0505H165.989V46.6235C165.989 45.627 165.774 44.9153 165.345 44.4171C164.916 43.9189 164.343 43.6342 163.556 43.6342C163.127 43.6342 162.698 43.7053 162.269 43.99C161.911 44.2036 161.553 44.6306 161.338 45.0577C161.124 45.4847 160.981 46.0541 160.981 46.6235V46.837C160.981 47.7623 161.267 48.474 161.768 48.9722ZM163.557 44.4882C163.127 44.4882 162.77 44.6306 162.555 44.9153C162.269 45.2 162.126 45.627 162.054 46.1964H165.059V46.1252C165.059 45.627 164.916 45.2 164.63 44.9153C164.344 44.6306 163.986 44.4882 163.557 44.4882ZM171.57 48.9722C172 48.4028 172.214 47.6911 172.214 46.7658H172.286V46.6235C172.286 45.6982 172.071 44.9865 171.642 44.4171C171.213 43.9189 170.64 43.6342 169.925 43.6342C169.209 43.6342 168.637 43.9189 168.208 44.4171L168.136 43.7765H167.206V51.9616H168.208V49.1146C168.637 49.6128 169.209 49.8263 169.925 49.8263C170.569 49.8263 171.141 49.5416 171.57 48.9722ZM171.212 46.696C171.212 46.0554 171.069 45.4861 170.783 45.1302C170.497 44.7743 170.139 44.5608 169.638 44.5608C168.994 44.5608 168.565 44.8455 168.279 45.3437V48.1907C168.565 48.7601 169.066 48.9736 169.71 48.9736C170.211 48.9736 170.568 48.7601 170.855 48.4042C171.069 47.9772 171.212 47.4078 171.212 46.696ZM174.003 48.9722C174.504 49.4705 175.148 49.7552 175.935 49.7552C176.936 49.7552 177.723 49.3993 178.153 48.7587L177.509 48.2605C177.366 48.474 177.079 48.6875 176.865 48.8299C176.578 48.9722 176.292 49.0434 175.935 49.0434C175.434 49.0434 175.076 48.8299 174.718 48.474C174.432 48.1182 174.217 47.6199 174.217 47.0505H178.224V46.6235C178.224 45.627 178.009 44.9153 177.58 44.4171C177.151 43.9189 176.578 43.6342 175.791 43.6342C175.362 43.6342 174.933 43.7053 174.504 43.99C174.146 44.2036 173.788 44.6306 173.574 45.0577C173.359 45.4847 173.216 46.0541 173.216 46.6235V46.837C173.216 47.7623 173.502 48.474 174.003 48.9722ZM175.863 44.4882C175.434 44.4882 175.076 44.6306 174.861 44.9153C174.575 45.2 174.432 45.627 174.36 46.1964H177.365V46.1252C177.365 45.627 177.222 45.2 176.936 44.9153C176.578 44.6306 176.292 44.4882 175.863 44.4882ZM184.306 43.7764H183.304L180.585 48.118V43.7764H179.584V49.6838H180.585L183.304 45.3422V49.6838H184.306V43.7764Z" fill="white"/>
</g>
</svg>
