<svg width="60" height="33" viewBox="0 0 60 33" fill="none" xmlns="http://www.w3.org/2000/svg">
<rect width="60" height="33" fill="#CCCCCC"/>
<g id="Desktop" clip-path="url(#clip0_0_1)">
<rect width="1920" height="10431" transform="translate(-1384 -10042)" fill="#0F3017"/>
<g id="&#208;&#187;&#208;&#184;&#208;&#179;&#208;&#176;&#208;&#187;">
<g id="&#208;&#155;&#208;&#184;&#208;&#179;&#208;&#176;&#208;&#187;">
<g id="8">
<rect id="Rectangle 122" x="-1384" y="-202" width="1920" height="655" fill="#212121"/>
<g id="Group 3019">
<rect id="Rectangle 12462" x="-30.6677" y="-6.43945" width="120" height="44.2025" rx="5.33333" fill="white"/>
<g id="WLA">
<g id="Group">
<g id="Group_2">
<path id="Vector" d="M26.086 2.89076C8.18269 2.38349 -0.000976562 10.1663 -0.000976562 16.2021C-0.000976562 20.5525 3.33738 28.7509 26.2032 27.6872C22.3305 27.6872 3.37182 26.7427 3.37182 16.6238C3.37182 7.39134 19.7632 2.89076 26.086 2.89076Z" fill="url(#paint0_linear_0_1)"/>
<g id="Group_3">
<path id="Vector_2" fill-rule="evenodd" clip-rule="evenodd" d="M6.66992 24.3627C6.66992 23.3744 7.41529 22.5723 8.33509 22.5723C9.25529 22.5723 9.99986 23.3746 9.99986 24.3627C9.99986 25.3527 9.25509 26.1548 8.33509 26.1548C7.41509 26.1548 6.66992 25.3524 6.66992 24.3627Z" fill="url(#paint1_radial_0_1)"/>
<path id="Vector_3" d="M4.70006 23.6346C5.45392 23.6346 6.06504 22.9773 6.06504 22.1664C6.06504 21.3556 5.45392 20.6982 4.70006 20.6982C3.9462 20.6982 3.33508 21.3556 3.33508 22.1664C3.33508 22.9773 3.9462 23.6346 4.70006 23.6346Z" fill="url(#paint2_radial_0_1)"/>
<path id="Vector_4" fill-rule="evenodd" clip-rule="evenodd" d="M11.0037 25.8778C11.0037 24.6315 11.9425 23.6211 13.102 23.6211C14.2607 23.6211 15.1985 24.6313 15.1985 25.8778C15.1985 27.1239 14.2607 28.1337 13.102 28.1337C11.9427 28.1335 11.0037 27.1239 11.0037 25.8778Z" fill="url(#paint3_radial_0_1)"/>
<path id="Vector_5" fill-rule="evenodd" clip-rule="evenodd" d="M16.5706 26.8176C16.5706 25.2738 17.7341 24.0234 19.1669 24.0234C20.6016 24.0234 21.7637 25.2738 21.7637 26.8176C21.7637 28.3592 20.6016 29.6096 19.1669 29.6096C17.7341 29.6094 16.5706 28.3592 16.5706 26.8176Z" fill="url(#paint4_radial_0_1)"/>
<path id="Vector_6" fill-rule="evenodd" clip-rule="evenodd" d="M23.3698 26.8818C23.3698 25.1758 24.6562 23.793 26.2419 23.793C27.8282 23.793 29.1144 25.1758 29.1144 26.8818C29.1144 28.5887 27.8282 29.9715 26.2419 29.9715C24.656 29.9715 23.3698 28.5887 23.3698 26.8818Z" fill="url(#paint5_radial_0_1)"/>
</g>
</g>
<g id="Group_4">
<path id="Vector_7" d="M42.4655 25.8074C40.5246 28.0414 36.1435 31.8206 25.6133 32.3713C12.154 33.075 3.86538 26.9749 1.08215 21.7695C2.65701 24.2251 8.24149 29.3333 19.0364 30.4116C29.6384 31.4707 34.9305 29.9606 42.4655 25.8074Z" fill="url(#paint6_linear_0_1)"/>
<g id="Group_5">
<g id="Group_6">
<g id="Group_7">
<g id="Group_8">
<path id="Vector_8" d="M27.1416 0.28418H27.5145L27.881 2.06511H27.8876L28.339 0.28418H28.5941L29.0457 2.06511H29.0521L29.4186 0.28418H29.7915L29.2091 2.78994H28.9147L28.4695 0.984663H28.4631L28.0181 2.78994H27.7236L27.1416 0.28418Z" fill="#004E8F"/>
<path id="Vector_9" d="M30.587 0.713313C30.6984 0.494897 30.9501 0.262695 31.3168 0.262695C31.6834 0.262695 31.9352 0.494897 32.0463 0.713313C32.1218 0.861078 32.148 0.93496 32.148 1.53657C32.148 2.1384 32.1218 2.2125 32.0463 2.36005C31.9352 2.57825 31.6834 2.81067 31.3168 2.81067C30.9501 2.81067 30.6984 2.57825 30.587 2.36005C30.5117 2.21229 30.4855 2.1384 30.4855 1.53657C30.4855 0.93496 30.5117 0.861078 30.587 0.713313ZM30.9565 2.24761C31.0284 2.34605 31.1495 2.4307 31.3166 2.4307C31.4834 2.4307 31.6045 2.34605 31.6764 2.24761C31.7679 2.12096 31.7942 2.05052 31.7942 1.53657C31.7942 1.02284 31.7679 0.952408 31.6764 0.825752C31.6045 0.727099 31.4834 0.642662 31.3166 0.642662C31.1495 0.642662 31.0286 0.727099 30.9565 0.825752C30.865 0.952408 30.8387 1.02284 30.8387 1.53657C30.8389 2.05052 30.865 2.12096 30.9565 2.24761Z" fill="#004E8F"/>
<path id="Vector_10" d="M33.0507 0.283203H33.9601C34.1564 0.283203 34.3102 0.33253 34.4345 0.448846C34.5655 0.568609 34.6668 0.758592 34.6668 0.983686C34.6668 1.30743 34.4966 1.57151 34.2155 1.67706L34.7552 2.78896H34.3362L33.8552 1.71906H33.4038V2.78896H33.0505V0.283203H33.0507ZM33.404 1.38132H33.9375C34.2022 1.38132 34.3334 1.19499 34.3334 0.983686C34.3334 0.853584 34.2875 0.75493 34.2157 0.698711C34.15 0.645938 34.0779 0.621382 33.9571 0.621382H33.404V1.38132Z" fill="#004E8F"/>
<path id="Vector_11" d="M35.5366 0.283203H35.8899V2.4301H37.0254V2.78896H35.5366V0.283203Z" fill="#004E8F"/>
<path id="Vector_12" d="M37.8464 0.283203H38.6611C38.9685 0.283203 39.2204 0.431183 39.371 0.705604C39.4856 0.916696 39.4954 1.0119 39.4954 1.53597C39.4954 2.09903 39.4691 2.19768 39.3644 2.37367C39.227 2.60587 38.9849 2.78896 38.6381 2.78896H37.8464V0.283203ZM38.1999 2.4301H38.6218C38.8213 2.4301 38.9621 2.356 39.0536 2.2119C39.1323 2.08503 39.1419 2.01481 39.1419 1.55019C39.1419 1.09979 39.1321 0.990579 39.0372 0.853584C38.9292 0.695264 38.8115 0.642491 38.6218 0.642491H38.1999V2.4301Z" fill="#004E8F"/>
<path id="Vector_13" d="M41.675 0.283203H42.0287V2.4301H43.1638V2.78896H41.675V0.283203Z" fill="#004E8F"/>
</g>
<g id="Group_9">
<path id="Vector_14" d="M44.0073 0.713313C44.1186 0.494897 44.3704 0.262695 44.737 0.262695C45.1033 0.262695 45.3555 0.494897 45.4666 0.713313C45.5419 0.861078 45.5681 0.93496 45.5681 1.53657C45.5681 2.1384 45.5419 2.2125 45.4666 2.36005C45.3555 2.57825 45.1035 2.81067 44.737 2.81067C44.3706 2.81067 44.1186 2.57825 44.0073 2.36005C43.932 2.21229 43.9058 2.1384 43.9058 1.53657C43.9058 0.93496 43.932 0.861078 44.0073 0.713313ZM44.377 2.24761C44.4489 2.34605 44.57 2.4307 44.737 2.4307C44.9039 2.4307 45.025 2.34605 45.0969 2.24761C45.1884 2.12096 45.2147 2.05052 45.2147 1.53657C45.2147 1.02284 45.1884 0.952408 45.0969 0.825752C45.025 0.727099 44.9039 0.642662 44.737 0.642662C44.57 0.642662 44.4491 0.727099 44.377 0.825752C44.2855 0.952408 44.2592 1.02284 44.2592 1.53657C44.2592 2.05052 44.2855 2.12096 44.377 2.24761Z" fill="#004E8F"/>
</g>
<g id="Group_10">
<path id="Vector_15" d="M46.8082 0.622143H46.1702V0.28418H47.7995V0.622143H47.1615V2.78972H46.808V0.622143H46.8082Z" fill="#004E8F"/>
<path id="Vector_16" d="M48.9349 0.62019H48.2969V0.282227H49.9262V0.62019H49.2882V2.78777H48.9347V0.62019H48.9349Z" fill="#004E8F"/>
<path id="Vector_17" d="M50.6643 0.282227H52.153V0.641299H51.0178V1.35557H51.9862V1.69332H51.0178V2.42891H52.153V2.78777H50.6643V0.282227Z" fill="#004E8F"/>
</g>
<g id="Group_11">
<path id="Vector_18" d="M52.9754 0.283203H53.885C54.0811 0.283203 54.2351 0.33253 54.3594 0.448846C54.4902 0.568609 54.5915 0.758592 54.5915 0.983686C54.5915 1.30743 54.4213 1.57151 54.1401 1.67706L54.6798 2.78896H54.2611L53.7801 1.71906H53.3287V2.78896H52.9752V0.283203H52.9754ZM53.3287 1.38132H53.862C54.1269 1.38132 54.2579 1.19499 54.2579 0.983686C54.2579 0.853584 54.212 0.75493 54.1401 0.698711C54.0746 0.645938 54.0026 0.621382 53.8816 0.621382H53.3287V1.38132Z" fill="#004E8F"/>
</g>
<g id="Group_12">
<path id="Vector_19" d="M55.7711 1.75784L55.0708 0.283203H55.4437L55.9377 1.39532L56.432 0.283203H56.8049L56.1047 1.75784V2.78896H55.7709V1.75784H55.7711Z" fill="#004E8F"/>
</g>
</g>
<g id="Group_13">
<g id="Group_14">
<path id="Vector_20" d="M37.899 5.7682H37.0156L36.8358 6.32781H36.4629L37.3102 3.82227H37.6046L38.4521 6.32781H38.079L37.899 5.7682ZM37.7976 5.43045L37.4604 4.336H37.454L37.1169 5.43045H37.7976Z" fill="#004E8F"/>
<path id="Vector_21" d="M39.22 5.71676C39.3968 5.86797 39.6324 5.96662 39.8811 5.96662C40.1691 5.96662 40.3425 5.82596 40.3425 5.61832C40.3425 5.44233 40.2476 5.30857 40.0381 5.28035C39.9334 5.26657 39.8514 5.25235 39.7305 5.23469C39.328 5.17502 39.1121 4.89328 39.1121 4.53076C39.1121 4.10147 39.3902 3.79883 39.8713 3.79883C40.1592 3.79883 40.4144 3.90804 40.6269 4.05925L40.4306 4.37244C40.2604 4.25634 40.0609 4.17901 39.8548 4.17901C39.639 4.17901 39.4655 4.29877 39.4655 4.53787C39.4655 4.67874 39.5605 4.81961 39.796 4.85817C39.8583 4.86872 39.9464 4.88272 40.0577 4.89694C40.4929 4.95338 40.6959 5.27712 40.6959 5.61853C40.6959 6.07949 40.3785 6.34702 39.8779 6.34702C39.5342 6.34702 39.2332 6.23436 38.9879 6.00195L39.22 5.71676Z" fill="#004E8F"/>
<path id="Vector_22" d="M41.5889 5.71676C41.7657 5.86797 42.0013 5.96662 42.25 5.96662C42.538 5.96662 42.7114 5.82596 42.7114 5.61832C42.7114 5.44233 42.6165 5.30857 42.407 5.28035C42.3022 5.26657 42.2203 5.25235 42.0994 5.23469C41.6969 5.17502 41.481 4.89328 41.481 4.53076C41.481 4.10147 41.7591 3.79883 42.2402 3.79883C42.5281 3.79883 42.7833 3.90804 42.9958 4.05925L42.7995 4.37244C42.6293 4.25634 42.4298 4.17901 42.2237 4.17901C42.0079 4.17901 41.8344 4.29877 41.8344 4.53787C41.8344 4.67874 41.9294 4.81961 42.1649 4.85817C42.2271 4.86872 42.3153 4.88272 42.4266 4.89694C42.8618 4.95338 43.0648 5.27712 43.0648 5.61853C43.0648 6.07949 42.7474 6.34702 42.2468 6.34702C41.9031 6.34702 41.6021 6.23436 41.3568 6.00195L41.5889 5.71676Z" fill="#004E8F"/>
<path id="Vector_23" d="M43.9516 4.24945C44.063 4.03103 44.3147 3.79883 44.6814 3.79883C45.0477 3.79883 45.2998 4.03103 45.4109 4.24945C45.4862 4.39721 45.5125 4.47109 45.5125 5.07271C45.5125 5.67454 45.4862 5.74863 45.4109 5.89618C45.2998 6.11438 45.0479 6.3468 44.6814 6.3468C44.3149 6.3468 44.063 6.11438 43.9516 5.89618C43.8763 5.74842 43.8501 5.67454 43.8501 5.07271C43.8501 4.47109 43.8763 4.39721 43.9516 4.24945ZM44.3213 5.78374C44.3932 5.88218 44.5144 5.96684 44.6814 5.96684C44.8482 5.96684 44.9694 5.88218 45.0412 5.78374C45.1328 5.65709 45.159 5.58665 45.159 5.07271C45.159 4.55898 45.1328 4.48854 45.0412 4.36189C44.9694 4.26323 44.8482 4.17879 44.6814 4.17879C44.5144 4.17879 44.3934 4.26323 44.3213 4.36189C44.2298 4.48854 44.2036 4.55898 44.2036 5.07271C44.2036 5.58665 44.2298 5.65709 44.3213 5.78374Z" fill="#004E8F"/>
<path id="Vector_24" d="M47.9848 5.62521C47.8933 6.09328 47.5661 6.3468 47.167 6.3468C46.8005 6.3468 46.5486 6.11439 46.4372 5.89618C46.3619 5.74842 46.3357 5.67454 46.3357 5.07271C46.3357 4.47109 46.3619 4.397 46.4372 4.24945C46.5486 4.03103 46.8003 3.79883 47.167 3.79883C47.6086 3.79883 47.9129 4.13313 47.9848 4.54131H47.612C47.5565 4.34788 47.3895 4.17879 47.167 4.17879C47 4.17879 46.879 4.26323 46.8069 4.36189C46.7154 4.48854 46.6892 4.55898 46.6892 5.07271C46.6892 5.58665 46.7154 5.65709 46.8069 5.78375C46.8788 5.88218 47 5.96684 47.167 5.96684C47.363 5.96684 47.5136 5.85074 47.612 5.62543H47.9848V5.62521Z" fill="#004E8F"/>
<path id="Vector_25" d="M48.7241 3.81934H49.0776V6.32487H48.7241V3.81934Z" fill="#004E8F"/>
</g>
<g id="Group_15">
<path id="Vector_26" d="M51.2533 5.76429H50.37L50.1901 6.3239H49.8173L50.6646 3.81836H50.9589L51.8064 6.3239H51.4334L51.2533 5.76429ZM51.152 5.42654L50.8148 4.33209H50.8083L50.4713 5.42654H51.152Z" fill="#004E8F"/>
</g>
<g id="Group_16">
<path id="Vector_27" d="M52.7002 4.16001H52.0621V3.82227H53.6915V4.16001H53.0534V6.32781H52.7V4.16001H52.7002Z" fill="#004E8F"/>
<path id="Vector_28" d="M54.4303 3.81934H54.7838V6.32487H54.4303V3.81934Z" fill="#004E8F"/>
<path id="Vector_29" d="M55.7894 4.24847C55.9007 4.03005 56.1525 3.79785 56.5192 3.79785C56.8854 3.79785 57.1376 4.03005 57.2487 4.24847C57.324 4.39623 57.3503 4.47012 57.3503 5.07173C57.3503 5.67356 57.324 5.74766 57.2487 5.89521C57.1376 6.11341 56.8856 6.34583 56.5192 6.34583C56.1527 6.34583 55.9007 6.11341 55.7894 5.89521C55.7141 5.74744 55.6879 5.67356 55.6879 5.07173C55.6879 4.47012 55.7141 4.39623 55.7894 4.24847ZM56.1589 5.78277C56.2308 5.88121 56.3519 5.96586 56.519 5.96586C56.6858 5.96586 56.8069 5.88121 56.8788 5.78277C56.9704 5.65611 56.9966 5.58568 56.9966 5.07173C56.9966 4.558 56.9704 4.48756 56.8788 4.36091C56.8069 4.26226 56.6858 4.17782 56.519 4.17782C56.3519 4.17782 56.231 4.26226 56.1589 4.36091C56.0674 4.48756 56.0411 4.558 56.0411 5.07173C56.0411 5.58568 56.0674 5.65611 56.1589 5.78277Z" fill="#004E8F"/>
</g>
<g id="Group_17">
<path id="Vector_30" d="M58.2518 3.81836H58.5855L59.639 5.59908H59.6457V3.81836H59.9991V6.3239H59.6653L58.6117 4.54318H58.6053V6.3239H58.2518V3.81836Z" fill="#004E8F"/>
</g>
</g>
</g>
<path id="Vector_31" fill-rule="evenodd" clip-rule="evenodd" d="M43.807 18.5202H33.6201V10.4015H29.8602L27.2142 18.5202H24.1444L21.8836 10.6154L19.6155 18.5202H16.6242L13.4817 8.93359H15.6355L18.0945 16.4149L20.2303 8.93359H23.5298L25.7094 16.5596L28.1945 8.93359H35.6708V17.0645H42.2143L46.1833 8.93359H48.8099L53.493 18.5202H51.2133L50.1164 16.2828H45.8925L46.6183 14.8433L49.4129 14.8444L47.4992 10.9405L43.807 18.5202Z" fill="#004E8F"/>
</g>
</g>
</g>
</g>
</g>
</g>
</g>
</g>
</g>
<defs>
<linearGradient id="paint0_linear_0_1" x1="13.1011" y1="2.86724" x2="13.1011" y2="27.7817" gradientUnits="userSpaceOnUse">
<stop offset="0.3539" stop-color="#A6935F"/>
<stop offset="0.768" stop-color="#E1DAC8"/>
<stop offset="1" stop-color="white"/>
</linearGradient>
<radialGradient id="paint1_radial_0_1" cx="0" cy="0" r="1" gradientUnits="userSpaceOnUse" gradientTransform="translate(7.93613 23.8738) scale(2.12088 2.28123)">
<stop stop-color="white"/>
<stop offset="0.6466" stop-color="#A6935F"/>
<stop offset="0.854" stop-color="#A6935F"/>
</radialGradient>
<radialGradient id="paint2_radial_0_1" cx="0" cy="0" r="1" gradientUnits="userSpaceOnUse" gradientTransform="translate(4.3734 21.7644) scale(1.73835 1.86976)">
<stop stop-color="white"/>
<stop offset="0.6466" stop-color="#A6935F"/>
<stop offset="0.854" stop-color="#A6935F"/>
</radialGradient>
<radialGradient id="paint3_radial_0_1" cx="0" cy="0" r="1" gradientUnits="userSpaceOnUse" gradientTransform="translate(12.5992 25.2606) scale(2.67117 2.87311)">
<stop stop-color="white"/>
<stop offset="0.6466" stop-color="#A6935F"/>
<stop offset="0.854" stop-color="#A6935F"/>
</radialGradient>
<radialGradient id="paint4_radial_0_1" cx="0" cy="0" r="1" gradientUnits="userSpaceOnUse" gradientTransform="translate(18.5455 26.0522) scale(3.30675 3.55674)">
<stop stop-color="white"/>
<stop offset="0.6466" stop-color="#A6935F"/>
<stop offset="0.854" stop-color="#A6935F"/>
</radialGradient>
<radialGradient id="paint5_radial_0_1" cx="0" cy="0" r="1" gradientUnits="userSpaceOnUse" gradientTransform="translate(25.5544 26.0377) scale(3.65767 3.93419)">
<stop stop-color="white"/>
<stop offset="0.6466" stop-color="#A6935F"/>
<stop offset="0.854" stop-color="#A6935F"/>
</radialGradient>
<linearGradient id="paint6_linear_0_1" x1="18.1643" y1="16.5579" x2="29.4346" y2="36.0731" gradientUnits="userSpaceOnUse">
<stop stop-color="white"/>
<stop offset="0.6591" stop-color="#004E8F"/>
<stop offset="1" stop-color="white"/>
</linearGradient>
<clipPath id="clip0_0_1">
<rect width="1920" height="10431" fill="white" transform="translate(-1384 -10042)"/>
</clipPath>
</defs>
</svg>
