<svg width="37" height="36" viewBox="0 0 37 36" fill="none" xmlns="http://www.w3.org/2000/svg">
<g id="Group 717">
<path id="Union" fill-rule="evenodd" clip-rule="evenodd" d="M14.7233 21.5526C15.0595 21.7302 15.4338 21.8229 15.8139 21.8228C17.0798 21.8228 18.1132 20.8144 18.1599 19.5575L18.1645 8.33398H20.9607C20.961 8.57237 20.9831 8.81023 21.0268 9.04456H18.9794V9.04494H21.0268H21.776C21.7756 9.98427 22.1156 10.8918 22.7329 11.5991C22.7331 11.5994 22.7334 11.5997 22.7336 11.6C23.3633 12.0119 24.0993 12.231 24.8514 12.2303V12.8539C25.1146 12.9104 25.3868 12.9404 25.6667 12.9404V15.7415C24.2706 15.7431 22.9095 15.3047 21.776 14.4885V20.1797C21.776 23.0216 19.467 25.334 16.6288 25.334C15.922 25.3342 15.2228 25.1881 14.575 24.9051C13.9277 24.6222 13.3456 24.2086 12.8652 23.6901C12.8648 23.6898 12.8645 23.6896 12.8641 23.6893C11.5368 22.7561 10.6667 21.2127 10.6667 19.4691C10.6667 16.6268 12.9757 14.3141 15.8139 14.3141C16.046 14.3152 16.2777 14.3321 16.5075 14.3647V15.0278C16.5075 15.0278 16.5075 15.0278 16.5075 15.0278L16.5075 17.2237C16.5075 17.2237 16.5075 17.2237 16.5075 17.2237L16.5075 15.0278C16.5237 15.0275 16.5397 15.0269 16.5558 15.0263C16.5801 15.0255 16.6043 15.0247 16.6288 15.0247C16.8609 15.0258 17.0926 15.0427 17.3224 15.0753V17.9343C17.1031 17.8654 16.871 17.8253 16.6288 17.8253C16.0055 17.826 15.408 18.0743 14.9673 18.5157C14.5266 18.9571 14.2788 19.5555 14.2782 20.1797C14.2782 20.6727 14.4338 21.1531 14.7227 21.5522C14.7229 21.5524 14.7231 21.5525 14.7233 21.5526ZM17.7247 22.2614C18.4445 21.879 18.9428 21.132 18.9752 20.2677V20.2681C18.9428 21.1322 18.4445 21.879 17.7247 22.2614ZM15.8141 17.1147C15.958 17.1147 16.0985 17.1288 16.2349 17.1548C16.0964 17.1286 15.9555 17.1152 15.8141 17.1147ZM14.1525 17.805C14.1525 17.805 14.1525 17.805 14.1525 17.805V17.805ZM11.8211 22.0189C12.06 22.6422 12.4165 23.2076 12.863 23.6881C12.4074 23.1999 12.0556 22.632 11.8211 22.0189ZM15.8139 24.6234C15.8139 24.6234 15.8139 24.6234 15.8139 24.6234V24.6234ZM20.9607 19.4687V13.7776C20.9607 13.7775 20.9607 13.7776 20.9607 13.7776V19.4687Z" fill="white"/>
<circle id="Ellipse 4" cx="18.4505" cy="17.6901" r="17.1698" stroke="#EAC141" stroke-width="1.04059"/>
</g>
</svg>
