<svg width="131" height="138" viewBox="0 0 131 138" fill="none" xmlns="http://www.w3.org/2000/svg">
    <g id="Mask group">
    <mask id="mask0_188_19" style="mask-type:alpha" maskUnits="userSpaceOnUse" x="15" y="9" width="94" height="108">
    <path id="Vector 344" d="M32.8244 48.3292L50.8601 80.8089L39.1931 84.3247C36.6737 81.9828 30.3092 77.9091 25.0064 80.3493C18.3778 83.3997 18.2477 95.198 15.5967 99.5073C12.9458 103.817 44.2364 114.75 49.0759 116.539C52.9475 117.97 57.6242 96.85 59.4787 86.1109L81.4875 88.9581C80.2729 94.1511 78.2946 104.577 80.0977 104.735C82.3516 104.934 98.9231 97.3082 101.574 92.9989C104.225 88.6897 105.484 84.7121 107.736 69.4649C109.987 54.2178 105.148 52.4287 102.296 43.5462C100.015 36.4402 94.4492 26.0466 91.9516 21.7381C82.9134 17.762 64.3863 9.77009 62.5832 9.61125C60.7801 9.45242 46.5426 21.5238 39.6493 27.5793L32.8244 48.3292Z" fill="#D9D9D9"/>
    </mask>
    <g mask="url(#mask0_188_19)">
    <path id="Vector" d="M33.7382 49.1565L39.9488 61.2834L37.4454 64.4786C36.8043 65.2945 36.8643 66.4288 37.5757 67.0105L39.6863 68.7381C40.4058 69.3202 41.4938 69.1308 42.1349 68.3149L42.9901 67.2229L45.272 71.6773L42.491 75.2237C41.85 76.0396 41.9118 77.1735 42.6236 77.7571L44.7339 79.4828C45.4534 80.0649 46.5418 79.8774 47.1809 79.0619L48.3137 77.6288L49.9028 80.7297C46.4819 85.882 43.6146 90.3546 42.1725 92.8248C37.6424 100.584 40.3712 104.478 40.5452 104.705C40.8182 104.773 45.4598 105.796 50.8838 98.6159C52.6167 96.353 55.6397 91.986 59.0889 86.8441L62.562 87.1209L61.6654 88.7199C61.1589 89.6256 61.4056 90.7084 62.216 91.1416L64.6274 92.423C65.4413 92.8636 66.5076 92.4754 67.016 91.5693L69.209 87.6358L74.2062 88.0442L73.5273 89.2538C73.0189 90.1599 73.2656 91.2427 74.0783 91.6775L76.482 92.9604C77.2959 93.401 78.3641 93.0124 78.871 92.1087L80.8571 88.5684L94.4272 89.6315C94.8626 89.6488 95.2939 89.5423 95.6712 89.3245C96.0486 89.1067 96.3566 88.7864 96.5595 88.4008L97.4812 86.7565L72.5595 77.1947C72.0314 76.9916 71.5424 76.6989 71.1139 76.3295L67.8174 73.4775C72.8714 65.5734 77.3274 58.2675 78.6071 55.3974L91.359 55.1842C91.7654 55.1675 92.1603 55.0451 92.5049 54.8291C92.8496 54.6132 93.132 54.3111 93.3243 53.9527L94.3172 52.1816L81.5451 46.9753C84.3137 41.5371 84.3821 39.1545 84.3821 39.1545C84.3821 39.1545 82.1977 40.1543 78.2312 44.8306L68.3457 34.8663L67.0926 36.4622C66.8382 36.7758 66.6692 37.1498 66.6019 37.548C66.5346 37.9462 66.5714 38.3551 66.7087 38.7349L71.4068 50.5972C69.2498 52.8806 64.2205 59.8024 58.8703 67.5124L54.9703 65.5633C54.464 65.3116 54.0058 64.9731 53.6163 64.5632L35.2086 45.2287L34.0456 46.712C33.7686 47.0488 33.5928 47.4571 33.5384 47.8897C33.484 48.3224 33.5533 48.7616 33.7382 49.1565Z" fill="white"/>
    </g>
    </g>
</svg>
