<svg preserveAspectRatio="none" width="100%" height="768" viewBox="0 0 3554 768" fill="none" xmlns="http://www.w3.org/2000/svg">
    <path id="path1" d="M3 539.398C15 539.398 475 681.398 687 311.398C899 -58.6018 1175 207.398 1161 461.398C1147 715.398 1461 899.813 1653 639.398C1809.68 426.893 1615 239.813 1653 173.813C1658.33 64.4797 2099 -98.1873 2147 357.813C2169.19 568.648 2539 461.398 2575 269.813C2591 174.479 2647.45 30.7904 2741 7.81277C2855 -20.1871 3151 63.8135 2923 393.813C2952.33 528.48 3070.2 743.013 3307 523.813C3543.8 304.613 3564.33 283.147 3545 299.813" stroke="white" stroke-opacity="0.7" stroke-width="5" stroke-linecap="round" stroke-dasharray="18 18"/>
    <path id="Vector" d="M33.7382 49.1565L39.9488 61.2834L37.4454 64.4786C36.8043 65.2945 36.8643 66.4288 37.5757 67.0105L39.6863 68.7381C40.4058 69.3202 41.4938 69.1308 42.1349 68.3149L42.9901 67.2229L45.272 71.6773L42.491 75.2237C41.85 76.0396 41.9118 77.1735 42.6236 77.7571L44.7339 79.4828C45.4534 80.0649 46.5418 79.8774 47.1809 79.0619L48.3137 77.6288L49.9028 80.7297C46.4819 85.882 43.6146 90.3546 42.1725 92.8248C37.6424 100.584 40.3712 104.478 40.5452 104.705C40.8182 104.773 45.4598 105.796 50.8838 98.6159C52.6167 96.353 55.6397 91.986 59.0889 86.8441L62.562 87.1209L61.6654 88.7199C61.1589 89.6256 61.4056 90.7084 62.216 91.1416L64.6274 92.423C65.4413 92.8636 66.5076 92.4754 67.016 91.5693L69.209 87.6358L74.2062 88.0442L73.5273 89.2538C73.0189 90.1599 73.2656 91.2427 74.0783 91.6775L76.482 92.9604C77.2959 93.401 78.3641 93.0124 78.871 92.1087L80.8571 88.5684L94.4272 89.6315C94.8626 89.6488 95.2939 89.5423 95.6712 89.3245C96.0486 89.1067 96.3566 88.7864 96.5595 88.4008L97.4812 86.7565L72.5595 77.1947C72.0314 76.9916 71.5424 76.6989 71.1139 76.3295L67.8174 73.4775C72.8714 65.5734 77.3274 58.2675 78.6071 55.3974L91.359 55.1842C91.7654 55.1675 92.1603 55.0451 92.5049 54.8291C92.8496 54.6132 93.132 54.3111 93.3243 53.9527L94.3172 52.1816L81.5451 46.9753C84.3137 41.5371 84.3821 39.1545 84.3821 39.1545C84.3821 39.1545 82.1977 40.1543 78.2312 44.8306L68.3457 34.8663L67.0926 36.4622C66.8382 36.7758 66.6692 37.1498 66.6019 37.548C66.5346 37.9462 66.5714 38.3551 66.7087 38.7349L71.4068 50.5972C69.2498 52.8806 64.2205 59.8024 58.8703 67.5124L54.9703 65.5633C54.464 65.3116 54.0058 64.9731 53.6163 64.5632L35.2086 45.2287L34.0456 46.712C33.7686 47.0488 33.5928 47.4571 33.5384 47.8897C33.484 48.3224 33.5533 48.7616 33.7382 49.1565Z" fill="white" transform='rotate(230) translate(30 40)'>
        <animateMotion dur="12s" repeatCount="indefinite" rotate="auto">
            <mpath href="#path1" />
        </animateMotion>
    </path>
</svg>
