<svg width="291" height="86" viewBox="0 0 291 86" fill="none" xmlns="http://www.w3.org/2000/svg">
<path d="M279.33 85.6405H10.7435C4.72713 85.6405 0 80.9481 0 74.976V10.989C0 5.01685 4.72713 0.324463 10.7435 0.324463H279.33C285.348 0.324463 290.074 5.01685 290.074 10.989V74.976C290.074 80.9481 285.348 85.6405 279.33 85.6405Z" fill="white"/>
<path d="M105.498 26.4901L105.895 20.4247H110.562V29.7665H104.623V29.6401C105.227 28.918 105.408 27.9433 105.498 26.4901ZM103.17 31.6077H112.358V34.1802H114.208V29.7665H112.584V18.5833H104.099L103.621 26.3817C103.522 28.1148 103.197 29.2068 102.267 29.7665H101.319V34.1802H103.17V31.6077ZM119.799 27.1129L120.07 23.4121H123.184V31.6077H125.125V21.7785H118.355L118.012 27.0135C117.895 28.7104 117.552 29.8568 116.595 29.8568C116.351 29.8568 116.162 29.8116 116.072 29.7845V31.5988C116.189 31.6439 116.415 31.707 116.74 31.707C118.915 31.707 119.61 29.9108 119.799 27.1129ZM132.205 26.6796C131.041 26.6796 130.283 26.0207 130.283 25.091C130.283 24.053 131.032 23.4121 132.205 23.4121H133.965V26.6796H132.205ZM133.965 31.6077H135.879V21.7785H132.106C129.84 21.7785 128.36 23.0511 128.36 25.1C128.36 26.4539 129.19 27.5009 130.544 27.8891L127.864 31.6077H130.12L132.503 28.241H133.965V31.6077Z" fill="#142129"/>
<path d="M103.647 67.1557H107.934V48.1665H103.647V67.1557ZM105.782 45.0769C107.362 45.0769 108.438 44.07 108.438 42.6988C108.438 41.3275 107.362 40.3208 105.782 40.3208C104.22 40.3208 103.126 41.3275 103.126 42.6988C103.126 44.07 104.22 45.0769 105.782 45.0769ZM114.087 42.1087V67.1557H118.566V58.9456H123.998C129.067 58.9456 132.608 55.5435 132.608 50.5792C132.608 45.5281 129.188 42.1087 124.189 42.1087H114.087ZM118.566 45.858H123.009C126.238 45.858 128.06 47.5068 128.06 50.5792C128.06 53.5647 126.186 55.2311 122.992 55.2311H118.566V45.858ZM137.633 67.1557H141.937V56.1336C141.937 53.4084 143.726 51.5686 146.554 51.5686C149.193 51.5686 150.581 53.044 150.581 55.9254V67.1557H154.869V54.9012C154.869 50.3882 152.404 47.8194 148.151 47.8194C145.322 47.8194 143.083 49.1038 142.18 51.2388H141.868V40.8242H137.633V67.1557ZM168.537 63.9272C165.535 63.9272 163.816 61.636 163.816 57.6611C163.816 53.7036 165.535 51.395 168.537 51.395C171.523 51.395 173.241 53.7036 173.241 57.6611C173.241 61.636 171.54 63.9272 168.537 63.9272ZM168.537 67.5376C174.213 67.5376 177.667 63.8229 177.667 57.6611C177.667 51.5165 174.196 47.7847 168.537 47.7847C162.896 47.7847 159.407 51.5339 159.407 57.6611C159.407 63.8229 162.843 67.5376 168.537 67.5376ZM182.362 67.1557H186.667V56.0989C186.667 53.3043 188.403 51.5339 191.18 51.5339C193.783 51.5339 195.103 52.9919 195.103 55.8905V67.1557H199.39V54.8665C199.39 50.3362 197.013 47.7847 192.777 47.7847C189.93 47.7847 187.709 49.0865 186.806 51.204H186.51V48.1665H182.362V67.1557ZM212.833 51.204C215.419 51.204 217.12 53.0093 217.207 55.8212H208.269C208.459 53.044 210.265 51.204 212.833 51.204ZM217.242 61.9311C216.617 63.3371 215.142 64.1181 213.006 64.1181C210.178 64.1181 208.355 62.1394 208.251 58.9803V58.7546H221.512V57.3659C221.512 51.3776 218.266 47.7847 212.85 47.7847C207.349 47.7847 203.929 51.6206 203.929 57.7305C203.929 63.8404 207.296 67.5376 212.886 67.5376C217.363 67.5376 220.506 65.3852 221.32 61.9311H217.242Z" fill="#142129"/>
<path d="M65.3529 43.2199C65.3529 39.6428 67.2515 36.2759 70.4157 34.382C68.5171 31.6465 65.3529 29.9631 61.9775 29.7526C58.3914 29.3318 55.016 31.857 53.1175 31.857C51.2189 31.857 48.4765 29.7526 45.5232 29.7526C41.515 29.9631 37.9288 32.0673 36.0302 35.4341C32.0221 42.3783 34.9754 52.8996 38.9836 58.5811C40.8821 61.3167 43.2026 64.4731 46.1559 64.4731C49.1093 64.2627 50.1641 62.5793 53.7504 62.5793C57.3366 62.5793 58.1804 64.4731 61.3448 64.4731C64.509 64.4731 66.4076 61.7375 68.3063 58.7915C69.7829 56.8978 70.8377 54.583 71.4705 52.2683C67.6734 51.0057 65.3529 47.2181 65.3529 43.2199Z" fill="#142129"/>
<path d="M59.4501 26.1747C61.1378 24.0705 61.9816 21.5453 61.7707 18.8098C59.2393 19.0203 56.7078 20.2828 55.0201 22.3871C53.3326 24.281 52.4886 26.8061 52.6997 29.5416C55.442 29.5416 57.7626 28.279 59.4501 26.1747Z" fill="#142129"/>
</svg>
