<svg width="291" height="86" viewBox="0 0 291 86" fill="none" xmlns="http://www.w3.org/2000/svg">
<path d="M279.812 85.6405H11.2249C5.20852 85.6405 0.481384 80.9481 0.481384 74.976V10.989C0.481384 5.01685 5.20852 0.324463 11.2249 0.324463H279.812C285.829 0.324463 290.556 5.01685 290.556 10.989V74.976C290.556 80.9481 285.829 85.6405 279.812 85.6405Z" fill="white"/>
<path d="M105.977 26.4901L106.374 20.4247H111.041V29.7665H105.102V29.6401C105.706 28.918 105.887 27.9433 105.977 26.4901ZM103.649 31.6077H112.837V34.1802H114.687V29.7665H113.063V18.5833H104.578L104.1 26.3817C104.001 28.1148 103.676 29.2068 102.746 29.7665H101.798V34.1802H103.649V31.6077ZM120.278 27.1129L120.549 23.4121H123.663V31.6077H125.604V21.7785H118.834L118.491 27.0135C118.374 28.7104 118.031 29.8568 117.074 29.8568C116.83 29.8568 116.641 29.8116 116.551 29.7845V31.5988C116.668 31.6439 116.894 31.707 117.219 31.707C119.394 31.707 120.089 29.9108 120.278 27.1129ZM132.684 26.6796C131.52 26.6796 130.761 26.0207 130.761 25.091C130.761 24.053 131.511 23.4121 132.684 23.4121H134.444V26.6796H132.684ZM134.444 31.6077H136.357V21.7785H132.585C130.319 21.7785 128.839 23.0511 128.839 25.1C128.839 26.4539 129.669 27.5009 131.023 27.8891L128.342 31.6077H130.599L132.982 28.241H134.444V31.6077ZM151.772 29.9741H147.277V29.8207C147.72 29.2068 147.954 28.223 148.045 27.1129L148.316 23.4121H151.772V29.9741ZM146.14 34.1802V31.6077H153.433V34.1802H155.239V29.9741H153.705V21.7785H146.628L146.267 27.0135C146.177 28.3403 145.851 29.5317 145.129 29.9741H144.336V34.1802H146.14ZM162.86 21.616C161.525 21.616 160.369 22.284 159.773 23.4032H159.63V21.7785H157.761V34.7939H159.701V30.1184H159.854C160.369 31.1564 161.48 31.7703 162.879 31.7703C165.36 31.7703 166.94 29.8116 166.94 26.6886C166.94 23.5656 165.36 21.616 162.86 21.616ZM162.31 30.0283C160.685 30.0283 159.665 28.7465 159.665 26.6977C159.665 24.6397 160.685 23.358 162.319 23.358C163.961 23.358 164.945 24.6127 164.945 26.6886C164.945 28.7735 163.961 30.0283 162.31 30.0283ZM170.619 35.1821C172.622 35.1821 173.551 34.4058 174.391 32.0138L178.055 21.7785H175.998L173.542 29.5859H173.388L170.924 21.7785H168.813L172.369 31.6439L172.224 32.1222C171.891 33.1151 171.366 33.5032 170.446 33.5032C170.266 33.5032 169.967 33.4942 169.815 33.4671V35.1368C169.996 35.173 170.455 35.1821 170.619 35.1821ZM187.23 23.4121V21.7785H180.758V31.6077H182.698V23.4121H187.23ZM192.009 31.6077L196.62 24.8112H196.774V31.6077H198.696V21.7785H196.774L192.162 28.5389H192.009V21.7785H190.086V31.6077H192.009ZM205.904 28.1237L208.042 31.6077H210.272L206.996 26.6344L210.235 21.7785H208.078L205.985 25.2444H205.831L203.718 21.7785H201.453L204.739 26.7157L201.48 31.6077H203.61L205.759 28.1237H205.904Z" fill="#142129"/>
<path d="M110.07 46.8479C105.817 46.8479 101.443 50.2566 101.443 56.2229C101.443 61.6773 105.288 65.5299 110.07 65.5299C114.018 65.5299 115.777 62.8804 115.777 62.8804V64.0354C115.777 64.5812 116.293 65.1902 116.932 65.1902H119.785V47.2556H115.777V49.5316C115.777 49.5316 114.003 46.8481 110.07 46.8481V46.8479ZM110.784 50.5153C114.286 50.5153 116.123 53.5949 116.123 56.2216C116.123 59.1472 113.942 61.926 110.792 61.926C108.158 61.926 105.521 59.7932 105.521 56.1829C105.521 52.924 107.791 50.5153 110.784 50.5153ZM125.355 65.1902C124.74 65.1902 124.201 64.7485 124.201 64.0354V47.2556H128.209V49.4751C129.117 48.1099 130.892 46.8425 133.615 46.8425C138.067 46.8425 140.437 50.3911 140.437 53.7095V65.1903H137.652C136.921 65.1903 136.429 64.5789 136.429 63.9675V54.5926C136.429 52.7532 135.302 50.5194 132.696 50.5194C129.883 50.5194 128.209 53.1773 128.209 55.6794V65.1903L125.355 65.1902ZM152.122 46.8479C147.867 46.8479 143.494 50.2566 143.494 56.2229C143.494 61.6773 147.34 65.5299 152.122 65.5299C156.069 65.5299 157.828 62.8804 157.828 62.8804V64.0354C157.828 64.5812 158.344 65.1902 158.983 65.1902H161.836V38.2883H157.828V49.5314C157.828 49.5314 156.053 46.8479 152.122 46.8479ZM152.836 50.5153C156.338 50.5153 158.174 53.5949 158.174 56.2216C158.174 59.1472 155.994 61.926 152.843 61.926C150.209 61.926 147.572 59.7932 147.572 56.1829C147.572 52.924 149.842 50.5153 152.836 50.5153ZM167.406 65.1902C166.79 65.1902 166.252 64.7485 166.252 64.0354V47.2556H170.26V50.2448C170.95 48.5703 172.438 47.0518 175.083 47.0518C175.821 47.0518 176.509 47.1878 176.509 47.1878V51.3317C176.509 51.3317 175.649 50.992 174.608 50.992C171.796 50.992 170.26 53.6498 170.26 56.1521V65.1903L167.406 65.1902ZM200.83 65.1902C200.214 65.1902 199.676 64.7485 199.676 64.0354V47.2556H203.684V65.1903L200.83 65.1902ZM215.436 46.8479C211.183 46.8479 206.808 50.2566 206.808 56.2229C206.808 61.6773 210.654 65.5299 215.436 65.5299C219.384 65.5299 221.142 62.8804 221.142 62.8804V64.0354C221.142 64.5812 221.659 65.1902 222.297 65.1902H225.151V38.2883H221.142V49.5314C221.142 49.5314 219.369 46.8479 215.436 46.8479ZM216.15 50.5153C219.652 50.5153 221.489 53.5949 221.489 56.2216C221.489 59.1472 219.308 61.926 216.157 61.926C213.524 61.926 210.886 59.7932 210.886 56.1829C210.886 52.924 213.157 50.5153 216.15 50.5153Z" fill="#142129"/>
<path d="M201.644 43.3864C203.108 43.3864 204.296 42.1995 204.296 40.7354C204.296 39.2714 203.108 38.0845 201.644 38.0845C200.181 38.0845 198.993 39.2714 198.993 40.7354C198.993 42.1995 200.181 43.3864 201.644 43.3864Z" fill="#142129"/>
<path d="M187.074 46.843C182.619 46.843 177.725 50.1682 177.725 56.1919C177.725 61.6812 181.894 65.5315 187.064 65.5315C193.438 65.5315 196.549 60.4088 196.549 56.2268C196.549 51.0949 192.542 46.843 187.074 46.843ZM187.089 50.586C190.17 50.586 192.468 53.0688 192.468 56.2033C192.468 59.392 190.029 61.8527 187.099 61.8527C184.378 61.8527 181.735 59.6393 181.735 56.2569C181.735 52.8181 184.249 50.586 187.089 50.586Z" fill="#142129"/>
<path d="M68.5295 52.4777C67.0603 52.4777 65.8652 51.2984 65.8652 49.8497C65.8652 48.401 67.0603 47.2226 68.5295 47.2226C69.9989 47.2226 71.1939 48.4008 71.1939 49.8497C71.1939 51.2987 69.9989 52.4777 68.5295 52.4777ZM39.0792 52.4777C37.6101 52.4777 36.415 51.2984 36.415 49.8497C36.415 48.401 37.6098 47.2226 39.0792 47.2226C40.5484 47.2226 41.7435 48.4008 41.7435 49.8497C41.7435 51.2987 40.5487 52.4777 39.0792 52.4777ZM69.4852 36.6516L74.8102 27.5575C74.9568 27.3065 74.9964 27.0085 74.9204 26.7286C74.8443 26.449 74.6589 26.2104 74.4046 26.0653C74.1501 25.9208 73.8479 25.8817 73.5643 25.9567C73.2804 26.0316 73.0386 26.2145 72.8914 26.4652L67.4997 35.6742C63.3762 33.819 58.7456 32.7852 53.8044 32.7852C48.8631 32.7852 44.2325 33.819 40.1093 35.6742L34.7173 26.4652C34.5701 26.2145 34.3283 26.0316 34.0446 25.9567C33.7608 25.8817 33.4586 25.9208 33.2041 26.0653C32.9497 26.2102 32.7641 26.4488 32.6881 26.7286C32.612 27.0083 32.6518 27.3065 32.7986 27.5575L38.1236 36.6516C28.9797 41.5554 22.7257 50.6835 21.8109 61.4678H85.7979C84.8823 50.6838 78.6283 41.5554 69.4852 36.6513" fill="#3DDB85"/>
</svg>
