<svg width="1305" height="962" viewBox="0 0 1305 962" fill="none" xmlns="http://www.w3.org/2000/svg">
<path opacity="0.65" d="M329.22 247.884C282.52 249.822 227.881 309.728 229.633 352.066C232.26 414.885 302.459 454.888 350.478 407.085C293.446 409.45 299.885 266.216 394.363 262.296C457.687 259.668 545.299 329.907 576.285 412.943C465.692 290.295 381.837 323.728 384.329 383.28C386.79 442.705 445.544 456.499 445.544 456.499C445.544 456.499 439.946 434.834 471.624 433.52C568.631 429.493 634.983 524.906 657.558 566.884C557.319 493.771 507.698 551.204 508.608 573.064C509.518 594.927 521.235 602.117 521.235 602.117C609.088 565.119 658.481 654.061 731.215 686.784C731.215 686.784 697.105 671.713 623.324 674.776C459.321 681.58 445.653 918.498 597.811 912.183C710.518 907.506 691.436 797.046 691.436 797.046C691.436 797.046 681.338 829.18 639.481 830.916C534.948 835.253 551.026 704.96 657.595 700.538C751.641 696.633 907.127 786.081 907.127 786.081C856.737 773.573 715.655 797.803 717.947 853.08C720.238 908.234 779.743 907.026 779.743 907.026C776.543 830.262 878.341 811.439 923.282 809.575C968.223 807.708 1006.34 822.111 1004.28 824.083C910.346 815.395 837.702 852.518 838.983 883.548C840.805 927.897 899.195 899.425 899.195 899.425C877.437 861.566 961.289 844.746 998.734 843.192C1036.06 841.642 1038.18 841.555 1110.08 853.799C1060.77 850.813 975.593 868.317 976.603 892.438C977.582 916.558 1024.51 910.208 1037.48 905.141C1024.76 884.02 1081.92 875.354 1138.03 873.028C1194.11 870.7 1273.63 885.145 1273.63 885.145C1273.63 885.145 1176.91 857.446 1173.47 774.902C1171.28 721.633 1215.98 729.972 1215.98 729.972C1169.97 674.117 1100.38 685.183 1103.18 752.397C1105.98 819.611 1187.24 857.517 1187.24 857.517C998.424 816.397 1063.11 639.03 1104.93 661.336C1104.93 661.336 1111.4 616.64 1043.64 619.454C975.871 622.264 945.37 739.189 1042.31 820.994C978.611 805.266 916.691 751.2 914.266 692.907C911.84 634.486 948.823 589.156 972.975 588.152C972.975 588.152 958.185 549.374 912.566 551.268C866.946 553.161 841.269 585.313 843.629 642.478C845.989 699.64 902.667 763.361 902.667 763.361C902.667 763.361 887.152 755.071 862.984 742.732C759.803 578.624 851.825 490.232 882.975 505.554C882.975 505.554 864.94 456.089 809.635 458.384C706.582 462.66 712.208 597.841 788.729 689.935C659.924 608.192 696.021 477.067 709.501 432.71C743.628 435.071 755.898 397.685 755.898 397.685C755.898 397.685 781.659 415.623 816.945 414.157C917.315 409.992 907.147 317.032 907.147 317.032C907.147 317.032 895.328 333.38 871.176 334.381C847.025 335.385 820.72 320.618 790.276 321.881C759.801 323.145 738.503 328.433 721.155 360.365C741.363 264.257 672.064 278.459 679.033 181.012C614.147 266.137 639.95 340.203 677.265 371.751C666.524 414.105 694.699 425.648 693.408 426.961C662.945 493.036 682.344 562.08 682.344 562.08C682.344 562.08 616.293 473.327 610.599 336.258C607.934 271.558 635.367 133.114 755.687 91.2462C875.884 49.3846 909.011 144.664 908.945 143.409C936.814 111.795 902.768 62.3643 902.768 62.3643C902.768 62.3643 986.609 77.8897 1015.04 196.267C1068.18 141.961 1026.57 72.4558 1026.57 72.4558C1120.49 129.596 1093.12 241.227 1093.12 241.227C1093.12 241.227 1177.86 213.548 1139.8 128.667C1294.97 259.535 1286.87 465.764 1134.71 472.079C982.523 478.391 987.941 307.889 1093.03 303.531C1093.03 303.531 1079.22 272.388 1012.81 275.144C877.158 280.772 870.229 547.992 1097.28 538.57C1436.23 524.504 1302.6 8.90019 916.519 24.9204C563.746 39.559 585.464 329.751 585.464 329.751C585.464 329.751 516.205 56.5078 189.538 55.7165C-137.128 54.9252 148.162 150.31 192.235 121.046C236.309 91.782 299.266 98.86 297.453 100.822C216.407 116.898 231.399 160.701 233.437 161.246C235.475 161.791 260.604 149.296 296.569 147.803C533.149 137.986 578.886 371.806 578.886 371.806C578.886 371.806 509.91 196.716 297.512 205.531C257.784 207.179 225.553 217.704 196.696 231.736C167.839 245.769 173.112 350.639 199.865 308.5C226.618 266.362 273.888 242.627 329.22 247.884Z" fill="#F7EFEB"/>
<path opacity="0.65" d="M610.405 765.551C611.045 781.005 625.278 792.875 642.026 792.178C658.806 791.483 671.995 778.477 671.324 763.024C670.683 747.571 656.482 735.7 639.733 736.398C622.953 737.092 609.796 750.225 610.405 765.551Z" fill="#F7EFEB"/>
<path opacity="0.65" d="M1127.39 415.782C1148.46 414.906 1165 398.489 1164.19 379.143C1163.38 359.794 1145.56 344.802 1124.49 345.678C1103.42 346.551 1086.88 362.968 1087.69 382.314C1088.5 401.663 1106.32 416.655 1127.39 415.782Z" fill="#F7EFEB"/>
<path opacity="0.65" d="M572.845 243.427C573.346 245.418 563.803 93.1575 684.533 44.9822C679.799 41.0254 618.973 17.2442 585.062 67.8605C584.019 43.1106 547.459 33.1758 547.459 33.1758C547.459 33.1758 517.847 51.8973 516.888 77.3576C516.888 77.3576 482.862 24.78 404.06 56.2421C404.828 55.3294 538.067 108.321 572.845 243.427Z" fill="#F7EFEB"/>
<path opacity="0.65" d="M870.23 301.867C904.178 296.809 929.177 264.937 927.492 224.358C925.808 183.775 877.54 195.972 877.54 195.972C877.54 195.972 878.732 166.35 861.636 155.983C844.54 145.619 822.394 146.788 807.379 166.794C794.016 130.22 762.424 120.709 724.378 162.307C686.302 203.908 723.755 257.353 723.755 257.353C726.449 251.325 730.499 244.863 736.645 238.064L737.044 237.544C753.518 220.248 770.285 216.031 781.575 215.562C800.205 214.787 817.265 223.769 825.957 239.142C835.952 256.722 833.099 278.74 818.385 296.592C818.261 296.472 839.856 305.518 870.23 301.867Z" fill="#F7EFEB"/>
<path opacity="0.65" d="M797.899 282.446C822.352 252.865 788.022 219.301 756.087 252.721C735.252 275.86 750.321 288.826 744.017 311.994C757.831 301.352 781.493 301.627 797.899 282.446Z" fill="#F7EFEB"/>
</svg>
