<svg width="58" height="51" viewBox="0 0 58 51" fill="none" xmlns="http://www.w3.org/2000/svg">
<g id="Group 48095984">
<path id="Vector" d="M9.67088 16.1663H21.8811L48.6053 5.21877L47.3115 2.05861C46.978 1.24493 46.335 0.597014 45.5239 0.257358C44.7128 -0.0822987 43.7999 -0.0858832 42.9862 0.247392L2.05858 17.0184C1.24495 17.3518 0.597047 17.9946 0.257381 18.8056C-0.0822844 19.6166 -0.0858912 20.5293 0.247353 21.343L1.54108 24.5031L5.42227 22.9127V20.4115C5.4241 19.2856 5.87241 18.2063 6.66889 17.4105C7.46536 16.6147 8.54496 16.1672 9.67088 16.1663Z" fill="#E7C6B6"/>
<path id="Vector_2" d="M5.42404 33.9718V28.4441L3.48431 29.2393L5.42404 33.9718Z" fill="#E7C6B6"/>
<path id="Vector_3" d="M53.0937 16.166L50.5468 9.95093L35.3808 16.166H53.0937Z" fill="#E7C6B6"/>
<path id="Vector_4" d="M53.9009 17.0984H9.67086C8.79171 17.0986 7.94865 17.448 7.32708 18.0698C6.7055 18.6915 6.35632 19.5346 6.35632 20.4138V47.3173C6.35655 48.1966 6.70593 49.0397 7.32763 49.6614C7.94934 50.2831 8.79249 50.6325 9.67172 50.6327H53.9009C54.3363 50.6328 54.7675 50.5472 55.1698 50.3806C55.5721 50.214 55.9376 49.9698 56.2455 49.6619C56.5534 49.354 56.7976 48.9885 56.9642 48.5862C57.1307 48.1839 57.2164 47.7527 57.2163 47.3173V20.4138C57.2164 19.9784 57.1307 19.5472 56.9642 19.1449C56.7976 18.7426 56.5534 18.3771 56.2455 18.0692C55.9376 17.7613 55.5721 17.5171 55.1698 17.3505C54.7675 17.184 54.3363 17.0983 53.9009 17.0984ZM20.64 29.9287C20.64 30.2993 20.4928 30.6547 20.2307 30.9167C19.9687 31.1788 19.6133 31.326 19.2427 31.326H11.558C11.1874 31.326 10.832 31.1788 10.57 30.9167C10.308 30.6547 10.1608 30.2993 10.1608 29.9287V24.759C10.1608 24.5755 10.1969 24.3938 10.2671 24.2243C10.3373 24.0548 10.4402 23.9007 10.57 23.771C10.6997 23.6413 10.8538 23.5383 11.0233 23.4681C11.1928 23.3979 11.3745 23.3618 11.558 23.3618H19.2427C19.4262 23.3618 19.6079 23.3979 19.7774 23.4681C19.947 23.5383 20.101 23.6413 20.2307 23.771C20.3605 23.9007 20.4634 24.0548 20.5336 24.2243C20.6038 24.3938 20.64 24.5755 20.64 24.759V29.9287Z" fill="#E7C6B6"/>
</g>
</svg>
