<svg width="79" height="79" viewBox="0 0 79 79" fill="none" xmlns="http://www.w3.org/2000/svg">
<path d="M63.4502 57.7987C63.3656 57.0155 63.1259 56.2569 62.7452 55.5672C62.3645 54.8775 61.8504 54.2705 61.2328 53.7814C59.5164 52.4361 56.6589 49.6435 56.2135 45.8026C55.5641 40.2359 57.1413 20.3908 40.8589 18.0714C40.7928 17.5435 40.8467 17.0076 41.0166 16.5034C41.2218 15.9206 41.2974 15.3001 41.2382 14.6851C41.179 14.0701 40.9864 13.4754 40.6738 12.9424C40.3612 12.4095 39.9362 11.9511 39.4283 11.5993C38.9204 11.2474 38.3419 11.0106 37.7331 10.9052C37.1242 10.7999 36.4998 10.8286 35.9032 10.9893C35.3066 11.15 34.7522 11.4389 34.2788 11.8359C33.8053 12.2328 33.424 12.7282 33.1616 13.2876C32.8992 13.8469 32.762 14.4568 32.7594 15.0747C32.7573 15.5848 32.8485 16.091 33.0285 16.5684C33.1923 17.0707 33.2399 17.6037 33.1676 18.127C17.0429 20.5393 18.5552 40.273 17.9336 45.7933C17.4789 49.6343 14.6307 52.4269 12.9143 53.7721C12.2857 54.2559 11.7618 54.8622 11.3743 55.5543C10.9868 56.2464 10.7437 57.0099 10.6598 57.7987C10.2516 61.9829 15.0946 61.5098 15.0946 61.5098H59.0154C59.0154 61.5098 63.8491 61.9829 63.4502 57.7987Z" fill="#E7C6B6"/>
<path d="M57.4472 39.768C62.4341 37.7197 64.8163 32.0165 62.7679 27.0297C60.7196 22.0428 55.0164 19.6606 50.0296 21.7089C45.0427 23.7572 42.6605 29.4604 44.7088 34.4473C46.7571 39.4342 52.4603 41.8163 57.4472 39.768Z" fill="#E7C6B6" stroke="#12331A" stroke-width="2" stroke-miterlimit="10"/>
<path d="M54.8595 27.4768V34.4768H53.2395V28.7768H51.8395V27.4768H54.8595Z" fill="#12331A"/>
<path d="M37.0552 70.2495C38.7712 70.2497 40.4312 69.6394 41.7384 68.5277C43.0455 67.4161 43.9145 65.8756 44.1898 64.1819H29.9114C30.1887 65.8764 31.0596 67.417 32.3683 68.5285C33.6769 69.6401 35.3382 70.2501 37.0552 70.2495Z" fill="#E7C6B6"/>
</svg>
