<svg width="58" height="43" viewBox="0 0 58 43" fill="none" xmlns="http://www.w3.org/2000/svg">
<g id="Group 48095995">
<path id="Vector" d="M0 36.0015V6.99847C0 6.07942 0.181019 5.16936 0.532725 4.32027C0.884431 3.47118 1.39994 2.69967 2.0498 2.0498C2.69967 1.39994 3.47118 0.884432 4.32027 0.532726C5.16937 0.18102 6.07941 0 6.99847 0H50.3714C52.2275 0 54.0076 0.737336 55.3201 2.0498C56.6326 3.36227 57.3699 5.14236 57.3699 6.99847V36.0015C57.3699 37.8576 56.6326 39.6377 55.3201 40.9502C54.0076 42.2627 52.2275 43 50.3714 43H6.99847C6.07941 43 5.16937 42.819 4.32027 42.4673C3.47118 42.1156 2.69967 41.6001 2.0498 40.9502C1.39994 40.3003 0.884431 39.5288 0.532725 38.6797C0.181019 37.8306 0 36.9206 0 36.0015Z" fill="#E7C6B6"/>
<path id="Vector_2" d="M16.9582 19.0867C16.591 19.085 16.2381 18.9439 15.971 18.6918L9.38933 12.1102C9.25799 11.9815 9.15364 11.8279 9.08241 11.6583C9.01118 11.4888 8.97449 11.3068 8.97449 11.1229C8.97449 10.939 9.01118 10.757 9.08241 10.5875C9.15364 10.418 9.25799 10.2644 9.38933 10.1357C9.65589 9.87438 10.0143 9.72803 10.3875 9.72803C10.7608 9.72803 11.1192 9.87438 11.3858 10.1357L17.9674 16.7173C18.2287 16.9839 18.375 17.3422 18.375 17.7155C18.375 18.0888 18.2287 18.4472 17.9674 18.7137C17.6902 18.9611 17.3296 19.0944 16.9582 19.0867Z" fill="#0F3017"/>
<path id="Vector_3" d="M10.3739 19.0864C10.0066 19.0847 9.65373 18.9436 9.38664 18.6915C9.12535 18.4249 8.979 18.0666 8.979 17.6933C8.979 17.32 9.12535 16.9616 9.38664 16.6951L15.9683 10.1134C16.2348 9.85216 16.5932 9.70581 16.9665 9.70581C17.3398 9.70581 17.6981 9.85216 17.9647 10.1134C18.096 10.2421 18.2004 10.3957 18.2716 10.5653C18.3429 10.7348 18.3795 10.9168 18.3795 11.1007C18.3795 11.2846 18.3429 11.4666 18.2716 11.6361C18.2004 11.8056 18.096 11.9593 17.9647 12.0879L11.3831 18.6696C11.1127 18.9329 10.7513 19.0822 10.3739 19.0864Z" fill="#0F3017"/>
<path id="Vector_4" d="M31.9428 19.0866C31.5746 19.0895 31.2201 18.9477 30.9555 18.6917L24.3739 12.1101C24.1561 11.8404 24.0458 11.4997 24.0642 11.1536C24.0826 10.8074 24.2284 10.4803 24.4735 10.2352C24.7186 9.99012 25.0457 9.84435 25.3918 9.82595C25.738 9.80756 26.0787 9.91785 26.3484 10.1356L32.93 16.7172C33.1169 16.9145 33.2425 17.1618 33.2917 17.429C33.3408 17.6963 33.3113 17.9721 33.2068 18.2229C33.1023 18.4738 32.9272 18.6889 32.7028 18.8422C32.4785 18.9955 32.2144 19.0804 31.9428 19.0866Z" fill="#0F3017"/>
<path id="Vector_5" d="M25.4258 19.086C25.1497 19.0839 24.8804 19.0003 24.6515 18.8459C24.4226 18.6915 24.2444 18.473 24.139 18.2178C24.0337 17.9626 24.0059 17.682 24.0592 17.4111C24.1124 17.1402 24.2444 16.891 24.4385 16.6947L31.0201 10.1131C31.1488 9.98174 31.3024 9.8774 31.472 9.80617C31.6415 9.73493 31.8235 9.69824 32.0074 9.69824C32.1913 9.69824 32.3733 9.73493 32.5428 9.80617C32.7123 9.8774 32.8659 9.98174 32.9946 10.1131C33.1287 10.2402 33.2355 10.3933 33.3085 10.563C33.3815 10.7327 33.4191 10.9156 33.4191 11.1003C33.4191 11.2851 33.3815 11.4679 33.3085 11.6377C33.2355 11.8074 33.1287 11.9605 32.9946 12.0876L26.413 18.6692C26.152 18.9332 25.797 19.0831 25.4258 19.086Z" fill="#0F3017"/>
<path id="Vector_6" d="M46.9728 19.0859C46.6047 19.0887 46.2502 18.9469 45.9856 18.691L39.4039 12.1093C39.2507 11.9856 39.1252 11.8311 39.0356 11.6557C38.946 11.4803 38.8943 11.288 38.8839 11.0914C38.8734 10.8947 38.9045 10.6981 38.975 10.5142C39.0455 10.3303 39.1539 10.1633 39.2931 10.024C39.4324 9.88478 39.5994 9.77638 39.7833 9.70587C39.9672 9.63536 40.1638 9.60432 40.3605 9.61477C40.5571 9.62522 40.7494 9.67692 40.9248 9.76652C41.1002 9.85612 41.2547 9.98161 41.3784 10.1348L47.9601 16.7165C48.147 16.9137 48.2726 17.161 48.3217 17.4283C48.3709 17.6956 48.3414 17.9713 48.2369 18.2222C48.1324 18.473 47.9573 18.6881 47.7329 18.8415C47.5085 18.9948 47.2445 19.0797 46.9728 19.0859Z" fill="#0F3017"/>
<path id="Vector_7" d="M40.4543 19.0871C40.1782 19.0849 39.9089 19.0014 39.6801 18.8469C39.4512 18.6925 39.273 18.474 39.1676 18.2188C39.0622 17.9636 39.0345 17.683 39.0877 17.4121C39.141 17.1412 39.2729 16.8921 39.4671 16.6957L46.0487 10.1141C46.3184 9.89637 46.6591 9.78608 47.0052 9.80447C47.3514 9.82286 47.6785 9.96864 47.9236 10.2137C48.1687 10.4588 48.3144 10.7859 48.3328 11.1321C48.3512 11.4782 48.2409 11.8189 48.0232 12.0886L41.4416 18.6702C41.1805 18.9342 40.8256 19.0841 40.4543 19.0871Z" fill="#0F3017"/>
<path id="Vector_8" d="M16.9582 33.1714C16.7742 33.1711 16.5921 33.1341 16.4225 33.0625C16.253 32.9909 16.0995 32.8862 15.971 32.7545L9.38933 26.1729C9.25799 26.0442 9.15364 25.8906 9.08241 25.7211C9.01118 25.5516 8.97449 25.3695 8.97449 25.1857C8.97449 25.0018 9.01118 24.8197 9.08241 24.6502C9.15364 24.4807 9.25799 24.3271 9.38933 24.1984C9.65589 23.9371 10.0143 23.7908 10.3875 23.7908C10.7608 23.7908 11.1192 23.9371 11.3858 24.1984L17.9674 30.78C18.1628 30.9777 18.2952 31.2289 18.3478 31.5018C18.4003 31.7748 18.3707 32.0572 18.2626 32.3132C18.1546 32.5693 17.9729 32.7876 17.7407 32.9403C17.5085 33.0931 17.2362 33.1735 16.9582 33.1714Z" fill="#0F3017"/>
<path id="Vector_9" d="M10.3766 33.1711C10.1005 33.1689 9.83117 33.0854 9.60231 32.931C9.37344 32.7766 9.19519 32.5581 9.08983 32.3029C8.98448 32.0477 8.9567 31.7671 9.00996 31.4962C9.06323 31.2253 9.19518 30.9761 9.38931 30.7798L15.9709 24.1982C16.2375 23.9369 16.5959 23.7905 16.9692 23.7905C17.3424 23.7905 17.7008 23.9369 17.9674 24.1982C18.0987 24.3269 18.2031 24.4805 18.2743 24.65C18.3455 24.8195 18.3822 25.0015 18.3822 25.1854C18.3822 25.3693 18.3455 25.5513 18.2743 25.7208C18.2031 25.8904 18.0987 26.044 17.9674 26.1727L11.3857 32.7543C11.2546 32.8887 11.0976 32.9949 10.9241 33.0666C10.7505 33.1382 10.5643 33.1738 10.3766 33.1711Z" fill="#0F3017"/>
<path id="Vector_10" d="M31.9428 33.1711C31.7584 33.1733 31.5755 33.1375 31.4056 33.0658C31.2357 32.994 31.0825 32.888 30.9555 32.7542L24.3739 26.1726C24.1561 25.9029 24.0458 25.5622 24.0642 25.2161C24.0826 24.8699 24.2284 24.5428 24.4735 24.2977C24.7186 24.0526 25.0457 23.9068 25.3918 23.8885C25.738 23.8701 26.0787 23.9804 26.3484 24.1981L32.93 30.7797C33.0641 30.9068 33.1709 31.0599 33.2439 31.2297C33.3169 31.3994 33.3545 31.5822 33.3545 31.767C33.3545 31.9517 33.3169 32.1346 33.2439 32.3043C33.1709 32.474 33.0641 32.6271 32.93 32.7542C32.8039 32.889 32.6508 32.9958 32.4807 33.0676C32.3106 33.1395 32.1273 33.1747 31.9428 33.1711Z" fill="#0F3017"/>
<path id="Vector_11" d="M25.428 33.172C25.2436 33.1743 25.0607 33.1384 24.8908 33.0667C24.7209 32.995 24.5677 32.8889 24.4407 32.7551C24.3094 32.6265 24.205 32.4729 24.1338 32.3033C24.0626 32.1338 24.0259 31.9518 24.0259 31.7679C24.0259 31.584 24.0626 31.402 24.1338 31.2325C24.205 31.0629 24.3094 30.9093 24.4407 30.7807L31.0224 24.199C31.151 24.0677 31.3046 23.9633 31.4742 23.8921C31.6437 23.8209 31.8257 23.7842 32.0096 23.7842C32.1935 23.7842 32.3755 23.8209 32.545 23.8921C32.7146 23.9633 32.8682 24.0677 32.9968 24.199C33.1309 24.3261 33.2378 24.4792 33.3107 24.6489C33.3837 24.8187 33.4214 25.0015 33.4214 25.1863C33.4214 25.371 33.3837 25.5539 33.3107 25.7236C33.2378 25.8933 33.1309 26.0464 32.9968 26.1735L26.4152 32.7551C26.2883 32.8889 26.135 32.995 25.9651 33.0667C25.7952 33.1384 25.6124 33.1743 25.428 33.172Z" fill="#0F3017"/>
<path id="Vector_12" d="M46.9728 33.1715C46.7884 33.1738 46.6055 33.138 46.4357 33.0662C46.2658 32.9945 46.1125 32.8884 45.9856 32.7547L39.4039 26.1731C39.2507 26.0493 39.1252 25.8948 39.0356 25.7194C38.946 25.544 38.8943 25.3518 38.8839 25.1551C38.8734 24.9584 38.9045 24.7618 38.975 24.5779C39.0455 24.394 39.1539 24.227 39.2931 24.0878C39.4324 23.9485 39.5994 23.8401 39.7833 23.7696C39.9672 23.6991 40.1638 23.668 40.3605 23.6785C40.5571 23.6889 40.7494 23.7406 40.9248 23.8302C41.1002 23.9198 41.2547 24.0453 41.3784 24.1986L47.9601 30.7802C48.0914 30.9089 48.1958 31.0625 48.267 31.232C48.3382 31.4015 48.3749 31.5836 48.3749 31.7674C48.3749 31.9513 48.3382 32.1334 48.267 32.3029C48.1958 32.4724 48.0914 32.626 47.9601 32.7547C47.8331 32.8884 47.6799 32.9945 47.51 33.0662C47.3401 33.138 47.1572 33.1738 46.9728 33.1715Z" fill="#0F3017"/>
<path id="Vector_13" d="M40.4521 33.1713C40.2677 33.1736 40.0849 33.1377 39.915 33.066C39.7451 32.9943 39.5918 32.8882 39.4649 32.7545C39.3335 32.6258 39.2292 32.4722 39.158 32.3027C39.0867 32.1331 39.05 31.9511 39.05 31.7672C39.05 31.5833 39.0867 31.4013 39.158 31.2318C39.2292 31.0623 39.3335 30.9087 39.4649 30.78L46.0465 24.1983C46.3162 23.9806 46.6569 23.8703 47.0031 23.8887C47.3492 23.9071 47.6763 24.0529 47.9214 24.298C48.1665 24.5431 48.3123 24.8702 48.3307 25.2163C48.3491 25.5624 48.2388 25.9031 48.021 26.1728L41.4394 32.7545C41.3124 32.8882 41.1592 32.9943 40.9893 33.066C40.8194 33.1377 40.6365 33.1736 40.4521 33.1713Z" fill="#0F3017"/>
</g>
</svg>
