<svg width="81" height="90" viewBox="0 0 81 90" fill="none" xmlns="http://www.w3.org/2000/svg">
<path id="Vector" d="M80.2511 72.6896L72.8932 56.7507L76.2842 52.7687C77.1523 51.752 77.1348 50.2886 76.2495 49.5023L73.6231 47.1671C72.7274 46.3799 71.3167 46.5665 70.4486 47.5833L69.2901 48.9442L66.5865 43.0895L70.3533 38.6701C71.2215 37.6534 71.2015 36.1903 70.3158 35.4015L67.6898 33.0689C66.794 32.2817 65.383 32.4658 64.5173 33.4821L62.9836 35.2675L61.1008 31.1919C65.7758 24.7385 69.7023 19.1313 71.6888 16.0269C77.929 6.27586 74.6206 1.11853 74.4085 0.817609C74.0606 0.715602 68.1388 -0.844834 60.7783 8.11328C58.4284 10.9355 54.3068 16.3986 49.596 22.837L45.1392 22.2981L46.3776 20.2866C47.0773 19.1473 46.8166 17.7403 45.7961 17.14L42.7589 15.3635C41.7343 14.7535 40.3411 15.1972 39.6389 16.3369L36.6088 21.2856L30.1968 20.4971L31.1344 18.9755C31.8366 17.8358 31.576 16.4288 30.5526 15.8264L27.5255 14.0483C26.5008 13.4383 25.1051 13.8824 24.405 15.0192L21.6619 19.4725L4.24752 17.3903C3.68793 17.3452 3.12703 17.4596 2.62976 17.7202C2.13248 17.9808 1.71917 18.3769 1.43768 18.8627L0.164583 20.9311L31.7463 34.5515C32.4155 34.8407 33.0297 35.2433 33.562 35.7414L37.6559 39.5864C30.7337 49.4966 24.6129 58.668 22.8145 62.2957L6.38623 61.8996C5.86222 61.8998 5.34732 62.0366 4.8923 62.2965C4.43727 62.5565 4.05783 62.9305 3.79138 63.3818L2.42003 65.6097L18.5892 72.984C14.7389 79.8396 14.5255 82.9034 14.5255 82.9034C14.5255 82.9034 17.3904 81.731 22.7428 75.9193L34.9456 89.2673L36.6427 87.2786C36.9868 86.8883 37.2241 86.4156 37.3316 85.9065C37.4392 85.3973 37.4133 84.869 37.2565 84.3728L31.8319 68.8542C34.7289 66.0279 41.5676 57.3811 48.8609 47.7365L53.7793 50.4508C54.4179 50.8014 54.9901 51.2613 55.4699 51.8096L78.1517 77.669L79.7269 75.8204C80.1012 75.4015 80.3491 74.885 80.4418 74.3309C80.5346 73.7768 80.4685 73.2077 80.2511 72.6896Z" fill="#E12D43"/>
</svg>
